{
.appVersion = "1230";
DisplayStrings = (
N,
a,
"/approxequal/approxequal.tf",
"/zero.propold/one.propold/two.propold/three.propold/four.propold/five.propold/six.propold/seven.propold/eight.propold/nine.propold",
"/.notdef",
"/.notdef",
"/.notdef",
"/.notdef",
"/.notdef",
"  ",
"/rupee.tf"
);
classes = (
{
automatic = 1;
code = "a b c d e f g h i j k l m n o p q r s t u v w x y z A B C D E F G H I J K L M N O P Q R S T U V W X Y Z agrave egrave ograve Agrave Egrave ugrave aacute eacute oacute uacute Aacute Eacute Igrave Iacute Ograve Oacute Ugrave Uacute acircumflex ecircumflex ocircumflex ucircumflex Acircumflex Ecircumflex Icircumflex Ocircumflex Ucircumflex adieresis edieresis odieresis udieresis Adieresis Edieresis Idieresis Odieresis Udieresis dotlessi igrave iacute icircumflex idieresis atilde ntilde otilde Atilde Ntilde Otilde";
name = AllLetters;
},
{
automatic = 1;

glyphs = (
{
glyphname = comma;
lastChange = "2019-05-14 17:00:04 +0000";
layers = (
{
layerId = "CE2138A5-93BA-4A69-8B69-7D34CC27D2DF";
paths = (
{
closed = 1;
nodes = (
"222 -117 OFFCURVE",
"256 -46 OFFCURVE",
"256 18 CURVE SMOOTH",
"256 71 OFFCURVE",
"216 112 OFFCURVE",
"171 112 CURVE SMOOTH",
"134 112 OFFCURVE",
"110 82 OFFCURVE",
"110 51 CURVE SMOOTH",
"110 12 OFFCURVE",
"142 -12 OFFCURVE",
"183 -10 CURVE",
"174 -72 OFFCURVE",
"136 -104 OFFCURVE",
"72 -135 CURVE",
"133 -163 LINE"
);
}
);
width = 327.8;
},
{
layerId = "54E4F05E-05D2-4398-A473-3C5492C75DBF";
paths = (
{
closed = 1;
nodes = (
"438 -246 OFFCURVE",
"551 -77 OFFCURVE",
"551 79 CURVE SMOOTH",
"551 231 OFFCURVE",
"462 352 OFFCURVE",
"306 352 CURVE SMOOTH",
"183 352 OFFCURVE",
"92 273 OFFCURVE",
"92 168 CURVE SMOOTH",
"92 73 OFFCURVE",
"166 12 OFFCURVE",
"257 -10 CURVE",
"229 -90 OFFCURVE",
"136 -159 OFFCURVE",
"35 -209 CURVE",
"268 -329 LINE"
);
}
);
width = 598.4;
}
);
unicode = 002C;
},
{
glyphname = period;
lastChange = "2019-05-14 17:00:04 +0000";
layers = (
{
layerId = "CE2138A5-93BA-4A69-8B69-7D34CC27D2DF";
paths = (
{
closed = 1;
nodes = (
"72 12 OFFCURVE",
"104 -18 OFFCURVE",
"139 -18 CURVE SMOOTH",
"178 -18 OFFCURVE",
"210 12 OFFCURVE",
"210 47 CURVE SMOOTH",
"210 82 OFFCURVE",
"178 116 OFFCURVE",
"139 116 CURVE SMOOTH",
"104 116 OFFCURVE",
"72 82 OFFCURVE",
"72 47 CURVE SMOOTH"
);
}
);
width = 282.175;
},
{
layerId = "54E4F05E-05D2-4398-A473-3C5492C75DBF";
paths = (
{
closed = 1;
nodes = (
"35 67 OFFCURVE",
"122 -18 OFFCURVE",
"250 -18 CURVE SMOOTH",
"375 -18 OFFCURVE",
"468 67 OFFCURVE",
"468 188 CURVE SMOOTH",
"468 304 OFFCURVE",
"375 393 OFFCURVE",
"250 393 CURVE SMOOTH",
"122 393 OFFCURVE",
"35 304 OFFCURVE",
"35 188 CURVE SMOOTH"
);
}
);
width = 506.65;
}
);
unicode = 002E;
},
{
glyphname = hyphen;
lastChange = "2019-05-14 17:00:04 +0000";
layers = (
{
layerId = "CE2138A5-93BA-4A69-8B69-7D34CC27D2DF";
paths = (
{
closed = 1;
nodes = (
"585 528 LINE",
"585 593 LINE",
"60 593 LINE",
"60 528 LINE"
);
}
);
width = 643.725;
},
{
layerId = "54E4F05E-05D2-4398-A473-3C5492C75DBF";
paths = (
{
closed = 1;
nodes = (
"690 485 LINE",
"690 765 LINE",
"109 765 LINE",
"109 485 LINE"
);
}
);
width = 800.55;
}
);
unicode = 002D;
},
{
glyphname = endash;
lastChange = "2019-05-14 17:00:04 +0000";
layers = (
{
layerId = "CE2138A5-93BA-4A69-8B69-7D34CC27D2DF";
paths = (
{
closed = 1;
nodes = (
"729 528 LINE",
"729 593 LINE",
"110 593 LINE",
"110 528 LINE"
);
}
);
width = 837.375;
},
{
layerId = "54E4F05E-05D2-4398-A473-3C5492C75DBF";
paths = (
{
closed = 1;
nodes = (
"1049 485 LINE",
"1049 765 LINE",
"110 765 LINE",
"110 485 LINE"
);
}
);
width = 1160.25;
}
);
unicode = 2013;
},
{
glyphname = emdash;
lastChange = "2019-05-14 17:00:04 +0000";
layers = (
{
layerId = "CE2138A5-93BA-4A69-8B69-7D34CC27D2DF";
paths = (
{
closed = 1;
nodes = (
"1254 528 LINE",
"1254 593 LINE",
"110 593 LINE",
"110 528 LINE"
);
}
);
width = 1359.825;
},
{
layerId = "54E4F05E-05D2-4398-A473-3C5492C75DBF";
paths = (
{
closed = 1;
nodes = (
"1518 485 LINE",
"1518 765 LINE",
"110 765 LINE",
"110 485 LINE"
);
}
);
width = 1627.35;
}
);
unicode = 2014;
},
{
glyphname = exclam;
lastChange = "2019-05-14 17:00:04 +0000";
layers = (
{
layerId = "CE2138A5-93BA-4A69-8B69-7D34CC27D2DF";
paths = (
{
closed = 1;
nodes = (
"287 264 LINE",
"298 1176 LINE",
"225 1176 LINE",
"239 264 LINE"
);
},
{
closed = 1;
nodes = (
"299 -18 OFFCURVE",
"330 12 OFFCURVE",
"330 47 CURVE SMOOTH",
"330 82 OFFCURVE",
"299 116 OFFCURVE",
"260 116 CURVE SMOOTH",
"224 116 OFFCURVE",
"193 82 OFFCURVE",
"193 47 CURVE SMOOTH",
"193 12 OFFCURVE",
"224 -18 OFFCURVE",
"260 -18 CURVE SMOOTH"
);
}
);
width = 523.225;
},
{
layerId = "54E4F05E-05D2-4398-A473-3C5492C75DBF";
paths = (
{
closed = 1;
nodes = (
"459 528 LINE",
"495 1404 LINE",
"145 1404 LINE",
"177 528 LINE"
);
},
{
closed = 1;
nodes = (
"446 -18 OFFCURVE",
"539 67 OFFCURVE",
"539 188 CURVE SMOOTH",
"539 304 OFFCURVE",
"446 393 OFFCURVE",
"321 393 CURVE SMOOTH",
"194 393 OFFCURVE",
"107 304 OFFCURVE",
"107 188 CURVE SMOOTH",
"107 67 OFFCURVE",
"194 -18 OFFCURVE",
"321 -18 CURVE SMOOTH"
);
}
);
width = 618.55;
}
);
unicode = 0021;
},
{
glyphname = a;
lastChange = "2019-05-14 17:00:04 +0000";
layers = (
{
anchors = (
{
name = above;
position = "{527, 971}";
}
);
layerId = "CE2138A5-93BA-4A69-8B69-7D34CC27D2DF";
paths = (
{
closed = 1;
nodes = (
"848 0 LINE",
"848 614 LINE SMOOTH",
"848 868 OFFCURVE",
"702 962 OFFCURVE",
"515 962 CURVE SMOOTH",
"334 962 OFFCURVE",
"168 896 OFFCURVE",
"168 700 CURVE",
"256 700 LINE",
"256 847 OFFCURVE",
"381 899 OFFCURVE",
"515 899 CURVE SMOOTH",
"675 899 OFFCURVE",
"774 823 OFFCURVE",
"774 614 CURVE SMOOTH",
"774 183 LINE",
"784 0 LINE"
);
},
{
closed = 1;
nodes = (
"651 -20 OFFCURVE",
"794 138 OFFCURVE",
"794 311 CURVE",
"774 311 LINE",
"774 187 OFFCURVE",
"615 43 OFFCURVE",
"449 43 CURVE SMOOTH",
"280 43 OFFCURVE",
"208 135 OFFCURVE",
"208 252 CURVE SMOOTH",
"208 406 OFFCURVE",
"329 465 OFFCURVE",
"473 465 CURVE SMOOTH",
"565 465 OFFCURVE",
"694 438 OFFCURVE",
"780 398 CURVE",
"780 455 LINE",
"682 497 OFFCURVE",
"567 524 OFFCURVE",
"474 524 CURVE SMOOTH",
"296 524 OFFCURVE",
"130 456 OFFCURVE",
"130 252 CURVE SMOOTH",
"130 122 OFFCURVE",
"228 -20 OFFCURVE",
"450 -20 CURVE SMOOTH"
);
}
);
width = 1030.275;
},
{
anchors = (
{
name = above;
position = "{632, 1094}";
}
);
layerId = "54E4F05E-05D2-4398-A473-3C5492C75DBF";
paths = (
{
closed = 1;
nodes = (
"1094 0 LINE",
"1094 620 LINE SMOOTH",
"1094 886 OFFCURVE",
"918 1017 OFFCURVE",
"632 1017 CURVE SMOOTH",
"304 1017 OFFCURVE",
"138 908 OFFCURVE",
"138 676 CURVE",
"484 676 LINE",
"484 736 OFFCURVE",
"528 788 OFFCURVE",
"632 788 CURVE SMOOTH",
"749 788 OFFCURVE",
"774 731 OFFCURVE",
"774 632 CURVE SMOOTH",
"774 263 LINE",
"815 0 LINE"
);
},
{
closed = 1;
nodes = (
"744 -32 OFFCURVE",
"849 156 OFFCURVE",
"849 385 CURVE",
"774 385 LINE",
"774 304 OFFCURVE",
"732 209 OFFCURVE",
"596 209 CURVE SMOOTH",
"489 209 OFFCURVE",
"442 252 OFFCURVE",
"442 301 CURVE SMOOTH",
"442 369 OFFCURVE",
"501 397 OFFCURVE",
"596 397 CURVE SMOOTH",
"664 397 OFFCURVE",
"737 389 OFFCURVE",
"804 374 CURVE",
"804 554 LINE",
"713 571 OFFCURVE",
"635 585 OFFCURVE",
"523 585 CURVE SMOOTH",
"247 585 OFFCURVE",
"100 474 OFFCURVE",
"100 301 CURVE SMOOTH",
"100 116 OFFCURVE",
"240 -32 OFFCURVE",
"505 -32 CURVE SMOOTH"
);
}
);
width = 1242.45;
}
);
unicode = 0061;
},
{
glyphname = b;
lastChange = "2019-05-14 17:00:04 +0000";
layers = (
{
layerId = "CE2138A5-93BA-4A69-8B69-7D34CC27D2DF";
paths = (
{
closed = 1;
nodes = (
"815 -20 OFFCURVE",
"1005 170 OFFCURVE",
"1005 474 CURVE SMOOTH",
"1005 778 OFFCURVE",
"815 962 OFFCURVE",
"599 962 CURVE SMOOTH",
"395 962 OFFCURVE",
"245 804 OFFCURVE",
"245 554 CURVE",
"292 554 LINE",
"292 783 OFFCURVE",
"443 899 OFFCURVE",
"597 899 CURVE SMOOTH",
"772 899 OFFCURVE",
"924 745 OFFCURVE",
"924 474 CURVE SMOOTH",
"924 201 OFFCURVE",
"770 44 OFFCURVE",
"599 44 CURVE SMOOTH",
"443 44 OFFCURVE",
"292 158 OFFCURVE",
"292 385 CURVE",
"245 385 LINE",
"245 136 OFFCURVE",
"395 -20 OFFCURVE",
"597 -20 CURVE SMOOTH"
);
},
{
closed = 1;
nodes = (
"283 0 LINE",
"292 208 LINE",
"292 1356 LINE",
"218 1356 LINE",
"218 0 LINE"
);
}
);
width = 1140.925;
},
{
layerId = "54E4F05E-05D2-4398-A473-3C5492C75DBF";
paths = (
{
closed = 1;
nodes = (
"987 -32 OFFCURVE",
"1189 182 OFFCURVE",
"1189 498 CURVE SMOOTH",
"1189 809 OFFCURVE",
"999 1017 OFFCURVE",
"752 1017 CURVE SMOOTH",
"530 1017 OFFCURVE",
"405 859 OFFCURVE",
"405 542 CURVE",
"489 542 LINE",
"489 654 OFFCURVE",
"572 727 OFFCURVE",
"671 727 CURVE SMOOTH",
"796 727 OFFCURVE",
"869 628 OFFCURVE",
"869 498 CURVE SMOOTH",
"869 361 OFFCURVE",
"794 260 OFFCURVE",
"673 260 CURVE SMOOTH",
"584 260 OFFCURVE",
"489 349 OFFCURVE",
"489 453 CURVE",
"405 453 LINE",
"405 118 OFFCURVE",
"555 -32 OFFCURVE",
"726 -32 CURVE SMOOTH"
);
},
{
closed = 1;
nodes = (
"369 0 LINE",
"489 257 LINE",
"489 1380 LINE",
"169 1380 LINE",
"169 0 LINE"
);
}
);
width = 1273.15;
}
);
unicode = 0062;
},
{
glyphname = c;
lastChange = "2019-05-14 17:00:04 +0000";
layers = (
{
layerId = "CE2138A5-93BA-4A69-8B69-7D34CC27D2DF";
paths = (
{
closed = 1;
nodes = (
"725 -20 OFFCURVE",
"881 104 OFFCURVE",
"881 297 CURVE",
"801 297 LINE",
"801 135 OFFCURVE",
"696 44 OFFCURVE",
"520 44 CURVE SMOOTH",
"325 44 OFFCURVE",
"190 229 OFFCURVE",
"190 474 CURVE SMOOTH",
"190 745 OFFCURVE",
"349 899 OFFCURVE",
"520 899 CURVE SMOOTH",
"652 899 OFFCURVE",
"755 823 OFFCURVE",
"801 687 CURVE",
"881 709 LINE",
"821 856 OFFCURVE",
"701 962 OFFCURVE",
"522 962 CURVE SMOOTH",
"306 962 OFFCURVE",
"110 775 OFFCURVE",
"110 474 CURVE SMOOTH",
"110 170 OFFCURVE",
"306 -20 OFFCURVE",
"522 -20 CURVE SMOOTH"
);
}
);
width = 1004.325;
},
{
layerId = "54E4F05E-05D2-4398-A473-3C5492C75DBF";
paths = (
{
closed = 1;
nodes = (
"866 -32 OFFCURVE",
"1004 159 OFFCURVE",
"1004 371 CURVE",
"684 371 LINE",
"684 307 OFFCURVE",
"659 260 OFFCURVE",
"569 260 CURVE SMOOTH",
"485 260 OFFCURVE",
"405 315 OFFCURVE",
"405 492 CURVE SMOOTH",
"405 671 OFFCURVE",
"484 727 OFFCURVE",
"569 727 CURVE SMOOTH",
"640 727 OFFCURVE",
"675 670 OFFCURVE",
"684 613 CURVE",
"1004 610 LINE",
"1005 795 OFFCURVE",
"861 1017 OFFCURVE",
"571 1017 CURVE SMOOTH",
"312 1017 OFFCURVE",
"86 837 OFFCURVE",
"86 492 CURVE SMOOTH",
"86 176 OFFCURVE",
"312 -32 OFFCURVE",
"571 -32 CURVE SMOOTH"
);
}
);
width = 1087.35;
}
);
unicode = 0063;
},
{
glyphname = d;
lastChange = "2019-05-14 17:00:04 +0000";
layers = (
{
layerId = "CE2138A5-93BA-4A69-8B69-7D34CC27D2DF";
paths = (
{
closed = 1;
nodes = (
"746 -20 OFFCURVE",
"894 136 OFFCURVE",
"894 385 CURVE",
"849 385 LINE",
"849 158 OFFCURVE",
"692 44 OFFCURVE",
"544 44 CURVE SMOOTH",
"369 44 OFFCURVE",
"214 201 OFFCURVE",
"214 474 CURVE SMOOTH",
"214 745 OFFCURVE",
"371 899 OFFCURVE",
"542 899 CURVE SMOOTH",
"700 899 OFFCURVE",
"849 783 OFFCURVE",
"849 554 CURVE",
"894 554 LINE",
"894 804 OFFCURVE",
"744 962 OFFCURVE",
"540 962 CURVE SMOOTH",
"324 962 OFFCURVE",
"134 778 OFFCURVE",
"134 474 CURVE SMOOTH",
"134 170 OFFCURVE",
"324 -20 OFFCURVE",
"544 -20 CURVE SMOOTH"
);
},
{
closed = 1;
nodes = (
"921 0 LINE",
"921 1356 LINE",
"849 1356 LINE",
"849 208 LINE",
"856 0 LINE"
);
}
);
width = 1140.925;
},
{
layerId = "54E4F05E-05D2-4398-A473-3C5492C75DBF";
paths = (
{
closed = 1;
nodes = (
"716 -32 OFFCURVE",
"870 118 OFFCURVE",
"870 453 CURVE",
"781 453 LINE",
"781 349 OFFCURVE",
"692 260 OFFCURVE",
"599 260 CURVE SMOOTH",
"480 260 OFFCURVE",
"405 361 OFFCURVE",
"405 498 CURVE SMOOTH",
"405 628 OFFCURVE",
"476 727 OFFCURVE",
"603 727 CURVE SMOOTH",
"700 727 OFFCURVE",
"781 654 OFFCURVE",
"781 542 CURVE",
"870 542 LINE",
"870 859 OFFCURVE",
"744 1017 OFFCURVE",
"522 1017 CURVE SMOOTH",
"275 1017 OFFCURVE",
"85 809 OFFCURVE",
"85 498 CURVE SMOOTH",
"85 182 OFFCURVE",
"287 -32 OFFCURVE",
"544 -32 CURVE SMOOTH"
);
},
{
closed = 1;
nodes = (
"1105 0 LINE",
"1105 1380 LINE",
"781 1380 LINE",
"781 257 LINE",
"844 0 LINE"
);
}
);
width = 1273.15;
}
);
unicode = 0064;
},
{
glyphname = e;
lastChange = "2019-05-14 17:00:04 +0000";
layers = (
{
anchors = (
{
name = above;
position = "{508, 971}";
}
);
layerId = "CE2138A5-93BA-4A69-8B69-7D34CC27D2DF";
paths = (
{
closed = 1;
nodes = (
"707 -20 OFFCURVE",
"851 82 OFFCURVE",
"881 274 CURVE",
"797 274 LINE",
"779 123 OFFCURVE",
"676 45 OFFCURVE",
"520 45 CURVE SMOOTH",
"295 45 OFFCURVE",
"186 229 OFFCURVE",
"186 466 CURVE SMOOTH",
"186 500 LINE SMOOTH",
"186 700 OFFCURVE",
"295 899 OFFCURVE",
"520 899 CURVE SMOOTH",
"749 899 OFFCURVE",
"808 684 OFFCURVE",
"800 498 CURVE",
"846 528 LINE",
"173 528 LINE",
"173 464 LINE",
"883 464 LINE",
"883 720 OFFCURVE",
"789 962 OFFCURVE",
"520 962 CURVE SMOOTH",
"270 962 OFFCURVE",
"110 774 OFFCURVE",
"110 466 CURVE SMOOTH",
"110 188 OFFCURVE",
"272 -20 OFFCURVE",
"520 -20 CURVE SMOOTH"
);
}
);
width = 993.175;
},
{
anchors = (
{
name = above;
position = "{545, 1094}";
}
);
layerId = "54E4F05E-05D2-4398-A473-3C5492C75DBF";
paths = (
{
closed = 1;
nodes = (
"806 -32 OFFCURVE",
"974 113 OFFCURVE",
"1004 298 CURVE",
"686 298 LINE",
"668 246 OFFCURVE",
"621 223 OFFCURVE",
"563 223 CURVE SMOOTH",
"455 223 OFFCURVE",
"402 303 OFFCURVE",
"402 429 CURVE SMOOTH",
"402 555 LINE SMOOTH",
"402 688 OFFCURVE",
"467 764 OFFCURVE",
"569 764 CURVE SMOOTH",
"691 764 OFFCURVE",
"722 653 OFFCURVE",
"714 559 CURVE",
"760 589 LINE",
"339 589 LINE",
"339 427 LINE",
"994 427 LINE",
"1061 726 OFFCURVE",
"894 1017 OFFCURVE",
"563 1017 CURVE SMOOTH",
"313 1017 OFFCURVE",
"86 823 OFFCURVE",
"86 497 CURVE SMOOTH",
"86 170 OFFCURVE",
"315 -32 OFFCURVE",
"563 -32 CURVE SMOOTH"
);
}
);
width = 1094.65;
}
);
unicode = 0065;
},
{
glyphname = f;
lastChange = "2019-05-14 17:00:04 +0000";
layers = (
{
layerId = "CE2138A5-93BA-4A69-8B69-7D34CC27D2DF";
paths = (
{
closed = 1;
nodes = (
"338 0 LINE",
"338 1120 LINE SMOOTH",
"338 1279 OFFCURVE",
"433 1307 OFFCURVE",
"505 1307 CURVE SMOOTH",
"543 1307 OFFCURVE",
"587 1299 OFFCURVE",
"633 1279 CURVE",
"647 1344 LINE",
"601 1362 OFFCURVE",
"557 1368 OFFCURVE",
"514 1368 CURVE SMOOTH",
"368 1368 OFFCURVE",
"266 1290 OFFCURVE",
"266 1120 CURVE SMOOTH",
"266 0 LINE"
);
},
{
closed = 1;
nodes = (
"557 883 LINE",
"557 942 LINE",
"98 942 LINE",
"98 883 LINE"
);
}
);
width = 633.75;
},
{
layerId = "54E4F05E-05D2-4398-A473-3C5492C75DBF";
paths = (
{
closed = 1;
nodes = (
"554 0 LINE",
"554 1065 LINE SMOOTH",
"554 1119 OFFCURVE",
"586 1147 OFFCURVE",
"634 1147 CURVE SMOOTH",
"666 1147 OFFCURVE",
"698 1139 OFFCURVE",
"725 1132 CURVE",
"788 1375 LINE",
"712 1386 OFFCURVE",
"625 1398 OFFCURVE",
"551 1398 CURVE SMOOTH",
"386 1398 OFFCURVE",
"229 1302 OFFCURVE",
"229 1071 CURVE SMOOTH",
"229 0 LINE"
);
},
{
closed = 1;
nodes = (
"711 778 LINE",
"711 985 LINE",
"98 985 LINE",
"98 778 LINE"
);
}
);
width = 787.5;
}
);
unicode = 0066;
},
{
glyphname = g;
lastChange = "2019-05-14 17:00:04 +0000";
layers = (
{
layerId = "CE2138A5-93BA-4A69-8B69-7D34CC27D2DF";
paths = (
{
closed = 1;
nodes = (
"870 -482 OFFCURVE",
"1071 -306 OFFCURVE",
"1071 -141 CURVE SMOOTH",
"1071 -27 OFFCURVE",
"978 59 OFFCURVE",
"824 59 CURVE SMOOTH",
"405 59 LINE SMOOTH",
"249 59 OFFCURVE",
"205 115 OFFCURVE",
"205 185 CURVE SMOOTH",
"205 280 OFFCURVE",
"291 326 OFFCURVE",
"353 326 CURVE",
"354 363 LINE",
"248 363 OFFCURVE",
"132 304 OFFCURVE",
"132 186 CURVE SMOOTH",
"132 90 OFFCURVE",
"213 -2 OFFCURVE",
"405 -2 CURVE SMOOTH",
"824 -2 LINE SMOOTH",
"939 -2 OFFCURVE",
"995 -68 OFFCURVE",
"995 -140 CURVE SMOOTH",
"995 -289 OFFCURVE",
"798 -419 OFFCURVE",
"520 -419 CURVE SMOOTH",
"273 -419 OFFCURVE",
"157 -315 OFFCURVE",
"157 -198 CURVE SMOOTH",
"157 -78 OFFCURVE",
"247 -2 OFFCURVE",
"405 -2 CURVE",
"407 42 LINE",
"215 42 OFFCURVE",
"87 -40 OFFCURVE",
"87 -198 CURVE SMOOTH",
"87 -360 OFFCURVE",
"267 -482 OFFCURVE",
"520 -482 CURVE SMOOTH"
);
},
{
closed = 1;
nodes = (
"768 260 OFFCURVE",
"917 406 OFFCURVE",
"917 612 CURVE SMOOTH",
"917 817 OFFCURVE",
"768 962 OFFCURVE",
"564 962 CURVE SMOOTH",
"354 962 OFFCURVE",
"205 817 OFFCURVE",
"205 612 CURVE SMOOTH",
"205 406 OFFCURVE",
"354 260 OFFCURVE",
"564 260 CURVE SMOOTH"
);
},
{
closed = 1;
nodes = (
"391 318 OFFCURVE",
"281 443 OFFCURVE",
"281 612 CURVE SMOOTH",
"281 780 OFFCURVE",
"391 899 OFFCURVE",
"564 899 CURVE SMOOTH",
"732 899 OFFCURVE",
"843 780 OFFCURVE",
"843 612 CURVE SMOOTH",
"843 443 OFFCURVE",
"732 318 OFFCURVE",
"562 318 CURVE SMOOTH"
);
},
{
closed = 1;
nodes = (
"847 944 OFFCURVE",
"917 1004 OFFCURVE",
"1041 1004 CURVE",
"1053 1085 LINE",
"881 1085 OFFCURVE",
"808 973 OFFCURVE",
"808 811 CURVE",
"847 814 LINE"
);
}
);
width = 1093.125;
},
{
layerId = "54E4F05E-05D2-4398-A473-3C5492C75DBF";
paths = (
{
closed = 1;
nodes = (
"925 -513 OFFCURVE",
"1151 -294 OFFCURVE",
"1151 -61 CURVE SMOOTH",
"1151 120 OFFCURVE",
"1009 188 OFFCURVE",
"775 188 CURVE SMOOTH",
"498 188 LINE SMOOTH",
"409 188 OFFCURVE",
"371 214 OFFCURVE",
"371 259 CURVE SMOOTH",
"371 311 OFFCURVE",
"414 338 OFFCURVE",
"470 338 CURVE",
"378 437 LINE",
"211 437 OFFCURVE",
"102 353 OFFCURVE",
"102 229 CURVE SMOOTH",
"102 78 OFFCURVE",
"299 -33 OFFCURVE",
"498 -33 CURVE SMOOTH",
"775 -33 LINE SMOOTH",
"816 -33 OFFCURVE",
"835 -50 OFFCURVE",
"835 -85 CURVE SMOOTH",
"835 -172 OFFCURVE",
"743 -259 OFFCURVE",
"581 -259 CURVE SMOOTH",
"427 -259 OFFCURVE",
"317 -223 OFFCURVE",
"317 -143 CURVE SMOOTH",
"317 -72 OFFCURVE",
"382 -33 OFFCURVE",
"498 -33 CURVE",
"235 42 LINE",
"104 42 OFFCURVE",
"1 -34 OFFCURVE",
"1 -161 CURVE SMOOTH",
"1 -342 OFFCURVE",
"205 -513 OFFCURVE",
"581 -513 CURVE SMOOTH"
);
},
{
closed = 1;
nodes = (
"811 321 OFFCURVE",
"1028 455 OFFCURVE",
"1028 667 CURVE SMOOTH",
"1028 885 OFFCURVE",
"811 1017 OFFCURVE",
"576 1017 CURVE SMOOTH",
"336 1017 OFFCURVE",
"125 885 OFFCURVE",
"125 667 CURVE SMOOTH",
"125 455 OFFCURVE",
"336 321 OFFCURVE",
"576 321 CURVE SMOOTH"
);
},
{
closed = 1;
nodes = (
"484 540 OFFCURVE",
"441 596 OFFCURVE",
"441 667 CURVE SMOOTH",
"441 749 OFFCURVE",
"484 800 OFFCURVE",
"576 800 CURVE SMOOTH",
"677 800 OFFCURVE",
"714 749 OFFCURVE",
"714 667 CURVE SMOOTH",
"714 596 OFFCURVE",
"677 540 OFFCURVE",
"580 540 CURVE SMOOTH"
);
},
{
closed = 1;
nodes = (
"952 920 OFFCURVE",
"1010 949 OFFCURVE",
"1121 949 CURVE",
"1133 1251 LINE",
"974 1251 OFFCURVE",
"808 1133 OFFCURVE",
"808 952 CURVE",
"952 857 LINE"
);
}
);
width = 1200.75;
}
);
unicode = 0067;
},
{
glyphname = h;
lastChange = "2019-05-14 17:00:04 +0000";
layers = (
{
layerId = "CE2138A5-93BA-4A69-8B69-7D34CC27D2DF";
paths = (
{
closed = 1;
nodes = (
"983 0 LINE",
"983 556 LINE SMOOTH",
"983 814 OFFCURVE",
"836 962 OFFCURVE",
"625 962 CURVE SMOOTH",
"372 962 OFFCURVE",
"251 759 OFFCURVE",
"251 470 CURVE",
"292 470 LINE",
"292 721 OFFCURVE",
"409 899 OFFCURVE",
"611 899 CURVE SMOOTH",
"800 899 OFFCURVE",
"913 777 OFFCURVE",
"913 556 CURVE SMOOTH",
"913 0 LINE"
);
},
{
closed = 1;
nodes = (
"292 0 LINE",
"292 1356 LINE",
"218 1356 LINE",
"218 0 LINE"
);
}
);
width = 1167.025;
},
{
layerId = "54E4F05E-05D2-4398-A473-3C5492C75DBF";
paths = (
{
closed = 1;
nodes = (
"1143 0 LINE",
"1143 574 LINE SMOOTH",
"1143 832 OFFCURVE",
"1033 1017 OFFCURVE",
"779 1017 CURVE SMOOTH",
"557 1017 OFFCURVE",
"392 839 OFFCURVE",
"392 415 CURVE",
"489 415 LINE",
"489 641 OFFCURVE",
"581 727 OFFCURVE",
"691 727 CURVE SMOOTH",
"763 727 OFFCURVE",
"821 678 OFFCURVE",
"821 574 CURVE SMOOTH",
"821 0 LINE"
);
},
{
closed = 1;
nodes = (
"489 0 LINE",
"489 1380 LINE",
"169 1380 LINE",
"169 0 LINE"
);
}
);
width = 1286.95;
}
);
unicode = 0068;
},
{
glyphname = i;
lastChange = "2019-05-14 17:00:04 +0000";
layers = (
{
layerId = "CE2138A5-93BA-4A69-8B69-7D34CC27D2DF";
paths = (
{
closed = 1;
nodes = (
"292 0 LINE",
"292 942 LINE",
"218 942 LINE",
"218 0 LINE"
);
},
{
closed = 1;
nodes = (
"293 1217 OFFCURVE",
"316 1245 OFFCURVE",
"316 1278 CURVE SMOOTH",
"316 1309 OFFCURVE",
"293 1331 OFFCURVE",
"255 1331 CURVE SMOOTH",
"220 1331 OFFCURVE",
"194 1309 OFFCURVE",
"194 1278 CURVE SMOOTH",
"194 1245 OFFCURVE",
"220 1217 OFFCURVE",
"255 1217 CURVE SMOOTH"
);
}
);
width = 534.5;
},
{
layerId = "54E4F05E-05D2-4398-A473-3C5492C75DBF";
paths = (
{
closed = 1;
nodes = (
"520 0 LINE",
"520 991 LINE",
"200 991 LINE",
"200 0 LINE"
);
},
{
closed = 1;
nodes = (
"477 1112 OFFCURVE",
"550 1177 OFFCURVE",
"550 1290 CURVE SMOOTH",
"550 1401 OFFCURVE",
"477 1472 OFFCURVE",
"360 1472 CURVE SMOOTH",
"238 1472 OFFCURVE",
"170 1401 OFFCURVE",
"170 1290 CURVE SMOOTH",
"170 1177 OFFCURVE",
"238 1112 OFFCURVE",
"360 1112 CURVE SMOOTH"
);
}
);
width = 719;
}
);
unicode = 0069;
},
{
glyphname = j;
lastChange = "2019-05-14 17:00:04 +0000";
layers = (
{
layerId = "CE2138A5-93BA-4A69-8B69-7D34CC27D2DF";
paths = (
{
closed = 1;
nodes = (
"217 -482 OFFCURVE",
"339 -386 OFFCURVE",
"339 -157 CURVE SMOOTH",
"339 946 LINE",
"269 946 LINE",
"269 -157 LINE",
"269 -327 OFFCURVE",
"192 -418 OFFCURVE",
"66 -418 CURVE SMOOTH",
"-22 -418 OFFCURVE",
"-92 -383 OFFCURVE",
"-180 -329 CURVE",
"-193 -395 LINE",
"-101 -458 OFFCURVE",
"-17 -482 OFFCURVE",
"63 -482 CURVE SMOOTH"
);
},
{
closed = 1;
nodes = (
"341 1217 OFFCURVE",
"365 1245 OFFCURVE",
"365 1278 CURVE SMOOTH",
"365 1309 OFFCURVE",
"341 1331 OFFCURVE",
"304 1331 CURVE SMOOTH",
"266 1331 OFFCURVE",
"247 1309 OFFCURVE",
"247 1278 CURVE SMOOTH",
"247 1245 OFFCURVE",
"266 1217 OFFCURVE",
"304 1217 CURVE SMOOTH"
);
}
);
width = 582.925;
},
{
layerId = "54E4F05E-05D2-4398-A473-3C5492C75DBF";
paths = (
{
closed = 1;
nodes = (
"395 -513 OFFCURVE",
"517 -398 OFFCURVE",
"517 -95 CURVE SMOOTH",
"517 989 LINE",
"195 989 LINE",
"195 -89 LINE",
"195 -204 OFFCURVE",
"155 -233 OFFCURVE",
"72 -233 CURVE SMOOTH",
"8 -233 OFFCURVE",
"-74 -211 OFFCURVE",
"-131 -188 CURVE",
"-131 -463 LINE",
"-39 -488 OFFCURVE",
"45 -513 OFFCURVE",
"162 -513 CURVE SMOOTH"
);
},
{
closed = 1;
nodes = (
"470 1112 OFFCURVE",
"543 1177 OFFCURVE",
"543 1290 CURVE SMOOTH",
"543 1401 OFFCURVE",
"470 1472 OFFCURVE",
"353 1472 CURVE SMOOTH",
"236 1472 OFFCURVE",
"161 1401 OFFCURVE",
"161 1290 CURVE SMOOTH",
"161 1177 OFFCURVE",
"236 1112 OFFCURVE",
"353 1112 CURVE SMOOTH"
);
}
);
width = 715.15;
}
);
unicode = 006A;
},
{
glyphname = k;
lastChange = "2019-05-14 17:00:04 +0000";
layers = (
{
layerId = "CE2138A5-93BA-4A69-8B69-7D34CC27D2DF";
paths = (
{
closed = 1;
nodes = (
"292 0 LINE",
"292 1356 LINE",
"218 1356 LINE",
"218 0 LINE"
);
},
{
closed = 1;
nodes = (
"277 407 LINE",
"952 942 LINE",
"838 942 LINE",
"277 493 LINE"
);
},
{
closed = 1;
nodes = (
"972 0 LINE",
"494 591 LINE",
"404 590 LINE",
"878 0 LINE"
);
}
);
width = 1069.6;
},
{
layerId = "54E4F05E-05D2-4398-A473-3C5492C75DBF";
paths = (
{
closed = 1;
nodes = (
"489 0 LINE",
"489 1380 LINE",
"169 1380 LINE",
"169 0 LINE"
);
},
{
closed = 1;
nodes = (
"449 333 LINE",
"1216 985 LINE",
"789 985 LINE",
"449 659 LINE"
);
},
{
closed = 1;
nodes = (
"1242 0 LINE",
"734 714 LINE",
"441 633 LINE",
"854 0 LINE"
);
}
);
width = 1241.8;
}
);
unicode = 006B;
},
{
glyphname = l;
lastChange = "2019-05-14 17:00:04 +0000";
layers = (
{
layerId = "CE2138A5-93BA-4A69-8B69-7D34CC27D2DF";
paths = (
{
closed = 1;
nodes = (
"292 0 LINE",
"292 1356 LINE",
"218 1356 LINE",
"218 0 LINE"
);
}
);
width = 509.775;
},
{
layerId = "54E4F05E-05D2-4398-A473-3C5492C75DBF";
paths = (
{
closed = 1;
nodes = (
"489 0 LINE",
"489 1380 LINE",
"169 1380 LINE",
"169 0 LINE"
);
}
);
width = 660.45;
}
);
unicode = 006C;
},
{
glyphname = m;
lastChange = "2019-05-14 17:00:04 +0000";
layers = (
{
layerId = "CE2138A5-93BA-4A69-8B69-7D34CC27D2DF";
paths = (
{
closed = 1;
nodes = (
"1661 0 LINE",
"1661 556 LINE SMOOTH",
"1661 814 OFFCURVE",
"1517 962 OFFCURVE",
"1303 962 CURVE SMOOTH",
"1055 962 OFFCURVE",
"937 769 OFFCURVE",
"937 489 CURVE",
"983 489 LINE",
"983 729 OFFCURVE",
"1085 899 OFFCURVE",
"1292 899 CURVE SMOOTH",
"1477 899 OFFCURVE",
"1589 777 OFFCURVE",
"1589 556 CURVE SMOOTH",
"1589 0 LINE"
);
},
{
closed = 1;
nodes = (
"292 0 LINE",
"292 470 LINE SMOOTH",
"292 721 OFFCURVE",
"409 899 OFFCURVE",
"611 899 CURVE SMOOTH",
"800 899 OFFCURVE",
"913 777 OFFCURVE",
"913 556 CURVE SMOOTH",
"913 0 LINE",
"983 0 LINE",
"983 556 LINE SMOOTH",
"983 814 OFFCURVE",
"836 962 OFFCURVE",
"625 962 CURVE SMOOTH",
"456 962 OFFCURVE",
"344 871 OFFCURVE",
"288 723 CURVE",
"279 942 LINE",
"218 942 LINE",
"218 0 LINE"
);
}
);
width = 1843.325;
},
{
layerId = "54E4F05E-05D2-4398-A473-3C5492C75DBF";
paths = (
{
closed = 1;
nodes = (
"1784 0 LINE",
"1784 574 LINE SMOOTH",
"1784 832 OFFCURVE",
"1671 1017 OFFCURVE",
"1420 1017 CURVE SMOOTH",
"1202 1017 OFFCURVE",
"1017 886 OFFCURVE",
"1017 415 CURVE",
"1143 415 LINE",
"1143 643 OFFCURVE",
"1220 727 OFFCURVE",
"1329 727 CURVE SMOOTH",
"1403 727 OFFCURVE",
"1460 678 OFFCURVE",
"1460 574 CURVE SMOOTH",
"1460 0 LINE"
);
},
{
closed = 1;
nodes = (
"489 0 LINE",
"489 415 LINE SMOOTH",
"489 641 OFFCURVE",
"581 727 OFFCURVE",
"691 727 CURVE SMOOTH",
"763 727 OFFCURVE",
"821 678 OFFCURVE",
"821 574 CURVE SMOOTH",
"821 0 LINE",
"1143 0 LINE",
"1143 574 LINE SMOOTH",
"1143 832 OFFCURVE",
"1033 1017 OFFCURVE",
"779 1017 CURVE SMOOTH",
"659 1017 OFFCURVE",
"553 964 OFFCURVE",
"485 846 CURVE",
"451 985 LINE",
"169 985 LINE",
"169 0 LINE"
);
}
);
width = 1926.35;
}
);
unicode = 006D;
},
{
glyphname = n;
lastChange = "2019-05-14 17:00:04 +0000";
layers = (
{
anchors = (
{
name = above;
position = "{592, 971}";
}
);
layerId = "CE2138A5-93BA-4A69-8B69-7D34CC27D2DF";
paths = (
{
closed = 1;
nodes = (
"983 0 LINE",
"983 556 LINE SMOOTH",
"983 814 OFFCURVE",
"836 962 OFFCURVE",
"625 962 CURVE SMOOTH",
"372 962 OFFCURVE",
"251 759 OFFCURVE",
"251 470 CURVE",
"292 470 LINE",
"292 721 OFFCURVE",
"409 899 OFFCURVE",
"611 899 CURVE SMOOTH",
"800 899 OFFCURVE",
"913 777 OFFCURVE",
"913 556 CURVE SMOOTH",
"913 0 LINE"
);
},
{
closed = 1;
nodes = (
"292 0 LINE",
"292 693 LINE",
"279 942 LINE",
"218 942 LINE",
"218 0 LINE"
);
}
);
width = 1167.025;
},
{
anchors = (
{
name = above;
position = "{647, 1094}";
}
);
layerId = "54E4F05E-05D2-4398-A473-3C5492C75DBF";
paths = (
{
closed = 1;
nodes = (
"1143 0 LINE",
"1143 574 LINE SMOOTH",
"1143 832 OFFCURVE",
"1033 1017 OFFCURVE",
"779 1017 CURVE SMOOTH",
"557 1017 OFFCURVE",
"392 839 OFFCURVE",
"392 415 CURVE",
"489 415 LINE",
"489 641 OFFCURVE",
"581 727 OFFCURVE",
"691 727 CURVE SMOOTH",
"763 727 OFFCURVE",
"821 678 OFFCURVE",
"821 574 CURVE SMOOTH",
"821 0 LINE"
);
},
{
closed = 1;
nodes = (
"489 0 LINE",
"489 822 LINE",
"451 985 LINE",
"169 985 LINE",
"169 0 LINE"
);
}
);
width = 1286.95;
}
);
unicode = 006E;
},
{
glyphname = o;
lastChange = "2019-05-14 17:00:04 +0000";
layers = (
{
anchors = (
{
name = above;
position = "{528, 971}";
}
);
layerId = "CE2138A5-93BA-4A69-8B69-7D34CC27D2DF";
paths = (
{
closed = 1;
nodes = (
"777 -20 OFFCURVE",
"945 158 OFFCURVE",
"945 472 CURVE SMOOTH",
"945 783 OFFCURVE",
"777 962 OFFCURVE",
"528 962 CURVE SMOOTH",
"278 962 OFFCURVE",
"110 783 OFFCURVE",
"110 472 CURVE SMOOTH",
"110 158 OFFCURVE",
"278 -20 OFFCURVE",
"528 -20 CURVE SMOOTH"
);
},
{
closed = 1;
nodes = (
"294 44 OFFCURVE",
"190 221 OFFCURVE",
"190 472 CURVE SMOOTH",
"190 722 OFFCURVE",
"292 899 OFFCURVE",
"527 899 CURVE SMOOTH",
"761 899 OFFCURVE",
"867 722 OFFCURVE",
"867 472 CURVE SMOOTH",
"867 221 OFFCURVE",
"761 44 OFFCURVE",
"528 44 CURVE SMOOTH"
);
}
);
width = 1053.025;
},
{
anchors = (
{
name = above;
position = "{589, 1094}";
}
);
layerId = "54E4F05E-05D2-4398-A473-3C5492C75DBF";
paths = (
{
closed = 1;
nodes = (
"857 -32 OFFCURVE",
"1086 134 OFFCURVE",
"1086 490 CURVE SMOOTH",
"1086 857 OFFCURVE",
"857 1017 OFFCURVE",
"589 1017 CURVE SMOOTH",
"315 1017 OFFCURVE",
"86 857 OFFCURVE",
"86 490 CURVE SMOOTH",
"86 134 OFFCURVE",
"315 -32 OFFCURVE",
"589 -32 CURVE SMOOTH"
);
},
{
closed = 1;
nodes = (
"485 247 OFFCURVE",
"405 313 OFFCURVE",
"405 490 CURVE SMOOTH",
"405 673 OFFCURVE",
"508 739 OFFCURVE",
"601 739 CURVE SMOOTH",
"693 739 OFFCURVE",
"768 673 OFFCURVE",
"768 490 CURVE SMOOTH",
"768 313 OFFCURVE",
"668 247 OFFCURVE",
"577 247 CURVE SMOOTH"
);
}
);
width = 1172.95;
}
);
unicode = 006F;
},
{
glyphname = p;
lastChange = "2019-05-14 17:00:04 +0000";
layers = (
{
layerId = "CE2138A5-93BA-4A69-8B69-7D34CC27D2DF";
paths = (
{
closed = 1;
nodes = (
"813 -20 OFFCURVE",
"1005 166 OFFCURVE",
"1005 474 CURVE SMOOTH",
"1005 776 OFFCURVE",
"815 962 OFFCURVE",
"597 962 CURVE SMOOTH",
"393 962 OFFCURVE",
"247 805 OFFCURVE",
"247 556 CURVE",
"292 556 LINE",
"292 783 OFFCURVE",
"445 899 OFFCURVE",
"597 899 CURVE SMOOTH",
"772 899 OFFCURVE",
"924 745 OFFCURVE",
"924 474 CURVE SMOOTH",
"924 201 OFFCURVE",
"768 44 OFFCURVE",
"598 44 CURVE SMOOTH",
"443 44 OFFCURVE",
"292 161 OFFCURVE",
"292 388 CURVE",
"247 388 LINE",
"247 138 OFFCURVE",
"393 -20 OFFCURVE",
"599 -20 CURVE SMOOTH"
);
},
{
closed = 1;
nodes = (
"292 -466 LINE",
"292 734 LINE",
"283 942 LINE",
"218 942 LINE",
"218 -466 LINE"
);
}
);
width = 1116.725;
},
{
layerId = "54E4F05E-05D2-4398-A473-3C5492C75DBF";
paths = (
{
closed = 1;
nodes = (
"960 -32 OFFCURVE",
"1189 160 OFFCURVE",
"1189 492 CURVE SMOOTH",
"1189 825 OFFCURVE",
"962 1017 OFFCURVE",
"726 1017 CURVE SMOOTH",
"547 1017 OFFCURVE",
"382 891 OFFCURVE",
"382 556 CURVE",
"489 556 LINE",
"489 660 OFFCURVE",
"562 727 OFFCURVE",
"665 727 CURVE SMOOTH",
"790 727 OFFCURVE",
"869 634 OFFCURVE",
"869 492 CURVE SMOOTH",
"869 324 OFFCURVE",
"750 260 OFFCURVE",
"659 260 CURVE SMOOTH",
"566 260 OFFCURVE",
"489 314 OFFCURVE",
"489 394 CURVE",
"382 394 LINE",
"382 95 OFFCURVE",
"492 -32 OFFCURVE",
"710 -32 CURVE SMOOTH"
);
},
{
closed = 1;
nodes = (
"489 -478 LINE",
"489 728 LINE",
"430 985 LINE",
"169 985 LINE",
"169 -478 LINE"
);
}
);
width = 1273.55;
}
);
unicode = 0070;
},
{
glyphname = q;
lastChange = "2019-05-14 17:00:04 +0000";
layers = (
{
layerId = "CE2138A5-93BA-4A69-8B69-7D34CC27D2DF";
paths = (
{
closed = 1;
nodes = (
"722 -20 OFFCURVE",
"870 140 OFFCURVE",
"870 388 CURVE",
"824 388 LINE",
"824 157 OFFCURVE",
"672 44 OFFCURVE",
"517 44 CURVE SMOOTH",
"345 44 OFFCURVE",
"190 201 OFFCURVE",
"190 474 CURVE SMOOTH",
"190 745 OFFCURVE",
"347 899 OFFCURVE",
"517 899 CURVE SMOOTH",
"670 899 OFFCURVE",
"824 783 OFFCURVE",
"824 556 CURVE",
"872 556 LINE",
"872 805 OFFCURVE",
"724 962 OFFCURVE",
"520 962 CURVE SMOOTH",
"304 962 OFFCURVE",
"110 776 OFFCURVE",
"110 474 CURVE SMOOTH",
"110 166 OFFCURVE",
"302 -20 OFFCURVE",
"520 -20 CURVE SMOOTH"
);
},
{
closed = 1;
nodes = (
"1053 -415 LINE",
"930 -371 OFFCURVE",
"894 -329 OFFCURVE",
"894 -174 CURVE SMOOTH",
"894 942 LINE",
"835 942 LINE",
"824 734 LINE",
"824 -173 LINE SMOOTH",
"824 -350 OFFCURVE",
"872 -436 OFFCURVE",
"1017 -482 CURVE"
);
}
);
width = 1116.725;
},
{
layerId = "54E4F05E-05D2-4398-A473-3C5492C75DBF";
paths = (
{
closed = 1;
nodes = (
"783 -32 OFFCURVE",
"827 146 OFFCURVE",
"827 394 CURVE",
"781 394 LINE",
"781 317 OFFCURVE",
"703 260 OFFCURVE",
"616 260 CURVE SMOOTH",
"523 260 OFFCURVE",
"405 324 OFFCURVE",
"405 492 CURVE SMOOTH",
"405 634 OFFCURVE",
"482 727 OFFCURVE",
"610 727 CURVE SMOOTH",
"713 727 OFFCURVE",
"781 660 OFFCURVE",
"781 556 CURVE",
"890 556 LINE",
"890 891 OFFCURVE",
"724 1017 OFFCURVE",
"544 1017 CURVE SMOOTH",
"310 1017 OFFCURVE",
"86 825 OFFCURVE",
"86 492 CURVE SMOOTH",
"86 160 OFFCURVE",
"314 -32 OFFCURVE",
"563 -32 CURVE SMOOTH"
);
},
{
closed = 1;
nodes = (
"1225 -286 LINE",
"1133 -260 OFFCURVE",
"1103 -237 OFFCURVE",
"1103 -137 CURVE SMOOTH",
"1103 985 LINE",
"903 985 LINE",
"781 728 LINE",
"781 -111 LINE SMOOTH",
"781 -332 OFFCURVE",
"884 -454 OFFCURVE",
"1140 -513 CURVE"
);
}
);
width = 1273.55;
}
);
unicode = 0071;
},
{
glyphname = r;
lastChange = "2019-05-14 17:00:04 +0000";
layers = (
{
layerId = "CE2138A5-93BA-4A69-8B69-7D34CC27D2DF";
paths = (
{
closed = 1;
nodes = (
"292 0 LINE",
"292 942 LINE",
"218 942 LINE",
"218 0 LINE"
);
},
{
closed = 1;
nodes = (
"292 438 LINE",
"292 701 OFFCURVE",
"344 896 OFFCURVE",
"528 896 CURVE SMOOTH",
"564 896 OFFCURVE",
"619 882 OFFCURVE",
"659 866 CURVE",
"675 936 LINE",
"631 952 OFFCURVE",
"590 960 OFFCURVE",
"538 960 CURVE SMOOTH",
"328 960 OFFCURVE",
"255 784 OFFCURVE",
"255 438 CURVE"
);
}
);
width = 659.45;
},
{
layerId = "54E4F05E-05D2-4398-A473-3C5492C75DBF";
paths = (
{
closed = 1;
nodes = (
"489 0 LINE",
"489 991 LINE",
"169 991 LINE",
"169 0 LINE"
);
},
{
closed = 1;
nodes = (
"489 420 LINE",
"489 609 OFFCURVE",
"584 681 OFFCURVE",
"725 681 CURVE SMOOTH",
"755 681 OFFCURVE",
"791 679 OFFCURVE",
"825 675 CURVE",
"822 997 LINE",
"803 1001 OFFCURVE",
"781 1003 OFFCURVE",
"760 1003 CURVE SMOOTH",
"598 1003 OFFCURVE",
"421 821 OFFCURVE",
"421 420 CURVE"
);
}
);
width = 850.1;
}
);
unicode = 0072;
},
{
glyphname = s;
lastChange = "2019-05-14 17:00:04 +0000";
layers = (
{
layerId = "CE2138A5-93BA-4A69-8B69-7D34CC27D2DF";
paths = (
{
closed = 1;
nodes = (
"774 -20 OFFCURVE",
"903 106 OFFCURVE",
"903 240 CURVE SMOOTH",
"903 366 OFFCURVE",
"809 442 OFFCURVE",
"631 490 CURVE SMOOTH",
"482 531 LINE SMOOTH",
"331 571 OFFCURVE",
"259 632 OFFCURVE",
"259 720 CURVE SMOOTH",
"259 806 OFFCURVE",
"351 899 OFFCURVE",
"512 899 CURVE SMOOTH",
"670 899 OFFCURVE",
"765 851 OFFCURVE",
"783 746 CURVE",
"867 746 LINE",
"859 868 OFFCURVE",
"731 962 OFFCURVE",
"512 962 CURVE SMOOTH",
"318 962 OFFCURVE",
"183 868 OFFCURVE",
"183 724 CURVE SMOOTH",
"183 600 OFFCURVE",
"275 510 OFFCURVE",
"447 464 CURVE SMOOTH",
"606 421 LINE SMOOTH",
"761 382 OFFCURVE",
"828 334 OFFCURVE",
"828 240 CURVE SMOOTH",
"828 127 OFFCURVE",
"691 45 OFFCURVE",
"544 45 CURVE SMOOTH",
"351 45 OFFCURVE",
"235 123 OFFCURVE",
"227 272 CURVE",
"147 272 LINE",
"157 116 OFFCURVE",
"268 -20 OFFCURVE",
"544 -20 CURVE SMOOTH"
);
}
);
width = 1046.9;
},
{
layerId = "54E4F05E-05D2-4398-A473-3C5492C75DBF";
paths = (
{
closed = 1;
nodes = (
"798 -32 OFFCURVE",
"983 124 OFFCURVE",
"983 289 CURVE SMOOTH",
"983 409 OFFCURVE",
"901 485 OFFCURVE",
"766 539 CURVE SMOOTH",
"494 648 LINE SMOOTH",
"448 664 OFFCURVE",
"431 681 OFFCURVE",
"431 708 CURVE SMOOTH",
"431 745 OFFCURVE",
"474 770 OFFCURVE",
"543 770 CURVE SMOOTH",
"627 770 OFFCURVE",
"660 734 OFFCURVE",
"660 691 CURVE",
"953 691 LINE",
"951 880 OFFCURVE",
"805 1017 OFFCURVE",
"543 1017 CURVE SMOOTH",
"263 1017 OFFCURVE",
"91 899 OFFCURVE",
"91 724 CURVE SMOOTH",
"91 600 OFFCURVE",
"170 510 OFFCURVE",
"312 452 CURVE SMOOTH",
"551 359 LINE SMOOTH",
"601 339 OFFCURVE",
"625 322 OFFCURVE",
"625 289 CURVE SMOOTH",
"625 250 OFFCURVE",
"586 217 OFFCURVE",
"507 217 CURVE SMOOTH",
"419 217 OFFCURVE",
"364 240 OFFCURVE",
"362 309 CURVE",
"73 309 LINE",
"71 79 OFFCURVE",
"268 -32 OFFCURVE",
"550 -32 CURVE SMOOTH"
);
}
);
width = 1059.2;
}
);
unicode = 0073;
},
{
glyphname = t;
lastChange = "2019-05-14 17:00:04 +0000";
layers = (
{
layerId = "CE2138A5-93BA-4A69-8B69-7D34CC27D2DF";
paths = (
{
closed = 1;
nodes = (
"543 -20 OFFCURVE",
"607 -2 OFFCURVE",
"669 28 CURVE",
"660 85 LINE",
"591 59 OFFCURVE",
"539 45 OFFCURVE",
"477 45 CURVE SMOOTH",
"371 45 OFFCURVE",
"315 101 OFFCURVE",
"315 221 CURVE SMOOTH",
"315 1216 LINE",
"245 1216 LINE",
"245 221 LINE SMOOTH",
"245 66 OFFCURVE",
"338 -20 OFFCURVE",
"478 -20 CURVE SMOOTH"
);
},
{
closed = 1;
nodes = (
"655 883 LINE",
"655 942 LINE",
"72 942 LINE",
"72 883 LINE"
);
}
);
width = 714.075;
},
{
layerId = "54E4F05E-05D2-4398-A473-3C5492C75DBF";
paths = (
{
closed = 1;
nodes = (
"617 -32 OFFCURVE",
"687 -8 OFFCURVE",
"768 22 CURVE",
"721 245 LINE",
"665 225 OFFCURVE",
"625 217 OFFCURVE",
"588 217 CURVE SMOOTH",
"531 217 OFFCURVE",
"499 248 OFFCURVE",
"499 307 CURVE SMOOTH",
"499 1234 LINE",
"177 1234 LINE",
"177 295 LINE SMOOTH",
"177 66 OFFCURVE",
"344 -32 OFFCURVE",
"533 -32 CURVE SMOOTH"
);
},
{
closed = 1;
nodes = (
"723 778 LINE",
"723 985 LINE",
"60 985 LINE",
"60 778 LINE"
);
}
);
width = 827.85;
}
);
unicode = 0074;
},
{
glyphname = u;
lastChange = "2019-05-14 17:00:04 +0000";
layers = (
{
anchors = (
{
name = above;
position = "{577, 971}";
}
);
layerId = "CE2138A5-93BA-4A69-8B69-7D34CC27D2DF";
paths = (
{
closed = 1;
nodes = (
"873 0 LINE",
"947 0 LINE",
"947 942 LINE",
"873 942 LINE"
);
},
{
closed = 1;
nodes = (
"182 346 LINE SMOOTH",
"182 114 OFFCURVE",
"308 -18 OFFCURVE",
"532 -18 CURVE SMOOTH",
"776 -18 OFFCURVE",
"924 186 OFFCURVE",
"924 474 CURVE",
"873 474 LINE",
"873 249 OFFCURVE",
"754 46 OFFCURVE",
"533 46 CURVE SMOOTH",
"351 46 OFFCURVE",
"256 151 OFFCURVE",
"256 346 CURVE SMOOTH",
"256 942 LINE",
"182 942 LINE"
);
}
);
width = 1166.925;
},
{
anchors = (
{
name = above;
position = "{651, 1094}";
}
);
layerId = "54E4F05E-05D2-4398-A473-3C5492C75DBF";
paths = (
{
closed = 1;
nodes = (
"811 0 LINE",
"1131 0 LINE",
"1131 991 LINE",
"811 991 LINE"
);
},
{
closed = 1;
nodes = (
"158 358 LINE SMOOTH",
"158 71 OFFCURVE",
"339 -18 OFFCURVE",
"538 -18 CURVE SMOOTH",
"733 -18 OFFCURVE",
"881 137 OFFCURVE",
"881 529 CURVE",
"811 529 LINE",
"811 323 OFFCURVE",
"699 262 OFFCURVE",
"601 262 CURVE SMOOTH",
"529 262 OFFCURVE",
"478 304 OFFCURVE",
"478 395 CURVE SMOOTH",
"478 991 LINE",
"158 991 LINE"
);
}
);
width = 1299.15;
}
);
unicode = 0075;
},
{
glyphname = v;
lastChange = "2019-05-14 17:00:04 +0000";
layers = (
{
layerId = "CE2138A5-93BA-4A69-8B69-7D34CC27D2DF";
paths = (
{
closed = 1;
nodes = (
"451 0 LINE",
"522 0 LINE",
"925 942 LINE",
"843 942 LINE",
"474 64 LINE",
"500 64 LINE",
"130 942 LINE",
"48 942 LINE"
);
}
);
width = 971.175;
},
{
layerId = "54E4F05E-05D2-4398-A473-3C5492C75DBF";
paths = (
{
closed = 1;
nodes = (
"352 0 LINE",
"719 0 LINE",
"1060 985 LINE",
"690 985 LINE",
"529 273 LINE",
"543 273 LINE",
"382 985 LINE",
"11 985 LINE"
);
}
);
width = 1072.65;
}
);
unicode = 0076;
},
{
glyphname = w;
lastChange = "2019-05-14 17:00:04 +0000";
layers = (
{
layerId = "CE2138A5-93BA-4A69-8B69-7D34CC27D2DF";
paths = (
{
closed = 1;
nodes = (
"358 0 LINE",
"426 0 LINE",
"693 770 LINE",
"681 770 LINE",
"948 0 LINE",
"1018 0 LINE",
"1326 942 LINE",
"1252 942 LINE",
"973 78 LINE",
"985 78 LINE",
"710 902 LINE",
"666 902 LINE",
"387 80 LINE",
"403 80 LINE",
"124 942 LINE",
"48 942 LINE"
);
}
);
width = 1380.325;
},
{
layerId = "54E4F05E-05D2-4398-A473-3C5492C75DBF";
paths = (
{
closed = 1;
nodes = (
"340 0 LINE",
"660 0 LINE",
"816 579 LINE",
"767 579 LINE",
"930 0 LINE",
"1246 0 LINE",
"1572 985 LINE",
"1252 985 LINE",
"1078 312 LINE",
"1108 312 LINE",
"950 926 LINE",
"648 926 LINE",
"492 314 LINE",
"520 314 LINE",
"346 985 LINE",
"11 985 LINE"
);
}
);
width = 1586.35;
}
);
unicode = 0077;
},
{
glyphname = x;
lastChange = "2019-05-14 17:00:04 +0000";
layers = (
{
layerId = "CE2138A5-93BA-4A69-8B69-7D34CC27D2DF";
paths = (
{
closed = 1;
nodes = (
"160 0 LINE",
"463 417 LINE",
"770 0 LINE",
"859 0 LINE",
"512 472 LINE",
"863 942 LINE",
"774 942 LINE",
"471 528 LINE",
"160 942 LINE",
"73 942 LINE",
"418 472 LINE",
"73 0 LINE"
);
}
);
width = 936.9;
},
{
layerId = "54E4F05E-05D2-4398-A473-3C5492C75DBF";
paths = (
{
closed = 1;
nodes = (
"406 0 LINE",
"586 257 LINE",
"794 0 LINE",
"1185 0 LINE",
"795 490 LINE",
"1183 991 LINE",
"792 991 LINE",
"606 731 LINE",
"406 991 LINE",
"11 991 LINE",
"406 490 LINE",
"11 0 LINE"
);
}
);
width = 1195.2;
}
);
unicode = 0078;
},
{
glyphname = y;
lastChange = "2019-05-14 17:00:04 +0000";
layers = (
{
layerId = "CE2138A5-93BA-4A69-8B69-7D34CC27D2DF";
paths = (
{
closed = 1;
nodes = (
"444 0 LINE",
"418 -98 LINE SMOOTH",
"378 -238 OFFCURVE",
"324 -418 OFFCURVE",
"178 -418 CURVE SMOOTH",
"104 -418 OFFCURVE",
"44 -393 OFFCURVE",
"-24 -327 CURVE",
"-24 -406 LINE",
"45 -454 OFFCURVE",
"103 -482 OFFCURVE",
"179 -482 CURVE SMOOTH",
"331 -482 OFFCURVE",
"415 -361 OFFCURVE",
"458 -208 CURVE SMOOTH",
"806 942 LINE",
"728 942 LINE",
"465 64 LINE",
"495 64 LINE",
"128 942 LINE",
"50 942 LINE"
);
}
);
width = 853.1;
},
{
layerId = "54E4F05E-05D2-4398-A473-3C5492C75DBF";
paths = (
{
closed = 1;
nodes = (
"420 0 LINE",
"388 -92 LINE SMOOTH",
"354 -201 OFFCURVE",
"294 -233 OFFCURVE",
"227 -233 CURVE SMOOTH",
"159 -233 OFFCURVE",
"87 -215 OFFCURVE",
"13 -180 CURVE",
"13 -455 LINE",
"113 -497 OFFCURVE",
"214 -513 OFFCURVE",
"314 -513 CURVE SMOOTH",
"478 -513 OFFCURVE",
"599 -429 OFFCURVE",
"692 -159 CURVE SMOOTH",
"1076 985 LINE",
"752 985 LINE",
"551 280 LINE",
"600 280 LINE",
"398 985 LINE",
"32 985 LINE"
);
}
);
width = 1086.8;
}
);
unicode = 0079;
},
{
glyphname = z;
lastChange = "2019-05-14 17:00:04 +0000";
layers = (
{
layerId = "CE2138A5-93BA-4A69-8B69-7D34CC27D2DF";
paths = (
{
closed = 1;
nodes = (
"813 0 LINE",
"813 58 LINE",
"188 58 LINE",
"813 881 LINE",
"813 942 LINE",
"98 942 LINE",
"98 881 LINE",
"723 881 LINE",
"98 58 LINE",
"98 0 LINE"
);
}
);
width = 906.975;
},
{
layerId = "54E4F05E-05D2-4398-A473-3C5492C75DBF";
paths = (
{
closed = 1;
nodes = (
"912 0 LINE",
"912 261 LINE",
"495 261 LINE",
"912 727 LINE",
"912 985 LINE",
"122 985 LINE",
"122 727 LINE",
"563 727 LINE",
"122 261 LINE",
"122 0 LINE"
);
}
);
width = 1033.05;
}
);
unicode = 007A;
},
{
glyphname = A;
lastChange = "2019-05-14 17:00:04 +0000";
layers = (
{
anchors = (
{
name = above;
position = "{523, 1215}";
}
);
layerId = "CE2138A5-93BA-4A69-8B69-7D34CC27D2DF";
paths = (
{
closed = 1;
nodes = (
"136 0 LINE",
"265 365 LINE",
"783 365 LINE",
"905 0 LINE",
"983 0 LINE",
"563 1213 LINE",
"482 1213 LINE",
"60 0 LINE"
);
},
{
closed = 1;
nodes = (
"521 1117 LINE",
"759 430 LINE",
"284 430 LINE"
);
}
);
width = 1044.45;
},
{
anchors = (
{
name = above;
position = "{689, 1381}";
}
);
layerId = "54E4F05E-05D2-4398-A473-3C5492C75DBF";
paths = (
{
closed = 1;
nodes = (
"376 0 LINE",
"449 236 LINE",
"912 236 LINE",
"985 0 LINE",
"1322 0 LINE",
"895 1342 LINE",
"488 1342 LINE",
"36 0 LINE"
);
},
{
closed = 1;
nodes = (
"687 964 LINE",
"839 473 LINE",
"530 473 LINE"
);
}
);
width = 1358.1;
}
);
unicode = 0041;
},
{
glyphname = B;
lastChange = "2019-05-14 17:00:04 +0000";
layers = (
{
layerId = "CE2138A5-93BA-4A69-8B69-7D34CC27D2DF";
paths = (
{
closed = 1;
nodes = (
"631 0 LINE SMOOTH",
"920 0 OFFCURVE",
"1028 147 OFFCURVE",
"1028 324 CURVE SMOOTH",
"1028 445 OFFCURVE",
"926 590 OFFCURVE",
"764 607 CURVE",
"932 641 OFFCURVE",
"1006 759 OFFCURVE",
"1006 901 CURVE SMOOTH",
"1006 1063 OFFCURVE",
"884 1213 OFFCURVE",
"633 1213 CURVE SMOOTH",
"218 1213 LINE",
"218 0 LINE"
);
},
{
closed = 1;
nodes = (
"292 576 LINE",
"633 576 LINE SMOOTH",
"840 576 OFFCURVE",
"952 476 OFFCURVE",
"952 325 CURVE SMOOTH",
"952 175 OFFCURVE",
"864 64 OFFCURVE",
"633 64 CURVE SMOOTH",
"292 64 LINE"
);
},
{
closed = 1;
nodes = (
"633 1151 LINE SMOOTH",
"810 1151 OFFCURVE",
"930 1062 OFFCURVE",
"930 904 CURVE SMOOTH",
"930 731 OFFCURVE",
"804 637 OFFCURVE",
"631 637 CURVE SMOOTH",
"292 637 LINE",
"292 1151 LINE"
);
}
);
width = 1188.675;
},
{
layerId = "54E4F05E-05D2-4398-A473-3C5492C75DBF";
paths = (
{
closed = 1;
nodes = (
"754 0 LINE SMOOTH",
"1160 0 OFFCURVE",
"1256 221 OFFCURVE",
"1256 379 CURVE SMOOTH",
"1256 556 OFFCURVE",
"1141 645 OFFCURVE",
"1004 681 CURVE",
"1141 727 OFFCURVE",
"1234 833 OFFCURVE",
"1234 981 CURVE SMOOTH",
"1234 1186 OFFCURVE",
"1075 1342 OFFCURVE",
"750 1342 CURVE SMOOTH",
"169 1342 LINE",
"169 0 LINE"
);
},
{
closed = 1;
nodes = (
"489 527 LINE",
"744 527 LINE SMOOTH",
"858 527 OFFCURVE",
"909 476 OFFCURVE",
"909 399 CURVE SMOOTH",
"909 322 OFFCURVE",
"852 280 OFFCURVE",
"744 280 CURVE SMOOTH",
"489 280 LINE"
);
},
{
closed = 1;
nodes = (
"738 1065 LINE SMOOTH",
"859 1065 OFFCURVE",
"906 1007 OFFCURVE",
"906 935 CURVE SMOOTH",
"906 860 OFFCURVE",
"859 809 OFFCURVE",
"736 809 CURVE SMOOTH",
"489 809 LINE",
"489 1065 LINE"
);
}
);
width = 1351.65;
}
);
unicode = 0042;
},
{
glyphname = C;
lastChange = "2019-05-14 17:00:04 +0000";
layers = (
{
layerId = "CE2138A5-93BA-4A69-8B69-7D34CC27D2DF";
paths = (
{
closed = 1;
nodes = (
"883 -20 OFFCURVE",
"1087 138 OFFCURVE",
"1087 387 CURVE",
"1001 387 LINE",
"1001 179 OFFCURVE",
"846 46 OFFCURVE",
"618 46 CURVE SMOOTH",
"318 46 OFFCURVE",
"190 307 OFFCURVE",
"190 620 CURVE SMOOTH",
"190 974 OFFCURVE",
"395 1167 OFFCURVE",
"618 1167 CURVE SMOOTH",
"790 1167 OFFCURVE",
"939 1059 OFFCURVE",
"1001 882 CURVE",
"1083 904 LINE",
"1007 1097 OFFCURVE",
"851 1231 OFFCURVE",
"618 1231 CURVE SMOOTH",
"338 1231 OFFCURVE",
"110 1015 OFFCURVE",
"110 620 CURVE SMOOTH",
"110 262 OFFCURVE",
"296 -20 OFFCURVE",
"618 -20 CURVE SMOOTH"
);
}
);
width = 1183.975;
},
{
layerId = "54E4F05E-05D2-4398-A473-3C5492C75DBF";
paths = (
{
closed = 1;
nodes = (
"1030 -32 OFFCURVE",
"1222 138 OFFCURVE",
"1222 449 CURVE",
"884 449 LINE",
"884 345 OFFCURVE",
"816 262 OFFCURVE",
"679 262 CURVE SMOOTH",
"534 262 OFFCURVE",
"430 393 OFFCURVE",
"430 669 CURVE SMOOTH",
"430 950 OFFCURVE",
"530 1081 OFFCURVE",
"679 1081 CURVE SMOOTH",
"790 1081 OFFCURVE",
"853 997 OFFCURVE",
"884 882 CURVE",
"1224 941 LINE",
"1191 1196 OFFCURVE",
"1017 1372 OFFCURVE",
"679 1372 CURVE SMOOTH",
"326 1372 OFFCURVE",
"86 1132 OFFCURVE",
"86 669 CURVE SMOOTH",
"86 207 OFFCURVE",
"327 -32 OFFCURVE",
"679 -32 CURVE SMOOTH"
);
}
);
width = 1310.05;
}
);
unicode = 0043;
},
{
glyphname = D;
lastChange = "2019-05-14 17:00:04 +0000";
layers = (
{
layerId = "CE2138A5-93BA-4A69-8B69-7D34CC27D2DF";
paths = (
{
closed = 1;
nodes = (
"218 0 LINE",
"533 0 LINE SMOOTH",
"897 0 OFFCURVE",
"1118 246 OFFCURVE",
"1118 608 CURVE SMOOTH",
"1118 973 OFFCURVE",
"897 1213 OFFCURVE",
"533 1213 CURVE SMOOTH",
"218 1213 LINE"
);
},
{
closed = 1;
nodes = (
"533 1153 LINE SMOOTH",
"850 1153 OFFCURVE",
"1042 922 OFFCURVE",
"1042 608 CURVE SMOOTH",
"1042 293 OFFCURVE",
"850 58 OFFCURVE",
"533 58 CURVE SMOOTH",
"292 58 LINE",
"292 1153 LINE"
);
}
);
width = 1265.675;
},
{
layerId = "54E4F05E-05D2-4398-A473-3C5492C75DBF";
paths = (
{
closed = 1;
nodes = (
"169 0 LINE",
"644 0 LINE SMOOTH",
"1057 0 OFFCURVE",
"1346 258 OFFCURVE",
"1346 669 CURVE SMOOTH",
"1346 1084 OFFCURVE",
"1057 1342 OFFCURVE",
"644 1342 CURVE SMOOTH",
"169 1342 LINE"
);
},
{
closed = 1;
nodes = (
"644 1048 LINE SMOOTH",
"862 1048 OFFCURVE",
"999 892 OFFCURVE",
"999 669 CURVE SMOOTH",
"999 453 OFFCURVE",
"862 292 OFFCURVE",
"644 292 CURVE SMOOTH",
"489 292 LINE",
"489 1048 LINE"
);
}
);
width = 1428.65;
}
);
unicode = 0044;
},
{
glyphname = E;
lastChange = "2019-05-14 17:00:04 +0000";
layers = (
{
anchors = (
{
name = above;
position = "{576, 1215}";
}
);
layerId = "CE2138A5-93BA-4A69-8B69-7D34CC27D2DF";
paths = (
{
closed = 1;
nodes = (
"929 0 LINE",
"929 64 LINE",
"290 64 LINE",
"290 584 LINE",
"893 584 LINE",
"893 647 LINE",
"290 647 LINE",
"290 1151 LINE",
"929 1151 LINE",
"929 1213 LINE",
"216 1213 LINE",
"216 0 LINE"
);
}
);
width = 1073.775;
},
{
anchors = (
{
name = above;
position = "{613, 1381}";
}
);
layerId = "54E4F05E-05D2-4398-A473-3C5492C75DBF";
paths = (
{
closed = 1;
nodes = (
"1064 0 LINE",
"1064 280 LINE",
"487 280 LINE",
"487 529 LINE",
"1028 529 LINE",
"1028 807 LINE",
"487 807 LINE",
"487 1065 LINE",
"1064 1065 LINE",
"1064 1342 LINE",
"167 1342 LINE",
"167 0 LINE"
);
}
);
width = 1224.45;
}
);
unicode = 0045;
},
{
glyphname = F;
lastChange = "2019-05-14 17:00:04 +0000";
layers = (
{
layerId = "CE2138A5-93BA-4A69-8B69-7D34CC27D2DF";
paths = (
{
closed = 1;
nodes = (
"292 0 LINE",
"292 591 LINE",
"893 591 LINE",
"893 655 LINE",
"292 655 LINE",
"292 1151 LINE",
"927 1151 LINE",
"927 1213 LINE",
"218 1213 LINE",
"218 0 LINE"
);
}
);
width = 1001.875;
},
{
layerId = "54E4F05E-05D2-4398-A473-3C5492C75DBF";
paths = (
{
closed = 1;
nodes = (
"489 0 LINE",
"489 529 LINE",
"986 529 LINE",
"986 802 LINE",
"489 802 LINE",
"489 1065 LINE",
"1044 1065 LINE",
"1044 1342 LINE",
"169 1342 LINE",
"169 0 LINE"
);
}
);
width = 1140.25;
}
);
unicode = 0046;
},
{
glyphname = G;
lastChange = "2019-05-14 17:00:04 +0000";
layers = (
{
layerId = "CE2138A5-93BA-4A69-8B69-7D34CC27D2DF";
paths = (
{
closed = 1;
nodes = (
"914 -20 OFFCURVE",
"1018 186 OFFCURVE",
"1018 502 CURVE",
"974 502 LINE",
"974 183 OFFCURVE",
"824 50 OFFCURVE",
"627 50 CURVE SMOOTH",
"348 50 OFFCURVE",
"186 281 OFFCURVE",
"186 585 CURVE SMOOTH",
"186 944 OFFCURVE",
"415 1163 OFFCURVE",
"676 1163 CURVE SMOOTH",
"792 1163 OFFCURVE",
"908 1119 OFFCURVE",
"1021 1009 CURVE",
"1072 1057 LINE",
"952 1177 OFFCURVE",
"824 1231 OFFCURVE",
"676 1231 CURVE SMOOTH",
"390 1231 OFFCURVE",
"110 1030 OFFCURVE",
"110 585 CURVE SMOOTH",
"110 204 OFFCURVE",
"346 -20 OFFCURVE",
"628 -20 CURVE SMOOTH"
);
},
{
closed = 1;
nodes = (
"1050 0 LINE",
"1050 577 LINE",
"633 577 LINE",
"633 516 LINE",
"974 502 LINE",
"974 306 LINE",
"996 0 LINE"
);
}
);
width = 1220.35;
},
{
layerId = "54E4F05E-05D2-4398-A473-3C5492C75DBF";
paths = (
{
closed = 1;
nodes = (
"914 -32 OFFCURVE",
"1030 174 OFFCURVE",
"1030 502 CURVE",
"974 502 LINE",
"974 367 OFFCURVE",
"861 259 OFFCURVE",
"707 259 CURVE SMOOTH",
"551 259 OFFCURVE",
"432 416 OFFCURVE",
"432 671 CURVE SMOOTH",
"432 926 OFFCURVE",
"550 1083 OFFCURVE",
"707 1083 CURVE SMOOTH",
"816 1083 OFFCURVE",
"890 1014 OFFCURVE",
"935 904 CURVE",
"1275 965 LINE",
"1198 1245 OFFCURVE",
"1015 1372 OFFCURVE",
"725 1372 CURVE SMOOTH",
"341 1372 OFFCURVE",
"86 1085 OFFCURVE",
"86 671 CURVE SMOOTH",
"86 259 OFFCURVE",
"340 -32 OFFCURVE",
"677 -32 CURVE SMOOTH"
);
},
{
closed = 1;
nodes = (
"1278 0 LINE",
"1278 712 LINE",
"707 712 LINE",
"707 516 LINE",
"974 514 LINE",
"974 276 LINE",
"1014 0 LINE"
);
}
);
width = 1423.3;
}
);
unicode = 0047;
},
{
glyphname = H;
lastChange = "2019-05-14 17:00:04 +0000";
layers = (
{
layerId = "CE2138A5-93BA-4A69-8B69-7D34CC27D2DF";
paths = (
{
closed = 1;
nodes = (
"218 0 LINE",
"292 0 LINE",
"292 586 LINE",
"972 586 LINE",
"972 0 LINE",
"1042 0 LINE",
"1042 1213 LINE",
"972 1213 LINE",
"972 647 LINE",
"292 647 LINE",
"292 1213 LINE",
"218 1213 LINE"
);
}
);
width = 1261.15;
},
{
layerId = "54E4F05E-05D2-4398-A473-3C5492C75DBF";
paths = (
{
closed = 1;
nodes = (
"169 0 LINE",
"489 0 LINE",
"489 531 LINE",
"996 531 LINE",
"996 0 LINE",
"1319 0 LINE",
"1319 1342 LINE",
"996 1342 LINE",
"996 813 LINE",
"489 813 LINE",
"489 1342 LINE",
"169 1342 LINE"
);
}
);
width = 1488.7;
}
);
unicode = 0048;
},
{
glyphname = I;
lastChange = "2019-05-14 17:00:04 +0000";
layers = (
{
anchors = (
{
name = above;
position = "{255, 1215}";
}
);
layerId = "CE2138A5-93BA-4A69-8B69-7D34CC27D2DF";
paths = (
{
closed = 1;
nodes = (
"292 0 LINE",
"292 1213 LINE",
"218 1213 LINE",
"218 0 LINE"
);
}
);
width = 509.775;
},
{
anchors = (
{
name = above;
position = "{329, 1381}";
}
);
layerId = "54E4F05E-05D2-4398-A473-3C5492C75DBF";
paths = (
{
closed = 1;
nodes = (
"489 0 LINE",
"489 1342 LINE",
"169 1342 LINE",
"169 0 LINE"
);
}
);
width = 660.45;
}
);
unicode = 0049;
},
{
glyphname = J;
lastChange = "2019-05-14 17:00:04 +0000";
layers = (
{
layerId = "CE2138A5-93BA-4A69-8B69-7D34CC27D2DF";
paths = (
{
closed = 1;
nodes = (
"81 18 OFFCURVE",
"163 -20 OFFCURVE",
"261 -20 CURVE SMOOTH",
"453 -20 OFFCURVE",
"558 90 OFFCURVE",
"558 323 CURVE SMOOTH",
"558 1213 LINE",
"486 1213 LINE",
"486 323 LINE SMOOTH",
"486 159 OFFCURVE",
"428 52 OFFCURVE",
"261 52 CURVE SMOOTH",
"169 52 OFFCURVE",
"81 94 OFFCURVE",
"0 156 CURVE",
"0 70 LINE"
);
}
);
width = 725;
},
{
layerId = "54E4F05E-05D2-4398-A473-3C5492C75DBF";
paths = (
{
closed = 1;
nodes = (
"149 0 OFFCURVE",
"268 -32 OFFCURVE",
"396 -32 CURVE SMOOTH",
"637 -32 OFFCURVE",
"822 90 OFFCURVE",
"822 446 CURVE SMOOTH",
"822 1342 LINE",
"498 1342 LINE",
"498 446 LINE SMOOTH",
"498 325 OFFCURVE",
"452 280 OFFCURVE",
"366 280 CURVE SMOOTH",
"280 280 OFFCURVE",
"167 297 OFFCURVE",
"49 359 CURVE",
"49 46 LINE"
);
}
);
width = 971;
}
);
unicode = 004A;
},
{
glyphname = K;
lastChange = "2019-05-14 17:00:04 +0000";
layers = (
{
layerId = "CE2138A5-93BA-4A69-8B69-7D34CC27D2DF";
paths = (
{
closed = 1;
nodes = (
"270 554 LINE",
"270 438 LINE",
"1017 1213 LINE",
"912 1213 LINE"
);
},
{
closed = 1;
nodes = (
"419 640 LINE",
"947 0 LINE",
"1049 0 LINE",
"478 689 LINE"
);
},
{
closed = 1;
nodes = (
"218 0 LINE",
"294 0 LINE",
"294 1213 LINE",
"218 1213 LINE"
);
}
);
width = 1119.675;
},
{
layerId = "54E4F05E-05D2-4398-A473-3C5492C75DBF";
paths = (
{
closed = 1;
nodes = (
"473 843 LINE",
"473 414 LINE",
"1386 1342 LINE",
"949 1342 LINE"
);
},
{
closed = 1;
nodes = (
"518 591 LINE",
"1015 0 LINE",
"1424 0 LINE",
"736 800 LINE"
);
},
{
closed = 1;
nodes = (
"169 0 LINE",
"491 0 LINE",
"491 1342 LINE",
"169 1342 LINE"
);
}
);
width = 1405.65;
}
);
unicode = 004B;
},
{
glyphname = L;
lastChange = "2019-05-14 17:00:04 +0000";
layers = (
{
layerId = "CE2138A5-93BA-4A69-8B69-7D34CC27D2DF";
paths = (
{
closed = 1;
nodes = (
"218 1213 LINE",
"218 0 LINE",
"879 0 LINE",
"879 64 LINE",
"292 64 LINE",
"292 1213 LINE"
);
}
);
width = 880.675;
},
{
layerId = "54E4F05E-05D2-4398-A473-3C5492C75DBF";
paths = (
{
closed = 1;
nodes = (
"169 1342 LINE",
"169 0 LINE",
"996 0 LINE",
"996 280 LINE",
"489 280 LINE",
"489 1342 LINE"
);
}
);
width = 1043.65;
}
);
unicode = 004C;
},
{
glyphname = M;
lastChange = "2019-05-14 17:00:04 +0000";
layers = (
{
layerId = "CE2138A5-93BA-4A69-8B69-7D34CC27D2DF";
paths = (
{
closed = 1;
nodes = (
"218 0 LINE",
"292 0 LINE",
"292 1156 LINE",
"279 1156 LINE",
"794 174 LINE",
"847 174 LINE",
"1364 1164 LINE",
"1344 1164 LINE",
"1344 0 LINE",
"1420 0 LINE",
"1420 1213 LINE",
"1313 1213 LINE",
"813 269 LINE",
"825 269 LINE",
"326 1213 LINE",
"218 1213 LINE"
);
}
);
width = 1637.625;
},
{
layerId = "54E4F05E-05D2-4398-A473-3C5492C75DBF";
paths = (
{
closed = 1;
nodes = (
"169 0 LINE",
"489 0 LINE",
"489 953 LINE",
"463 953 LINE",
"806 125 LINE",
"1013 125 LINE",
"1358 955 LINE",
"1314 955 LINE",
"1314 0 LINE",
"1636 0 LINE",
"1636 1342 LINE",
"1196 1342 LINE",
"899 626 LINE",
"924 626 LINE",
"627 1342 LINE",
"169 1342 LINE"
);
}
);
width = 1806.75;
}
);
unicode = 004D;
},
{
glyphname = N;
lastChange = "2019-05-14 17:00:04 +0000";
layers = (
{
anchors = (
{
name = above;
position = "{649, 1215}";
}
);
layerId = "CE2138A5-93BA-4A69-8B69-7D34CC27D2DF";
paths = (
{
closed = 1;
nodes = (
"218 0 LINE",
"292 0 LINE",
"292 1156 LINE",
"283 1156 LINE",
"976 0 LINE",
"1082 0 LINE",
"1082 1213 LINE",
"1008 1213 LINE",
"1008 68 LINE",
"1018 68 LINE",
"331 1213 LINE",
"218 1213 LINE"
);
}
);
width = 1300.35;
},
{
anchors = (
{
name = above;
position = "{748, 1381}";
}
);
layerId = "54E4F05E-05D2-4398-A473-3C5492C75DBF";
paths = (
{
closed = 1;
nodes = (
"163 0 LINE",
"483 0 LINE",
"483 892 LINE",
"430 892 LINE",
"1025 0 LINE",
"1334 0 LINE",
"1334 1342 LINE",
"1014 1342 LINE",
"1014 530 LINE",
"1036 530 LINE",
"497 1342 LINE",
"163 1342 LINE"
);
}
);
width = 1503.3;
}
);
unicode = 004E;
},
{
glyphname = O;
lastChange = "2019-05-14 17:00:04 +0000";
layers = (
{
anchors = (
{
name = above;
position = "{609, 1215}";
}
);
layerId = "CE2138A5-93BA-4A69-8B69-7D34CC27D2DF";
paths = (
{
closed = 1;
nodes = (
"884 -20 OFFCURVE",
"1106 180 OFFCURVE",
"1106 601 CURVE SMOOTH",
"1106 1027 OFFCURVE",
"884 1231 OFFCURVE",
"609 1231 CURVE SMOOTH",
"332 1231 OFFCURVE",
"110 1025 OFFCURVE",
"110 601 CURVE SMOOTH",
"110 182 OFFCURVE",
"332 -20 OFFCURVE",
"609 -20 CURVE SMOOTH"
);
},
{
closed = 1;
nodes = (
"348 52 OFFCURVE",
"188 237 OFFCURVE",
"188 601 CURVE SMOOTH",
"188 966 OFFCURVE",
"348 1165 OFFCURVE",
"609 1165 CURVE SMOOTH",
"870 1165 OFFCURVE",
"1028 966 OFFCURVE",
"1028 603 CURVE SMOOTH",
"1028 237 OFFCURVE",
"870 52 OFFCURVE",
"609 52 CURVE SMOOTH"
);
}
);
width = 1215.15;
},
{
anchors = (
{
name = above;
position = "{720, 1381}";
}
);
layerId = "54E4F05E-05D2-4398-A473-3C5492C75DBF";
paths = (
{
closed = 1;
nodes = (
"1106 -32 OFFCURVE",
"1358 204 OFFCURVE",
"1358 675 CURVE SMOOTH",
"1358 1132 OFFCURVE",
"1106 1372 OFFCURVE",
"720 1372 CURVE SMOOTH",
"338 1372 OFFCURVE",
"86 1148 OFFCURVE",
"86 675 CURVE SMOOTH",
"86 213 OFFCURVE",
"338 -32 OFFCURVE",
"720 -32 CURVE SMOOTH"
);
},
{
closed = 1;
nodes = (
"539 255 OFFCURVE",
"416 409 OFFCURVE",
"416 675 CURVE SMOOTH",
"416 929 OFFCURVE",
"539 1085 OFFCURVE",
"720 1085 CURVE SMOOTH",
"907 1085 OFFCURVE",
"1028 929 OFFCURVE",
"1028 677 CURVE SMOOTH",
"1028 409 OFFCURVE",
"907 255 OFFCURVE",
"720 255 CURVE SMOOTH"
);
}
);
width = 1442.7;
}
);
unicode = 004F;
},
{
glyphname = P;
lastChange = "2019-05-14 17:00:04 +0000";
layers = (
{
layerId = "CE2138A5-93BA-4A69-8B69-7D34CC27D2DF";
paths = (
{
closed = 1;
nodes = (
"292 0 LINE",
"292 496 LINE",
"565 496 LINE SMOOTH",
"825 496 OFFCURVE",
"952 642 OFFCURVE",
"952 852 CURVE SMOOTH",
"952 1063 OFFCURVE",
"825 1213 OFFCURVE",
"565 1213 CURVE SMOOTH",
"216 1213 LINE",
"216 0 LINE"
);
},
{
closed = 1;
nodes = (
"292 1151 LINE",
"565 1151 LINE SMOOTH",
"768 1151 OFFCURVE",
"876 1038 OFFCURVE",
"876 852 CURVE SMOOTH",
"876 667 OFFCURVE",
"768 561 OFFCURVE",
"565 561 CURVE SMOOTH",
"292 561 LINE"
);
}
);
width = 1051.65;
},
{
layerId = "54E4F05E-05D2-4398-A473-3C5492C75DBF";
paths = (
{
closed = 1;
nodes = (
"483 0 LINE",
"483 459 LINE",
"676 459 LINE SMOOTH",
"985 459 OFFCURVE",
"1180 612 OFFCURVE",
"1180 901 CURVE SMOOTH",
"1180 1192 OFFCURVE",
"985 1342 OFFCURVE",
"676 1342 CURVE SMOOTH",
"161 1342 LINE",
"161 0 LINE"
);
},
{
closed = 1;
nodes = (
"483 1065 LINE",
"676 1065 LINE SMOOTH",
"792 1065 OFFCURVE",
"852 989 OFFCURVE",
"852 901 CURVE SMOOTH",
"852 814 OFFCURVE",
"792 739 OFFCURVE",
"676 739 CURVE SMOOTH",
"483 739 LINE"
);
}
);
width = 1217.7;
}
);
unicode = 0050;
},
{
glyphname = Q;
lastChange = "2019-05-14 17:00:04 +0000";
layers = (
{
layerId = "CE2138A5-93BA-4A69-8B69-7D34CC27D2DF";
paths = (
{
closed = 1;
nodes = (
"884 -20 OFFCURVE",
"1106 180 OFFCURVE",
"1106 601 CURVE SMOOTH",
"1106 1027 OFFCURVE",
"884 1231 OFFCURVE",
"609 1231 CURVE SMOOTH",
"332 1231 OFFCURVE",
"110 1025 OFFCURVE",
"110 601 CURVE SMOOTH",
"110 182 OFFCURVE",
"332 -20 OFFCURVE",
"609 -20 CURVE SMOOTH"
);
},
{
closed = 1;
nodes = (
"1012 -307 OFFCURVE",
"1064 -293 OFFCURVE",
"1122 -267 CURVE",
"1122 -169 LINE",
"1054 -205 OFFCURVE",
"1002 -227 OFFCURVE",
"928 -227 CURVE SMOOTH",
"889 -225 OFFCURVE",
"845 -201 OFFCURVE",
"794 -137 CURVE SMOOTH",
"678 15 LINE",
"588 16 LINE",
"714 -154 LINE SMOOTH",
"789 -258 OFFCURVE",
"859 -307 OFFCURVE",
"963 -307 CURVE SMOOTH"
);
},
{
closed = 1;
nodes = (
"348 52 OFFCURVE",
"188 237 OFFCURVE",
"188 601 CURVE SMOOTH",
"188 966 OFFCURVE",
"348 1165 OFFCURVE",
"609 1165 CURVE SMOOTH",
"870 1165 OFFCURVE",
"1028 966 OFFCURVE",
"1028 603 CURVE SMOOTH",
"1028 237 OFFCURVE",
"870 52 OFFCURVE",
"609 52 CURVE SMOOTH"
);
}
);
width = 1232.275;
},
{
layerId = "54E4F05E-05D2-4398-A473-3C5492C75DBF";
paths = (
{
closed = 1;
nodes = (
"1106 -32 OFFCURVE",
"1358 204 OFFCURVE",
"1358 675 CURVE SMOOTH",
"1358 1132 OFFCURVE",
"1106 1372 OFFCURVE",
"720 1372 CURVE SMOOTH",
"338 1372 OFFCURVE",
"86 1148 OFFCURVE",
"86 675 CURVE SMOOTH",
"86 213 OFFCURVE",
"338 -32 OFFCURVE",
"720 -32 CURVE SMOOTH"
);
},
{
closed = 1;
nodes = (
"1203 -387 OFFCURVE",
"1261 -379 OFFCURVE",
"1325 -353 CURVE",
"1325 -34 LINE",
"1257 -58 OFFCURVE",
"1193 -74 OFFCURVE",
"1131 -74 CURVE SMOOTH",
"1073 -72 OFFCURVE",
"1017 -54 OFFCURVE",
"985 -2 CURVE SMOOTH",
"869 193 LINE",
"631 59 LINE",
"769 -160 LINE SMOOTH",
"857 -301 OFFCURVE",
"994 -387 OFFCURVE",
"1141 -387 CURVE SMOOTH"
);
},
{
closed = 1;
nodes = (
"539 255 OFFCURVE",
"416 409 OFFCURVE",
"416 675 CURVE SMOOTH",
"416 929 OFFCURVE",
"539 1085 OFFCURVE",
"720 1085 CURVE SMOOTH",
"907 1085 OFFCURVE",
"1028 929 OFFCURVE",
"1028 677 CURVE SMOOTH",
"1028 409 OFFCURVE",
"907 255 OFFCURVE",
"720 255 CURVE SMOOTH"
);
}
);
width = 1444.45;
}
);
unicode = 0051;
},
{
glyphname = R;
lastChange = "2019-05-14 17:00:04 +0000";
layers = (
{
layerId = "CE2138A5-93BA-4A69-8B69-7D34CC27D2DF";
paths = (
{
closed = 1;
nodes = (
"292 0 LINE",
"292 522 LINE",
"613 522 LINE SMOOTH",
"875 522 OFFCURVE",
"1002 664 OFFCURVE",
"1002 868 CURVE SMOOTH",
"1002 1071 OFFCURVE",
"875 1213 OFFCURVE",
"613 1213 CURVE SMOOTH",
"218 1213 LINE",
"218 0 LINE"
);
},
{
closed = 1;
nodes = (
"1018 0 LINE",
"634 531 LINE",
"548 531 LINE",
"924 0 LINE"
);
},
{
closed = 1;
nodes = (
"292 1151 LINE",
"613 1151 LINE SMOOTH",
"816 1151 OFFCURVE",
"926 1044 OFFCURVE",
"926 870 CURVE SMOOTH",
"926 699 OFFCURVE",
"816 583 OFFCURVE",
"614 583 CURVE SMOOTH",
"292 583 LINE"
);
}
);
width = 1161.45;
},
{
layerId = "54E4F05E-05D2-4398-A473-3C5492C75DBF";
paths = (
{
closed = 1;
nodes = (
"489 0 LINE",
"489 498 LINE",
"693 498 LINE SMOOTH",
"1029 498 OFFCURVE",
"1224 664 OFFCURVE",
"1224 917 CURVE SMOOTH",
"1224 1176 OFFCURVE",
"1029 1342 OFFCURVE",
"693 1342 CURVE SMOOTH",
"169 1342 LINE",
"169 0 LINE"
);
},
{
closed = 1;
nodes = (
"1288 0 LINE",
"880 648 LINE",
"542 648 LINE",
"869 0 LINE"
);
},
{
closed = 1;
nodes = (
"489 1065 LINE",
"693 1065 LINE SMOOTH",
"828 1065 OFFCURVE",
"895 989 OFFCURVE",
"895 882 CURVE SMOOTH",
"895 779 OFFCURVE",
"816 706 OFFCURVE",
"657 706 CURVE SMOOTH",
"489 706 LINE"
);
}
);
width = 1352.1;
}
);
unicode = 0052;
},
{
glyphname = S;
lastChange = "2019-05-14 17:00:04 +0000";
layers = (
{
layerId = "CE2138A5-93BA-4A69-8B69-7D34CC27D2DF";
paths = (
{
closed = 1;
nodes = (
"849 -20 OFFCURVE",
"994 148 OFFCURVE",
"994 314 CURVE SMOOTH",
"994 488 OFFCURVE",
"876 585 OFFCURVE",
"708 631 CURVE SMOOTH",
"473 701 LINE SMOOTH",
"326 747 OFFCURVE",
"262 807 OFFCURVE",
"262 919 CURVE SMOOTH",
"262 1060 OFFCURVE",
"372 1163 OFFCURVE",
"571 1163 CURVE SMOOTH",
"746 1163 OFFCURVE",
"850 1095 OFFCURVE",
"872 964 CURVE",
"946 964 LINE",
"924 1119 OFFCURVE",
"792 1231 OFFCURVE",
"571 1231 CURVE SMOOTH",
"318 1231 OFFCURVE",
"182 1103 OFFCURVE",
"182 925 CURVE SMOOTH",
"182 762 OFFCURVE",
"288 688 OFFCURVE",
"504 618 CURVE SMOOTH",
"692 565 LINE SMOOTH",
"832 523 OFFCURVE",
"914 440 OFFCURVE",
"914 314 CURVE SMOOTH",
"914 183 OFFCURVE",
"788 50 OFFCURVE",
"567 50 CURVE SMOOTH",
"381 50 OFFCURVE",
"216 143 OFFCURVE",
"216 345 CURVE",
"146 345 LINE",
"144 118 OFFCURVE",
"336 -20 OFFCURVE",
"569 -20 CURVE SMOOTH"
);
}
);
width = 1141.35;
},
{
layerId = "54E4F05E-05D2-4398-A473-3C5492C75DBF";
paths = (
{
closed = 1;
nodes = (
"1021 -32 OFFCURVE",
"1222 105 OFFCURVE",
"1222 375 CURVE SMOOTH",
"1222 543 OFFCURVE",
"1122 659 OFFCURVE",
"917 748 CURVE SMOOTH",
"608 879 LINE SMOOTH",
"529 913 OFFCURVE",
"490 936 OFFCURVE",
"490 987 CURVE SMOOTH",
"490 1042 OFFCURVE",
"557 1083 OFFCURVE",
"657 1083 CURVE SMOOTH",
"795 1083 OFFCURVE",
"850 1015 OFFCURVE",
"866 927 CURVE",
"1180 927 LINE",
"1158 1212 OFFCURVE",
"983 1372 OFFCURVE",
"657 1372 CURVE SMOOTH",
"336 1372 OFFCURVE",
"139 1220 OFFCURVE",
"139 993 CURVE SMOOTH",
"139 799 OFFCURVE",
"251 700 OFFCURVE",
"443 618 CURVE SMOOTH",
"735 491 LINE SMOOTH",
"838 449 OFFCURVE",
"871 428 OFFCURVE",
"871 363 CURVE SMOOTH",
"871 282 OFFCURVE",
"776 259 OFFCURVE",
"672 259 CURVE SMOOTH",
"541 259 OFFCURVE",
"438 315 OFFCURVE",
"438 438 CURVE",
"122 438 LINE",
"138 106 OFFCURVE",
"385 -32 OFFCURVE",
"674 -32 CURVE SMOOTH"
);
}
);
width = 1344.3;
}
);
unicode = 0053;
},
{
glyphname = T;
lastChange = "2019-05-14 17:00:04 +0000";
layers = (
{
layerId = "CE2138A5-93BA-4A69-8B69-7D34CC27D2DF";
paths = (
{
closed = 1;
nodes = (
"430 1151 LINE",
"430 0 LINE",
"504 0 LINE",
"504 1151 LINE",
"926 1151 LINE",
"926 1213 LINE",
"12 1213 LINE",
"12 1151 LINE"
);
}
);
width = 937.45;
},
{
layerId = "54E4F05E-05D2-4398-A473-3C5492C75DBF";
paths = (
{
closed = 1;
nodes = (
"406 1065 LINE",
"406 0 LINE",
"726 0 LINE",
"726 1065 LINE",
"1117 1065 LINE",
"1117 1342 LINE",
"12 1342 LINE",
"12 1065 LINE"
);
}
);
width = 1128.1;
}
);
unicode = 0054;
},
{
glyphname = U;
lastChange = "2019-05-14 17:00:04 +0000";
layers = (
{
anchors = (
{
name = above;
position = "{611, 1215}";
}
);
layerId = "CE2138A5-93BA-4A69-8B69-7D34CC27D2DF";
paths = (
{
closed = 1;
nodes = (
"182 417 LINE SMOOTH",
"182 113 OFFCURVE",
"362 -20 OFFCURVE",
"611 -20 CURVE SMOOTH",
"860 -20 OFFCURVE",
"1036 113 OFFCURVE",
"1036 417 CURVE SMOOTH",
"1036 1213 LINE",
"962 1213 LINE",
"962 417 LINE SMOOTH",
"962 159 OFFCURVE",
"822 50 OFFCURVE",
"611 50 CURVE SMOOTH",
"396 50 OFFCURVE",
"256 159 OFFCURVE",
"256 417 CURVE SMOOTH",
"256 1213 LINE",
"182 1213 LINE"
);
}
);
width = 1230.15;
},
{
anchors = (
{
name = above;
position = "{734, 1381}";
}
);
layerId = "54E4F05E-05D2-4398-A473-3C5492C75DBF";
paths = (
{
closed = 1;
nodes = (
"158 528 LINE SMOOTH",
"158 187 OFFCURVE",
"362 -32 OFFCURVE",
"734 -32 CURVE SMOOTH",
"1106 -32 OFFCURVE",
"1312 187 OFFCURVE",
"1312 528 CURVE SMOOTH",
"1312 1342 LINE",
"993 1342 LINE",
"993 528 LINE SMOOTH",
"993 337 OFFCURVE",
"883 259 OFFCURVE",
"734 259 CURVE SMOOTH",
"587 259 OFFCURVE",
"478 337 OFFCURVE",
"478 528 CURVE SMOOTH",
"478 1342 LINE",
"158 1342 LINE"
);
}
);
width = 1457.7;
}
);
unicode = 0055;
},
{
glyphname = V;
lastChange = "2019-05-14 17:00:04 +0000";
layers = (
{
layerId = "CE2138A5-93BA-4A69-8B69-7D34CC27D2DF";
paths = (
{
closed = 1;
nodes = (
"529 72 LINE",
"116 1213 LINE",
"36 1213 LINE",
"484 0 LINE",
"558 0 LINE",
"1008 1213 LINE",
"926 1213 LINE",
"513 72 LINE"
);
}
);
width = 1043;
},
{
layerId = "54E4F05E-05D2-4398-A473-3C5492C75DBF";
paths = (
{
closed = 1;
nodes = (
"658 355 LINE",
"374 1342 LINE",
"36 1342 LINE",
"472 0 LINE",
"810 0 LINE",
"1254 1342 LINE",
"920 1342 LINE",
"630 355 LINE"
);
}
);
width = 1289;
}
);
unicode = 0056;
},
{
glyphname = W;
lastChange = "2019-05-14 17:00:04 +0000";
layers = (
{
layerId = "CE2138A5-93BA-4A69-8B69-7D34CC27D2DF";
paths = (
{
closed = 1;
nodes = (
"408 0 LINE",
"485 0 LINE",
"833 940 LINE",
"794 940 LINE",
"1121 0 LINE",
"1199 0 LINE",
"1641 1213 LINE",
"1561 1213 LINE",
"1142 66 LINE",
"1176 66 LINE",
"838 1038 LINE",
"787 1038 LINE",
"429 66 LINE",
"460 66 LINE",
"122 1213 LINE",
"36 1213 LINE"
);
}
);
width = 1680.375;
},
{
layerId = "54E4F05E-05D2-4398-A473-3C5492C75DBF";
paths = (
{
closed = 1;
nodes = (
"463 0 LINE",
"799 0 LINE",
"1005 676 LINE",
"991 676 LINE",
"1207 0 LINE",
"1544 0 LINE",
"1992 1342 LINE",
"1629 1342 LINE",
"1345 306 LINE",
"1410 306 LINE",
"1096 1302 LINE",
"880 1302 LINE",
"595 282 LINE",
"669 282 LINE",
"368 1342 LINE",
"12 1342 LINE"
);
}
);
width = 2003.25;
}
);
unicode = 0057;
},
{
glyphname = X;
lastChange = "2019-05-14 17:00:04 +0000";
layers = (
{
layerId = "CE2138A5-93BA-4A69-8B69-7D34CC27D2DF";
paths = (
{
closed = 1;
nodes = (
"216 0 LINE",
"591 543 LINE",
"978 0 LINE",
"1063 0 LINE",
"642 601 LINE",
"1076 1213 LINE",
"984 1213 LINE",
"603 656 LINE",
"206 1213 LINE",
"123 1213 LINE",
"554 601 LINE",
"129 0 LINE"
);
}
);
width = 1196.9;
},
{
layerId = "54E4F05E-05D2-4398-A473-3C5492C75DBF";
paths = (
{
closed = 1;
nodes = (
"425 0 LINE",
"696 420 LINE",
"1015 0 LINE",
"1420 0 LINE",
"906 675 LINE",
"1346 1342 LINE",
"960 1342 LINE",
"726 920 LINE",
"434 1342 LINE",
"37 1342 LINE",
"511 669 LINE",
"37 0 LINE"
);
}
);
width = 1455.2;
}
);
unicode = 0058;
},
{
glyphname = Y;
lastChange = "2019-05-14 17:00:04 +0000";
layers = (
{
layerId = "CE2138A5-93BA-4A69-8B69-7D34CC27D2DF";
paths = (
{
closed = 1;
nodes = (
"472 495 LINE",
"472 0 LINE",
"550 0 LINE",
"550 495 LINE",
"996 1213 LINE",
"904 1213 LINE",
"493 550 LINE",
"527 550 LINE",
"116 1213 LINE",
"22 1213 LINE"
);
}
);
width = 1019.1;
},
{
layerId = "54E4F05E-05D2-4398-A473-3C5492C75DBF";
paths = (
{
closed = 1;
nodes = (
"454 557 LINE",
"454 0 LINE",
"772 0 LINE",
"772 557 LINE",
"1242 1342 LINE",
"867 1342 LINE",
"592 839 LINE",
"644 839 LINE",
"386 1342 LINE",
"10 1342 LINE"
);
}
);
width = 1252.8;
}
);
unicode = 0059;
},
{
glyphname = Z;
lastChange = "2019-05-14 17:00:04 +0000";
layers = (
{
layerId = "CE2138A5-93BA-4A69-8B69-7D34CC27D2DF";
paths = (
{
closed = 1;
nodes = (
"1007 0 LINE",
"1007 66 LINE",
"203 76 LINE",
"222 54 LINE",
"1007 1137 LINE",
"1007 1213 LINE",
"146 1213 LINE",
"146 1147 LINE",
"932 1137 LINE",
"932 1166 LINE",
"146 74 LINE",
"146 0 LINE"
);
}
);
width = 1107.15;
},
{
layerId = "54E4F05E-05D2-4398-A473-3C5492C75DBF";
paths = (
{
closed = 1;
nodes = (
"1191 0 LINE",
"1191 294 LINE",
"523 292 LINE",
"523 257 LINE",
"1191 1075 LINE",
"1191 1342 LINE",
"146 1342 LINE",
"146 1048 LINE",
"883 1051 LINE",
"883 1166 LINE",
"146 271 LINE",
"146 0 LINE"
);
}
);
width = 1334.7;
}
);
unicode = 005A;
},
{
glyphname = quotesingle;
lastChange = "2019-05-14 17:00:04 +0000";
layers = (
{
layerId = "CE2138A5-93BA-4A69-8B69-7D34CC27D2DF";
paths = (
{
closed = 1;
nodes = (
"60 951 LINE",
"120 951 LINE",
"132 1354 LINE",
"50 1354 LINE"
);
}
);
width = 180.8;
},
{
layerId = "54E4F05E-05D2-4398-A473-3C5492C75DBF";
paths = (
{
closed = 1;
nodes = (
"109 840 LINE",
"342 840 LINE",
"384 1354 LINE",
"68 1354 LINE"
);
}
);
width = 451.4;
}
);
unicode = 0027;
},
{
glyphname = quoteleft;
lastChange = "2019-05-14 17:00:04 +0000";
layers = (
{
layerId = "CE2138A5-93BA-4A69-8B69-7D34CC27D2DF";
paths = (
{
closed = 1;
nodes = (
"194 920 OFFCURVE",
"217 952 OFFCURVE",
"217 985 CURVE SMOOTH",
"217 1023 OFFCURVE",
"190 1042 OFFCURVE",
"142 1042 CURVE",
"152 1098 OFFCURVE",
"192 1138 OFFCURVE",
"255 1171 CURVE",
"197 1199 LINE",
"107 1151 OFFCURVE",
"72 1080 OFFCURVE",
"72 1019 CURVE SMOOTH",
"72 959 OFFCURVE",
"110 920 OFFCURVE",
"157 920 CURVE SMOOTH"
);
}
);
width = 305.075;
},
{
layerId = "54E4F05E-05D2-4398-A473-3C5492C75DBF";
paths = (
{
closed = 1;
nodes = (
"440 674 OFFCURVE",
"531 755 OFFCURVE",
"531 862 CURVE SMOOTH",
"531 955 OFFCURVE",
"454 1018 OFFCURVE",
"364 1036 CURVE",
"398 1122 OFFCURVE",
"487 1187 OFFCURVE",
"587 1233 CURVE",
"369 1359 LINE",
"200 1274 OFFCURVE",
"72 1111 OFFCURVE",
"72 951 CURVE SMOOTH",
"72 799 OFFCURVE",
"165 674 OFFCURVE",
"317 674 CURVE SMOOTH"
);
}
);
width = 664.85;
}
);
unicode = 2018;
},
{
glyphname = quoteright;
lastChange = "2019-05-14 17:00:04 +0000";
layers = (
{
layerId = "CE2138A5-93BA-4A69-8B69-7D34CC27D2DF";
paths = (
{
closed = 1;
nodes = (
"147 970 OFFCURVE",
"183 1041 OFFCURVE",
"183 1100 CURVE SMOOTH",
"183 1159 OFFCURVE",
"147 1199 OFFCURVE",
"102 1199 CURVE SMOOTH",
"59 1199 OFFCURVE",
"35 1169 OFFCURVE",
"35 1136 CURVE SMOOTH",
"35 1096 OFFCURVE",
"69 1072 OFFCURVE",
"110 1073 CURVE",
"103 1019 OFFCURVE",
"65 981 OFFCURVE",
"1 947 CURVE",
"60 920 LINE"
);
}
);
width = 305.075;
},
{
layerId = "54E4F05E-05D2-4398-A473-3C5492C75DBF";
paths = (
{
closed = 1;
nodes = (
"473 761 OFFCURVE",
"601 918 OFFCURVE",
"601 1082 CURVE SMOOTH",
"601 1233 OFFCURVE",
"510 1359 OFFCURVE",
"360 1359 CURVE SMOOTH",
"237 1359 OFFCURVE",
"146 1280 OFFCURVE",
"146 1173 CURVE SMOOTH",
"146 1078 OFFCURVE",
"216 1017 OFFCURVE",
"313 999 CURVE",
"281 914 OFFCURVE",
"188 846 OFFCURVE",
"87 800 CURVE",
"306 674 LINE"
);
}
);
width = 664.85;
}
);
unicode = 2019;
},
{
glyphname = parenleft;
lastChange = "2019-05-14 17:00:04 +0000";
layers = (
{
layerId = "CE2138A5-93BA-4A69-8B69-7D34CC27D2DF";
paths = (
{
closed = 1;
nodes = (
"286 1179 OFFCURVE",
"146 881 OFFCURVE",
"146 591 CURVE SMOOTH",
"146 304 OFFCURVE",
"286 2 OFFCURVE",
"519 -220 CURVE",
"572 -185 LINE",
"346 37 OFFCURVE",
"228 324 OFFCURVE",
"228 591 CURVE SMOOTH",
"228 857 OFFCURVE",
"346 1144 OFFCURVE",
"572 1368 CURVE",
"519 1399 LINE"
);
}
);
width = 620.8;
},
{
layerId = "54E4F05E-05D2-4398-A473-3C5492C75DBF";
paths = (
{
closed = 1;
nodes = (
"274 1296 OFFCURVE",
"146 1004 OFFCURVE",
"146 659 CURVE SMOOTH",
"146 316 OFFCURVE",
"274 26 OFFCURVE",
"587 -244 CURVE",
"818 -68 LINE",
"586 178 OFFCURVE",
"474 385 OFFCURVE",
"474 659 CURVE SMOOTH",
"474 937 OFFCURVE",
"586 1144 OFFCURVE",
"818 1392 CURVE",
"587 1565 LINE"
);
}
);
width = 891.4;
}
);
unicode = 0028;
},
{
glyphname = parenright;
lastChange = "2019-05-14 17:00:04 +0000";
layers = (
{
layerId = "CE2138A5-93BA-4A69-8B69-7D34CC27D2DF";
paths = (
{
closed = 1;
nodes = (
"334 2 OFFCURVE",
"476 304 OFFCURVE",
"476 591 CURVE SMOOTH",
"476 881 OFFCURVE",
"334 1179 OFFCURVE",
"102 1399 CURVE",
"48 1368 LINE",
"274 1144 OFFCURVE",
"394 857 OFFCURVE",
"394 591 CURVE SMOOTH",
"394 324 OFFCURVE",
"274 37 OFFCURVE",
"48 -185 CURVE",
"102 -220 LINE"
);
}
);
width = 620.8;
},
{
layerId = "54E4F05E-05D2-4398-A473-3C5492C75DBF";
paths = (
{
closed = 1;
nodes = (
"617 26 OFFCURVE",
"746 316 OFFCURVE",
"746 659 CURVE SMOOTH",
"746 1004 OFFCURVE",
"617 1296 OFFCURVE",
"305 1565 CURVE",
"72 1392 LINE",
"305 1144 OFFCURVE",
"418 937 OFFCURVE",
"418 659 CURVE SMOOTH",
"418 385 OFFCURVE",
"305 178 OFFCURVE",
"72 -68 CURVE",
"305 -244 LINE"
);
}
);
width = 891.4;
}
);
unicode = 0029;
},
{
glyphname = plus;
lastChange = "2019-05-14 17:00:04 +0000";
layers = (
{
layerId = "CE2138A5-93BA-4A69-8B69-7D34CC27D2DF";
paths = (
{
closed = 1;
nodes = (
"475 521 LINE",
"36 521 LINE",
"36 461 LINE",
"475 461 LINE",
"475 0 LINE",
"545 0 LINE",
"545 461 LINE",
"983 461 LINE",
"983 521 LINE",
"545 521 LINE",
"545 982 LINE",
"475 982 LINE"
);
}
);
width = 1020.175;
},
{
layerId = "54E4F05E-05D2-4398-A473-3C5492C75DBF";
paths = (
{
closed = 1;
nodes = (
"401 632 LINE",
"36 632 LINE",
"36 350 LINE",
"401 350 LINE",
"401 0 LINE",
"723 0 LINE",
"723 350 LINE",
"1088 350 LINE",
"1088 632 LINE",
"723 632 LINE",
"723 982 LINE",
"401 982 LINE"
);
}
);
width = 1121.65;
}
);
unicode = 002B;
},
{
glyphname = minus;
lastChange = "2019-05-14 17:00:04 +0000";
layers = (
{
layerId = "CE2138A5-93BA-4A69-8B69-7D34CC27D2DF";
paths = (
{
closed = 1;
nodes = (
"36 467 LINE",
"983 467 LINE",
"983 527 LINE",
"36 527 LINE"
);
}
);
width = 1020.175;
},
{
layerId = "54E4F05E-05D2-4398-A473-3C5492C75DBF";
paths = (
{
closed = 1;
nodes = (
"36 350 LINE",
"1088 350 LINE",
"1088 632 LINE",
"36 632 LINE"
);
}
);
width = 1121.65;
}
);
unicode = 2212;
},
{
glyphname = equal;
lastChange = "2019-05-14 17:00:04 +0000";
layers = (
{
layerId = "CE2138A5-93BA-4A69-8B69-7D34CC27D2DF";
paths = (
{
closed = 1;
nodes = (
"158 277 LINE",
"777 277 LINE",
"777 339 LINE",
"158 339 LINE"
);
},
{
closed = 1;
nodes = (
"158 620 LINE",
"777 620 LINE",
"777 686 LINE",
"158 686 LINE"
);
}
);
width = 937.075;
},
{
layerId = "54E4F05E-05D2-4398-A473-3C5492C75DBF";
paths = (
{
closed = 1;
nodes = (
"158 148 LINE",
"894 148 LINE",
"894 425 LINE",
"158 425 LINE"
);
},
{
closed = 1;
nodes = (
"158 608 LINE",
"894 608 LINE",
"894 883 LINE",
"158 883 LINE"
);
}
);
width = 1050.85;
}
);
unicode = 003D;
},
{
glyphname = zero;
lastChange = "2019-05-14 17:00:04 +0000";
layers = (
{
layerId = "CE2138A5-93BA-4A69-8B69-7D34CC27D2DF";
paths = (
{
closed = 1;
nodes = (
"824 -20 OFFCURVE",
"998 192 OFFCURVE",
"998 608 CURVE SMOOTH",
"998 1021 OFFCURVE",
"824 1231 OFFCURVE",
"553 1231 CURVE SMOOTH",
"282 1231 OFFCURVE",
"110 1021 OFFCURVE",
"110 608 CURVE SMOOTH",
"110 192 OFFCURVE",
"282 -20 OFFCURVE",
"553 -20 CURVE SMOOTH"
);
},
{
closed = 1;
nodes = (
"312 50 OFFCURVE",
"188 257 OFFCURVE",
"188 608 CURVE SMOOTH",
"188 958 OFFCURVE",
"312 1163 OFFCURVE",
"553 1163 CURVE SMOOTH",
"800 1163 OFFCURVE",
"920 958 OFFCURVE",
"920 608 CURVE SMOOTH",
"920 257 OFFCURVE",
"800 50 OFFCURVE",
"553 50 CURVE SMOOTH"
);
}
);
width = 1107.05;
},
{
layerId = "54E4F05E-05D2-4398-A473-3C5492C75DBF";
paths = (
{
closed = 1;
nodes = (
"1015 -32 OFFCURVE",
"1262 192 OFFCURVE",
"1262 669 CURVE SMOOTH",
"1262 1150 OFFCURVE",
"1015 1372 OFFCURVE",
"676 1372 CURVE SMOOTH",
"331 1372 OFFCURVE",
"86 1150 OFFCURVE",
"86 669 CURVE SMOOTH",
"86 192 OFFCURVE",
"331 -32 OFFCURVE",
"676 -32 CURVE SMOOTH"
);
},
{
closed = 1;
nodes = (
"515 259 OFFCURVE",
"416 398 OFFCURVE",
"416 669 CURVE SMOOTH",
"416 940 OFFCURVE",
"515 1083 OFFCURVE",
"676 1083 CURVE SMOOTH",
"830 1083 OFFCURVE",
"932 940 OFFCURVE",
"932 669 CURVE SMOOTH",
"932 398 OFFCURVE",
"830 259 OFFCURVE",
"676 259 CURVE SMOOTH"
);
}
);
width = 1346.9;
}
);
unicode = 0030;
},
{
glyphname = one;
lastChange = "2019-05-14 17:00:04 +0000";
layers = (
{
layerId = "CE2138A5-93BA-4A69-8B69-7D34CC27D2DF";
paths = (
{
closed = 1;
nodes = (
"262 1159 OFFCURVE",
"186 1129 OFFCURVE",
"108 1115 CURVE",
"108 1039 LINE",
"180 1043 OFFCURVE",
"256 1073 OFFCURVE",
"314 1129 CURVE",
"314 0 LINE",
"388 0 LINE",
"388 1213 LINE",
"316 1213 LINE"
);
}
);
width = 607.7;
},
{
layerId = "54E4F05E-05D2-4398-A473-3C5492C75DBF";
paths = (
{
closed = 1;
nodes = (
"256 1282 OFFCURVE",
"168 1252 OFFCURVE",
"71 1244 CURVE",
"71 940 LINE",
"137 938 OFFCURVE",
"201 950 OFFCURVE",
"277 969 CURVE",
"277 0 LINE",
"597 0 LINE",
"597 1354 LINE",
"365 1354 LINE"
);
}
);
width = 767.6;
}
);
unicode = 0031;
},
{
glyphname = two;
lastChange = "2019-05-14 17:00:04 +0000";
layers = (
{
layerId = "CE2138A5-93BA-4A69-8B69-7D34CC27D2DF";
paths = (
{
closed = 1;
nodes = (
"928 0 LINE",
"928 70 LINE",
"210 70 LINE",
"210 153 LINE SMOOTH",
"210 296 OFFCURVE",
"295 380 OFFCURVE",
"447 440 CURVE SMOOTH",
"687 540 LINE SMOOTH",
"824 600 OFFCURVE",
"944 706 OFFCURVE",
"944 894 CURVE SMOOTH",
"944 1085 OFFCURVE",
"787 1231 OFFCURVE",
"565 1231 CURVE SMOOTH",
"315 1231 OFFCURVE",
"180 1117 OFFCURVE",
"158 948 CURVE",
"242 948 LINE",
"258 1092 OFFCURVE",
"378 1163 OFFCURVE",
"565 1163 CURVE SMOOTH",
"748 1163 OFFCURVE",
"860 1060 OFFCURVE",
"860 904 CURVE SMOOTH",
"860 759 OFFCURVE",
"786 669 OFFCURVE",
"646 611 CURVE SMOOTH",
"416 517 LINE SMOOTH",
"263 453 OFFCURVE",
"136 367 OFFCURVE",
"136 149 CURVE SMOOTH",
"136 0 LINE"
);
}
);
width = 1106.725;
},
{
layerId = "54E4F05E-05D2-4398-A473-3C5492C75DBF";
paths = (
{
closed = 1;
nodes = (
"1186 0 LINE",
"1186 292 LINE",
"432 292 LINE",
"432 307 LINE SMOOTH",
"432 351 OFFCURVE",
"455 374 OFFCURVE",
"533 403 CURVE SMOOTH",
"816 510 LINE SMOOTH",
"1088 612 OFFCURVE",
"1190 743 OFFCURVE",
"1190 949 CURVE SMOOTH",
"1190 1208 OFFCURVE",
"959 1372 OFFCURVE",
"676 1372 CURVE SMOOTH",
"383 1372 OFFCURVE",
"131 1234 OFFCURVE",
"134 918 CURVE",
"488 918 LINE",
"498 1031 OFFCURVE",
"581 1095 OFFCURVE",
"682 1095 CURVE SMOOTH",
"791 1095 OFFCURVE",
"848 1030 OFFCURVE",
"848 959 CURVE SMOOTH",
"848 882 OFFCURVE",
"804 829 OFFCURVE",
"701 789 CURVE SMOOTH",
"416 683 LINE SMOOTH",
"195 600 OFFCURVE",
"112 478 OFFCURVE",
"112 260 CURVE SMOOTH",
"112 0 LINE"
);
}
);
width = 1263.55;
}
);
unicode = 0032;
},
{
glyphname = three;
lastChange = "2019-05-14 17:00:04 +0000";
layers = (
{
layerId = "CE2138A5-93BA-4A69-8B69-7D34CC27D2DF";
paths = (
{
closed = 1;
nodes = (
"823 -20 OFFCURVE",
"972 126 OFFCURVE",
"972 328 CURVE SMOOTH",
"972 496 OFFCURVE",
"852 598 OFFCURVE",
"692 635 CURVE",
"836 688 OFFCURVE",
"918 777 OFFCURVE",
"918 909 CURVE SMOOTH",
"918 1095 OFFCURVE",
"756 1231 OFFCURVE",
"539 1231 CURVE SMOOTH",
"358 1231 OFFCURVE",
"205 1161 OFFCURVE",
"169 960 CURVE",
"238 960 LINE",
"285 1119 OFFCURVE",
"399 1163 OFFCURVE",
"537 1163 CURVE SMOOTH",
"723 1163 OFFCURVE",
"838 1050 OFFCURVE",
"838 910 CURVE SMOOTH",
"838 749 OFFCURVE",
"689 655 OFFCURVE",
"452 655 CURVE SMOOTH",
"407 655 LINE",
"407 594 LINE",
"519 594 LINE SMOOTH",
"792 594 OFFCURVE",
"890 478 OFFCURVE",
"890 329 CURVE SMOOTH",
"890 171 OFFCURVE",
"772 50 OFFCURVE",
"561 50 CURVE SMOOTH",
"363 50 OFFCURVE",
"192 151 OFFCURVE",
"192 359 CURVE",
"122 359 LINE",
"122 114 OFFCURVE",
"332 -20 OFFCURVE",
"561 -20 CURVE SMOOTH"
);
}
);
width = 1116.425;
},
{
layerId = "54E4F05E-05D2-4398-A473-3C5492C75DBF";
paths = (
{
closed = 1;
nodes = (
"995 -32 OFFCURVE",
"1230 138 OFFCURVE",
"1230 383 CURVE SMOOTH",
"1230 533 OFFCURVE",
"1135 641 OFFCURVE",
"981 703 CURVE",
"1119 749 OFFCURVE",
"1188 857 OFFCURVE",
"1188 989 CURVE SMOOTH",
"1188 1218 OFFCURVE",
"959 1372 OFFCURVE",
"644 1372 CURVE SMOOTH",
"334 1372 OFFCURVE",
"113 1235 OFFCURVE",
"89 936 CURVE",
"429 936 LINE",
"445 1039 OFFCURVE",
"546 1083 OFFCURVE",
"660 1083 CURVE SMOOTH",
"791 1083 OFFCURVE",
"844 1026 OFFCURVE",
"844 947 CURVE SMOOTH",
"844 860 OFFCURVE",
"781 802 OFFCURVE",
"674 802 CURVE SMOOTH",
"475 802 LINE",
"475 551 LINE",
"679 551 LINE SMOOTH",
"810 551 OFFCURVE",
"884 509 OFFCURVE",
"884 415 CURVE SMOOTH",
"884 324 OFFCURVE",
"796 259 OFFCURVE",
"660 259 CURVE SMOOTH",
"510 259 OFFCURVE",
"426 335 OFFCURVE",
"414 433 CURVE",
"73 433 LINE",
"73 126 OFFCURVE",
"362 -32 OFFCURVE",
"660 -32 CURVE SMOOTH"
);
}
);
width = 1310.15;
}
);
unicode = 0033;
},
{
glyphname = four;
lastChange = "2019-05-14 17:00:04 +0000";
layers = (
{
layerId = "CE2138A5-93BA-4A69-8B69-7D34CC27D2DF";
paths = (
{
closed = 1;
nodes = (
"60 385 LINE",
"60 324 LINE",
"702 324 LINE",
"702 0 LINE",
"774 0 LINE",
"774 324 LINE",
"984 324 LINE",
"984 385 LINE",
"774 385 LINE",
"774 1235 LINE",
"712 1235 LINE"
);
},
{
closed = 1;
nodes = (
"702 385 LINE",
"150 385 LINE",
"702 1096 LINE"
);
}
);
width = 1042.175;
},
{
layerId = "54E4F05E-05D2-4398-A473-3C5492C75DBF";
paths = (
{
closed = 1;
nodes = (
"36 508 LINE",
"36 269 LINE",
"702 269 LINE",
"702 0 LINE",
"1020 0 LINE",
"1020 269 LINE",
"1254 269 LINE",
"1254 545 LINE",
"1020 545 LINE",
"1020 1352 LINE",
"706 1352 LINE"
);
},
{
closed = 1;
nodes = (
"720 508 LINE",
"414 508 LINE",
"720 893 LINE"
);
}
);
width = 1266.65;
}
);
unicode = 0034;
},
{
glyphname = five;
lastChange = "2019-05-14 17:00:04 +0000";
layers = (
{
layerId = "CE2138A5-93BA-4A69-8B69-7D34CC27D2DF";
paths = (
{
closed = 1;
nodes = (
"793 -20 OFFCURVE",
"946 150 OFFCURVE",
"946 379 CURVE SMOOTH",
"946 617 OFFCURVE",
"778 727 OFFCURVE",
"502 727 CURVE SMOOTH",
"438 727 OFFCURVE",
"359 723 OFFCURVE",
"295 709 CURVE",
"315 695 LINE",
"361 1186 LINE",
"343 1147 LINE",
"895 1147 LINE",
"895 1213 LINE",
"283 1213 LINE",
"235 664 LINE",
"509 664 LINE SMOOTH",
"744 664 OFFCURVE",
"866 566 OFFCURVE",
"866 379 CURVE SMOOTH",
"866 193 OFFCURVE",
"748 50 OFFCURVE",
"533 50 CURVE SMOOTH",
"357 50 OFFCURVE",
"216 141 OFFCURVE",
"216 311 CURVE",
"146 311 LINE",
"144 94 OFFCURVE",
"338 -20 OFFCURVE",
"533 -20 CURVE SMOOTH"
);
}
);
width = 1093.125;
},
{
layerId = "54E4F05E-05D2-4398-A473-3C5492C75DBF";
paths = (
{
closed = 1;
nodes = (
"940 -32 OFFCURVE",
"1155 187 OFFCURVE",
"1155 459 CURVE SMOOTH",
"1155 703 OFFCURVE",
"981 850 OFFCURVE",
"717 850 CURVE SMOOTH",
"654 850 OFFCURVE",
"543 840 OFFCURVE",
"479 826 CURVE",
"499 800 LINE",
"533 1131 LINE",
"472 1048 LINE",
"1079 1048 LINE",
"1079 1342 LINE",
"215 1342 LINE",
"149 615 LINE",
"608 615 LINE SMOOTH",
"756 615 OFFCURVE",
"829 560 OFFCURVE",
"829 459 CURVE SMOOTH",
"829 347 OFFCURVE",
"736 259 OFFCURVE",
"625 259 CURVE SMOOTH",
"510 259 OFFCURVE",
"425 313 OFFCURVE",
"425 428 CURVE",
"97 428 LINE",
"107 137 OFFCURVE",
"301 -32 OFFCURVE",
"625 -32 CURVE SMOOTH"
);
}
);
width = 1200.75;
}
);
unicode = 0035;
},
{
glyphname = six;
lastChange = "2019-05-14 17:00:04 +0000";
layers = (
{
layerId = "CE2138A5-93BA-4A69-8B69-7D34CC27D2DF";
paths = (
{
closed = 1;
nodes = (
"786 -20 OFFCURVE",
"942 126 OFFCURVE",
"942 344 CURVE SMOOTH",
"942 563 OFFCURVE",
"768 715 OFFCURVE",
"556 715 CURVE SMOOTH",
"374 715 OFFCURVE",
"204 623 OFFCURVE",
"200 336 CURVE",
"190 407 OFFCURVE",
"188 497 OFFCURVE",
"188 557 CURVE SMOOTH",
"188 932 OFFCURVE",
"337 1163 OFFCURVE",
"591 1163 CURVE SMOOTH",
"748 1163 OFFCURVE",
"824 1074 OFFCURVE",
"850 938 CURVE",
"936 938 LINE",
"906 1111 OFFCURVE",
"780 1231 OFFCURVE",
"591 1231 CURVE SMOOTH",
"282 1231 OFFCURVE",
"110 983 OFFCURVE",
"110 585 CURVE SMOOTH",
"110 248 OFFCURVE",
"282 -20 OFFCURVE",
"559 -20 CURVE SMOOTH"
);
},
{
closed = 1;
nodes = (
"382 50 OFFCURVE",
"258 161 OFFCURVE",
"258 341 CURVE SMOOTH",
"258 506 OFFCURVE",
"382 634 OFFCURVE",
"559 634 CURVE SMOOTH",
"738 634 OFFCURVE",
"860 524 OFFCURVE",
"860 341 CURVE SMOOTH",
"860 161 OFFCURVE",
"738 50 OFFCURVE",
"559 50 CURVE SMOOTH"
);
}
);
width = 1074.275;
},
{
layerId = "54E4F05E-05D2-4398-A473-3C5492C75DBF";
paths = (
{
closed = 1;
nodes = (
"995 -32 OFFCURVE",
"1206 144 OFFCURVE",
"1206 405 CURVE SMOOTH",
"1206 655 OFFCURVE",
"1038 838 OFFCURVE",
"778 838 CURVE SMOOTH",
"614 838 OFFCURVE",
"456 770 OFFCURVE",
"409 545 CURVE",
"405 573 OFFCURVE",
"403 602 OFFCURVE",
"403 631 CURVE SMOOTH",
"403 908 OFFCURVE",
"521 1083 OFFCURVE",
"702 1083 CURVE SMOOTH",
"791 1083 OFFCURVE",
"842 1031 OFFCURVE",
"850 944 CURVE",
"1188 944 LINE",
"1189 1204 OFFCURVE",
"983 1372 OFFCURVE",
"690 1372 CURVE SMOOTH",
"337 1372 OFFCURVE",
"86 1118 OFFCURVE",
"86 647 CURVE SMOOTH",
"86 248 OFFCURVE",
"337 -32 OFFCURVE",
"688 -32 CURVE SMOOTH"
);
},
{
closed = 1;
nodes = (
"591 259 OFFCURVE",
"504 327 OFFCURVE",
"504 421 CURVE SMOOTH",
"504 524 OFFCURVE",
"591 585 OFFCURVE",
"688 585 CURVE SMOOTH",
"787 585 OFFCURVE",
"878 524 OFFCURVE",
"878 421 CURVE SMOOTH",
"878 327 OFFCURVE",
"787 259 OFFCURVE",
"688 259 CURVE SMOOTH"
);
}
);
width = 1286.45;
}
);
unicode = 0036;
},
{
glyphname = seven;
lastChange = "2019-05-14 17:00:04 +0000";
layers = (
{
layerId = "CE2138A5-93BA-4A69-8B69-7D34CC27D2DF";
paths = (
{
closed = 1;
nodes = (
"244 0 LINE",
"847 1153 LINE",
"847 1213 LINE",
"48 1213 LINE",
"48 1147 LINE",
"759 1147 LINE",
"149 0 LINE"
);
}
);
width = 881.6;
},
{
layerId = "54E4F05E-05D2-4398-A473-3C5492C75DBF";
paths = (
{
closed = 1;
nodes = (
"490 0 LINE",
"1019 1030 LINE",
"1019 1342 LINE",
"48 1342 LINE",
"48 1030 LINE",
"642 1030 LINE",
"57 0 LINE"
);
}
);
width = 1053.8;
}
);
unicode = 0037;
},
{
glyphname = eight;
lastChange = "2019-05-14 17:00:04 +0000";
layers = (
{
layerId = "CE2138A5-93BA-4A69-8B69-7D34CC27D2DF";
paths = (
{
closed = 1;
nodes = (
"870 -20 OFFCURVE",
"1042 104 OFFCURVE",
"1042 283 CURVE SMOOTH",
"1042 435 OFFCURVE",
"944 519 OFFCURVE",
"766 585 CURVE SMOOTH",
"457 701 LINE SMOOTH",
"327 747 OFFCURVE",
"244 805 OFFCURVE",
"244 920 CURVE SMOOTH",
"244 1050 OFFCURVE",
"387 1163 OFFCURVE",
"581 1163 CURVE SMOOTH",
"780 1163 OFFCURVE",
"914 1050 OFFCURVE",
"914 908 CURVE SMOOTH",
"914 751 OFFCURVE",
"778 643 OFFCURVE",
"585 643 CURVE",
"585 611 LINE",
"609 605 OFFCURVE",
"631 605 OFFCURVE",
"652 605 CURVE SMOOTH",
"880 605 OFFCURVE",
"992 745 OFFCURVE",
"992 907 CURVE SMOOTH",
"992 1091 OFFCURVE",
"829 1231 OFFCURVE",
"581 1231 CURVE SMOOTH",
"322 1231 OFFCURVE",
"162 1093 OFFCURVE",
"162 921 CURVE SMOOTH",
"162 766 OFFCURVE",
"302 676 OFFCURVE",
"420 632 CURVE SMOOTH",
"741 510 LINE SMOOTH",
"876 464 OFFCURVE",
"960 398 OFFCURVE",
"960 283 CURVE SMOOTH",
"960 143 OFFCURVE",
"805 50 OFFCURVE",
"581 50 CURVE SMOOTH",
"361 50 OFFCURVE",
"200 145 OFFCURVE",
"200 325 CURVE SMOOTH",
"200 470 OFFCURVE",
"347 607 OFFCURVE",
"577 607 CURVE",
"577 640 LINE",
"558 644 OFFCURVE",
"532 642 OFFCURVE",
"513 642 CURVE SMOOTH",
"284 642 OFFCURVE",
"122 522 OFFCURVE",
"122 326 CURVE SMOOTH",
"122 126 OFFCURVE",
"324 -20 OFFCURVE",
"581 -20 CURVE SMOOTH"
);
}
);
width = 1163.4;
},
{
layerId = "54E4F05E-05D2-4398-A473-3C5492C75DBF";
paths = (
{
closed = 1;
nodes = (
"1061 -32 OFFCURVE",
"1276 141 OFFCURVE",
"1276 376 CURVE SMOOTH",
"1276 558 OFFCURVE",
"1166 642 OFFCURVE",
"969 720 CURVE SMOOTH",
"550 885 LINE SMOOTH",
"487 913 OFFCURVE",
"460 940 OFFCURVE",
"460 981 CURVE SMOOTH",
"460 1044 OFFCURVE",
"559 1083 OFFCURVE",
"680 1083 CURVE SMOOTH",
"810 1083 OFFCURVE",
"902 1038 OFFCURVE",
"902 951 CURVE SMOOTH",
"902 874 OFFCURVE",
"796 827 OFFCURVE",
"696 827 CURVE",
"696 740 LINE",
"769 716 OFFCURVE",
"815 704 OFFCURVE",
"880 704 CURVE SMOOTH",
"1096 704 OFFCURVE",
"1232 831 OFFCURVE",
"1232 975 CURVE SMOOTH",
"1232 1208 OFFCURVE",
"982 1372 OFFCURVE",
"680 1372 CURVE SMOOTH",
"328 1372 OFFCURVE",
"132 1234 OFFCURVE",
"132 995 CURVE SMOOTH",
"132 790 OFFCURVE",
"314 670 OFFCURVE",
"457 614 CURVE SMOOTH",
"852 461 LINE SMOOTH",
"913 434 OFFCURVE",
"948 398 OFFCURVE",
"948 357 CURVE SMOOTH",
"948 303 OFFCURVE",
"879 259 OFFCURVE",
"680 259 CURVE SMOOTH",
"539 259 OFFCURVE",
"415 317 OFFCURVE",
"415 399 CURVE SMOOTH",
"415 476 OFFCURVE",
"525 533 OFFCURVE",
"663 533 CURVE",
"663 603 LINE",
"576 626 OFFCURVE",
"526 642 OFFCURVE",
"451 642 CURVE SMOOTH",
"247 642 OFFCURVE",
"85 540 OFFCURVE",
"85 363 CURVE SMOOTH",
"85 138 OFFCURVE",
"306 -32 OFFCURVE",
"680 -32 CURVE SMOOTH"
);
}
);
width = 1360.2;
}
);
unicode = 0038;
},
{
glyphname = nine;
lastChange = "2019-05-14 17:00:04 +0000";
layers = (
{
layerId = "CE2138A5-93BA-4A69-8B69-7D34CC27D2DF";
paths = (
{
closed = 1;
nodes = (
"857 -20 OFFCURVE",
"988 232 OFFCURVE",
"988 634 CURVE SMOOTH",
"988 1001 OFFCURVE",
"807 1231 OFFCURVE",
"542 1231 CURVE SMOOTH",
"310 1231 OFFCURVE",
"159 1091 OFFCURVE",
"159 872 CURVE SMOOTH",
"159 656 OFFCURVE",
"333 498 OFFCURVE",
"538 498 CURVE SMOOTH",
"747 498 OFFCURVE",
"880 624 OFFCURVE",
"894 836 CURVE",
"904 766 OFFCURVE",
"906 722 OFFCURVE",
"906 658 CURVE SMOOTH",
"906 283 OFFCURVE",
"796 50 OFFCURVE",
"541 50 CURVE SMOOTH",
"345 50 OFFCURVE",
"238 171 OFFCURVE",
"236 360 CURVE",
"161 360 LINE",
"161 144 OFFCURVE",
"314 -20 OFFCURVE",
"541 -20 CURVE SMOOTH"
);
},
{
closed = 1;
nodes = (
"361 579 OFFCURVE",
"237 691 OFFCURVE",
"237 872 CURVE SMOOTH",
"237 1052 OFFCURVE",
"361 1165 OFFCURVE",
"542 1165 CURVE SMOOTH",
"714 1165 OFFCURVE",
"843 1052 OFFCURVE",
"843 872 CURVE SMOOTH",
"843 711 OFFCURVE",
"714 579 OFFCURVE",
"540 579 CURVE SMOOTH"
);
}
);
width = 1098.5;
},
{
layerId = "54E4F05E-05D2-4398-A473-3C5492C75DBF";
paths = (
{
closed = 1;
nodes = (
"998 -32 OFFCURVE",
"1197 250 OFFCURVE",
"1197 689 CURVE SMOOTH",
"1197 1094 OFFCURVE",
"924 1372 OFFCURVE",
"591 1372 CURVE SMOOTH",
"292 1372 OFFCURVE",
"79 1196 OFFCURVE",
"79 933 CURVE SMOOTH",
"79 680 OFFCURVE",
"247 504 OFFCURVE",
"508 504 CURVE SMOOTH",
"667 504 OFFCURVE",
"825 569 OFFCURVE",
"876 793 CURVE",
"880 766 OFFCURVE",
"882 734 OFFCURVE",
"882 707 CURVE SMOOTH",
"882 443 OFFCURVE",
"808 259 OFFCURVE",
"609 259 CURVE SMOOTH",
"523 259 OFFCURVE",
"441 312 OFFCURVE",
"433 397 CURVE",
"99 397 LINE",
"99 138 OFFCURVE",
"332 -32 OFFCURVE",
"621 -32 CURVE SMOOTH"
);
},
{
closed = 1;
nodes = (
"496 757 OFFCURVE",
"409 814 OFFCURVE",
"409 915 CURVE SMOOTH",
"409 1015 OFFCURVE",
"496 1079 OFFCURVE",
"591 1079 CURVE SMOOTH",
"690 1079 OFFCURVE",
"781 1015 OFFCURVE",
"781 915 CURVE SMOOTH",
"781 816 OFFCURVE",
"690 757 OFFCURVE",
"595 757 CURVE SMOOTH"
);
}
);
width = 1283;
}
);
unicode = 0039;
},
{
glyphname = dollar;
lastChange = "2019-05-14 17:00:04 +0000";
layers = (
{
layerId = "CE2138A5-93BA-4A69-8B69-7D34CC27D2DF";
paths = (
{
closed = 1;
nodes = (
"849 -20 OFFCURVE",
"997 150 OFFCURVE",
"997 314 CURVE SMOOTH",
"997 488 OFFCURVE",
"875 584 OFFCURVE",
"711 633 CURVE SMOOTH",
"577 671 LINE",
"577 596 LINE",
"690 563 LINE SMOOTH",
"833 520 OFFCURVE",
"913 440 OFFCURVE",
"913 316 CURVE SMOOTH",
"913 181 OFFCURVE",
"789 50 OFFCURVE",
"566 50 CURVE SMOOTH",
"379 50 OFFCURVE",
"216 145 OFFCURVE",
"216 345 CURVE",
"146 345 LINE",
"146 118 OFFCURVE",
"335 -20 OFFCURVE",
"566 -20 CURVE SMOOTH"
);
},
{
closed = 1;
nodes = (
"608 -162 LINE",
"608 1373 LINE",
"533 1373 LINE",
"533 -162 LINE"
);
},
{
closed = 1;
nodes = (
"563 675 LINE",
"473 703 LINE SMOOTH",
"324 747 OFFCURVE",
"262 807 OFFCURVE",
"262 922 CURVE SMOOTH",
"262 1060 OFFCURVE",
"372 1162 OFFCURVE",
"573 1162 CURVE SMOOTH",
"747 1162 OFFCURVE",
"853 1095 OFFCURVE",
"873 964 CURVE",
"949 964 LINE",
"925 1119 OFFCURVE",
"793 1231 OFFCURVE",
"573 1231 CURVE SMOOTH",
"320 1231 OFFCURVE",
"184 1103 OFFCURVE",
"184 925 CURVE SMOOTH",
"184 762 OFFCURVE",
"290 686 OFFCURVE",
"506 618 CURVE SMOOTH",
"563 600 LINE"
);
}
);
width = 1141.075;
},
{
layerId = "54E4F05E-05D2-4398-A473-3C5492C75DBF";
paths = (
{
closed = 1;
nodes = (
"1200 -32 OFFCURVE",
"1378 162 OFFCURVE",
"1378 363 CURVE SMOOTH",
"1378 531 OFFCURVE",
"1293 633 OFFCURVE",
"1074 713 CURVE SMOOTH",
"755 831 LINE",
"755 559 LINE",
"912 495 LINE SMOOTH",
"980 465 OFFCURVE",
"1018 422 OFFCURVE",
"1018 371 CURVE SMOOTH",
"1018 304 OFFCURVE",
"961 259 OFFCURVE",
"800 259 CURVE SMOOTH",
"551 259 OFFCURVE",
"438 305 OFFCURVE",
"438 438 CURVE",
"122 438 LINE",
"122 100 OFFCURVE",
"434 -32 OFFCURVE",
"782 -32 CURVE SMOOTH"
);
},
{
closed = 1;
nodes = (
"860 -223 LINE",
"860 1527 LINE",
"644 1527 LINE",
"644 -223 LINE"
);
},
{
closed = 1;
nodes = (
"698 829 LINE",
"584 881 LINE SMOOTH",
"521 907 OFFCURVE",
"490 936 OFFCURVE",
"490 983 CURVE SMOOTH",
"490 1054 OFFCURVE",
"569 1101 OFFCURVE",
"733 1101 CURVE SMOOTH",
"901 1101 OFFCURVE",
"994 1015 OFFCURVE",
"1014 927 CURVE",
"1330 927 LINE",
"1282 1205 OFFCURVE",
"1107 1372 OFFCURVE",
"739 1372 CURVE SMOOTH",
"350 1372 OFFCURVE",
"141 1220 OFFCURVE",
"141 993 CURVE SMOOTH",
"141 799 OFFCURVE",
"278 698 OFFCURVE",
"506 618 CURVE SMOOTH",
"698 551 LINE"
);
}
);
width = 1500.85;
}
);
unicode = 0024;
},
{
glyphname = question;
lastChange = "2019-05-14 17:00:04 +0000";
layers = (
{
layerId = "CE2138A5-93BA-4A69-8B69-7D34CC27D2DF";
paths = (
{
closed = 1;
nodes = (
"428 250 LINE",
"428 353 LINE SMOOTH",
"428 510 OFFCURVE",
"474 552 OFFCURVE",
"612 634 CURVE SMOOTH",
"772 724 OFFCURVE",
"836 802 OFFCURVE",
"836 938 CURVE SMOOTH",
"836 1093 OFFCURVE",
"701 1231 OFFCURVE",
"474 1231 CURVE SMOOTH",
"226 1231 OFFCURVE",
"94 1119 OFFCURVE",
"72 964 CURVE",
"156 964 LINE",
"191 1095 OFFCURVE",
"283 1163 OFFCURVE",
"471 1163 CURVE SMOOTH",
"650 1163 OFFCURVE",
"759 1068 OFFCURVE",
"759 944 CURVE SMOOTH",
"759 813 OFFCURVE",
"696 763 OFFCURVE",
"554 683 CURVE SMOOTH",
"398 591 OFFCURVE",
"358 525 OFFCURVE",
"358 351 CURVE SMOOTH",
"358 250 LINE"
);
},
{
closed = 1;
nodes = (
"428 -20 OFFCURVE",
"464 12 OFFCURVE",
"464 47 CURVE SMOOTH",
"464 80 OFFCURVE",
"428 116 OFFCURVE",
"393 116 CURVE SMOOTH",
"356 116 OFFCURVE",
"326 80 OFFCURVE",
"326 47 CURVE SMOOTH",
"326 12 OFFCURVE",
"356 -20 OFFCURVE",
"393 -20 CURVE SMOOTH"
);
}
);
width = 959.075;
},
{
layerId = "54E4F05E-05D2-4398-A473-3C5492C75DBF";
paths = (
{
closed = 1;
nodes = (
"668 459 LINE",
"668 494 LINE SMOOTH",
"668 571 OFFCURVE",
"702 613 OFFCURVE",
"827 671 CURVE SMOOTH",
"969 736 OFFCURVE",
"1039 833 OFFCURVE",
"1039 975 CURVE SMOOTH",
"1039 1204 OFFCURVE",
"842 1372 OFFCURVE",
"529 1372 CURVE SMOOTH",
"220 1372 OFFCURVE",
"45 1199 OFFCURVE",
"35 927 CURVE",
"365 927 LINE",
"363 1015 OFFCURVE",
"430 1083 OFFCURVE",
"545 1083 CURVE SMOOTH",
"632 1083 OFFCURVE",
"685 1037 OFFCURVE",
"685 975 CURVE SMOOTH",
"685 924 OFFCURVE",
"666 886 OFFCURVE",
"548 830 CURVE SMOOTH",
"410 769 OFFCURVE",
"346 703 OFFCURVE",
"346 529 CURVE SMOOTH",
"346 459 LINE"
);
},
{
closed = 1;
nodes = (
"644 -32 OFFCURVE",
"734 55 OFFCURVE",
"734 170 CURVE SMOOTH",
"734 289 OFFCURVE",
"644 374 OFFCURVE",
"516 374 CURVE SMOOTH",
"387 374 OFFCURVE",
"302 289 OFFCURVE",
"302 170 CURVE SMOOTH",
"302 55 OFFCURVE",
"387 -32 OFFCURVE",
"516 -32 CURVE SMOOTH"
);
}
);
width = 1072.85;
}
);
unicode = 003F;
},
{
glyphname = sterling;
lastChange = "2019-05-14 17:00:04 +0000";
layers = (
{
layerId = "CE2138A5-93BA-4A69-8B69-7D34CC27D2DF";
paths = (
{
closed = 1;
nodes = (
"271 35 OFFCURVE",
"316 92 OFFCURVE",
"316 244 CURVE SMOOTH",
"316 839 LINE SMOOTH",
"316 1064 OFFCURVE",
"408 1163 OFFCURVE",
"569 1163 CURVE SMOOTH",
"675 1163 OFFCURVE",
"774 1111 OFFCURVE",
"798 982 CURVE",
"872 982 LINE",
"840 1145 OFFCURVE",
"720 1231 OFFCURVE",
"569 1231 CURVE SMOOTH",
"327 1231 OFFCURVE",
"242 1071 OFFCURVE",
"242 839 CURVE SMOOTH",
"242 244 LINE SMOOTH",
"242 118 OFFCURVE",
"190 58 OFFCURVE",
"84 58 CURVE",
"84 35 LINE"
);
},
{
closed = 1;
nodes = (
"700 0 LINE SMOOTH",
"895 0 OFFCURVE",
"962 100 OFFCURVE",
"980 242 CURVE",
"906 242 LINE",
"884 116 OFFCURVE",
"826 58 OFFCURVE",
"702 58 CURVE SMOOTH",
"36 58 LINE",
"36 0 LINE"
);
},
{
closed = 1;
nodes = (
"699 505 LINE",
"699 566 LINE",
"44 566 LINE",
"44 505 LINE"
);
}
);
width = 1053.15;
},
{
layerId = "54E4F05E-05D2-4398-A473-3C5492C75DBF";
paths = (
{
closed = 1;
nodes = (
"449 201 OFFCURVE",
"562 295 OFFCURVE",
"562 484 CURVE SMOOTH",
"562 913 LINE SMOOTH",
"562 1027 OFFCURVE",
"617 1083 OFFCURVE",
"692 1083 CURVE SMOOTH",
"761 1083 OFFCURVE",
"798 1037 OFFCURVE",
"804 970 CURVE",
"1118 970 LINE",
"1086 1238 OFFCURVE",
"948 1372 OFFCURVE",
"692 1372 CURVE SMOOTH",
"444 1372 OFFCURVE",
"242 1231 OFFCURVE",
"242 913 CURVE SMOOTH",
"242 460 LINE SMOOTH",
"242 346 OFFCURVE",
"214 292 OFFCURVE",
"121 292 CURVE",
"121 201 LINE"
);
},
{
closed = 1;
nodes = (
"669 0 LINE SMOOTH",
"1061 0 OFFCURVE",
"1208 155 OFFCURVE",
"1208 433 CURVE",
"857 433 LINE",
"847 338 OFFCURVE",
"802 292 OFFCURVE",
"665 292 CURVE SMOOTH",
"48 292 LINE",
"48 0 LINE"
);
},
{
closed = 1;
nodes = (
"883 591 LINE",
"883 800 LINE",
"93 800 LINE",
"93 591 LINE"
);
}
);
width = 1280.7;
}
);
unicode = 00A3;
},
{
glyphname = grave;
lastChange = "2019-05-14 17:00:04 +0000";
layers = (
{
anchors = (
{
name = _above;
position = "{271, 1215}";
}
);
layerId = "CE2138A5-93BA-4A69-8B69-7D34CC27D2DF";
paths = (
{
closed = 1;
nodes = (
"464 1319 LINE",
"496 1366 LINE",
"92 1634 LINE",
"48 1564 LINE"
);
}
);
width = 538.85;
},
{
anchors = (
{
name = _above;
position = "{400, 1381}";
}
);
layerId = "54E4F05E-05D2-4398-A473-3C5492C75DBF";
paths = (
{
closed = 1;
nodes = (
"680 1424 LINE",
"754 1624 LINE",
"153 1886 LINE",
"48 1613 LINE"
);
}
);
width = 803.3;
}
);
unicode = 0060;
},
{
glyphname = acute;
lastChange = "2019-05-14 17:00:04 +0000";
layers = (
{
anchors = (
{
name = _above;
position = "{271, 1215}";
}
);
layerId = "CE2138A5-93BA-4A69-8B69-7D34CC27D2DF";
paths = (
{
closed = 1;
nodes = (
"490 1564 LINE",
"446 1634 LINE",
"46 1366 LINE",
"78 1319 LINE"
);
}
);
width = 538.85;
},
{
anchors = (
{
name = _above;
position = "{400, 1381}";
}
);
layerId = "54E4F05E-05D2-4398-A473-3C5492C75DBF";
paths = (
{
closed = 1;
nodes = (
"754 1613 LINE",
"649 1886 LINE",
"46 1624 LINE",
"121 1424 LINE"
);
}
);
width = 803.3;
}
);
unicode = 00B4;
},
{
glyphname = circumflex;
lastChange = "2019-05-14 17:00:04 +0000";
layers = (
{
anchors = (
{
name = _above;
position = "{345, 1215}";
}
);
layerId = "CE2138A5-93BA-4A69-8B69-7D34CC27D2DF";
paths = (
{
closed = 1;
nodes = (
"345 1552 LINE",
"594 1317 LINE",
"643 1354 LINE",
"345 1660 LINE",
"48 1354 LINE",
"93 1317 LINE"
);
}
);
width = 689.025;
},
{
anchors = (
{
name = _above;
position = "{529, 1381}";
}
);
layerId = "54E4F05E-05D2-4398-A473-3C5492C75DBF";
paths = (
{
closed = 1;
nodes = (
"529 1607 LINE",
"803 1422 LINE",
"1006 1582 LINE",
"529 1912 LINE",
"48 1582 LINE",
"253 1422 LINE"
);
}
);
width = 1054.95;
}
);
unicode = 02C6;
},
{
glyphname = tilde;
lastChange = "2019-05-14 17:00:04 +0000";
layers = (
{
anchors = (
{
name = _above;
position = "{327, 1215}";
}
);
layerId = "CE2138A5-93BA-4A69-8B69-7D34CC27D2DF";
paths = (
{
closed = 1;
nodes = (
"109 1487 OFFCURVE",
"147 1517 OFFCURVE",
"187 1517 CURVE SMOOTH",
"215 1517 OFFCURVE",
"229 1511 OFFCURVE",
"313 1469 CURVE SMOOTH",
"410 1419 OFFCURVE",
"441 1409 OFFCURVE",
"473 1409 CURVE SMOOTH",
"531 1409 OFFCURVE",
"580 1455 OFFCURVE",
"612 1562 CURVE",
"577 1588 LINE",
"549 1512 OFFCURVE",
"509 1478 OFFCURVE",
"471 1478 CURVE SMOOTH",
"443 1478 OFFCURVE",
"429 1483 OFFCURVE",
"333 1534 CURVE SMOOTH",
"237 1584 OFFCURVE",
"217 1588 OFFCURVE",
"187 1588 CURVE SMOOTH",
"128 1588 OFFCURVE",
"78 1538 OFFCURVE",
"46 1433 CURVE",
"79 1409 LINE"
);
}
);
width = 669.525;
},
{
anchors = (
{
name = _above;
position = "{426, 1381}";
}
);
layerId = "54E4F05E-05D2-4398-A473-3C5492C75DBF";
paths = (
{
closed = 1;
nodes = (
"214 1567 OFFCURVE",
"252 1585 OFFCURVE",
"298 1585 CURVE SMOOTH",
"326 1585 OFFCURVE",
"352 1573 OFFCURVE",
"406 1543 CURVE SMOOTH",
"471 1511 OFFCURVE",
"515 1489 OFFCURVE",
"572 1489 CURVE SMOOTH",
"666 1489 OFFCURVE",
"777 1621 OFFCURVE",
"803 1784 CURVE",
"670 1871 LINE",
"642 1807 OFFCURVE",
"602 1779 OFFCURVE",
"564 1779 CURVE SMOOTH",
"529 1779 OFFCURVE",
"497 1797 OFFCURVE",
"444 1823 CURVE SMOOTH",
"384 1854 OFFCURVE",
"340 1871 OFFCURVE",
"298 1871 CURVE SMOOTH",
"171 1871 OFFCURVE",
"78 1753 OFFCURVE",
"46 1562 CURVE",
"172 1489 LINE"
);
}
);
width = 850.95;
}
);
unicode = 02DC;
},
{
glyphname = ampersand;
lastChange = "2019-05-14 17:00:04 +0000";
layers = (
{
layerId = "CE2138A5-93BA-4A69-8B69-7D34CC27D2DF";
paths = (
{
closed = 1;
nodes = (
"1556 -20 OFFCURVE",
"1634 65 OFFCURVE",
"1648 227 CURVE",
"1568 227 LINE",
"1555 94 OFFCURVE",
"1491 46 OFFCURVE",
"1419 46 CURVE SMOOTH",
"1357 46 OFFCURVE",
"1325 64 OFFCURVE",
"1265 114 CURVE SMOOTH",
"574 709 LINE SMOOTH",
"478 791 OFFCURVE",
"444 867 OFFCURVE",
"444 950 CURVE SMOOTH",
"444 1066 OFFCURVE",
"530 1173 OFFCURVE",
"703 1173 CURVE SMOOTH",
"843 1173 OFFCURVE",
"935 1086 OFFCURVE",
"935 974 CURVE SMOOTH",
"935 874 OFFCURVE",
"908 776 OFFCURVE",
"639 649 CURVE",
"686 602 LINE",
"942 722 OFFCURVE",
"1017 832 OFFCURVE",
"1017 963 CURVE SMOOTH",
"1017 1119 OFFCURVE",
"880 1231 OFFCURVE",
"703 1231 CURVE SMOOTH",
"504 1231 OFFCURVE",
"366 1123 OFFCURVE",
"366 959 CURVE SMOOTH",
"366 851 OFFCURVE",
"422 749 OFFCURVE",
"530 657 CURVE SMOOTH",
"1209 75 LINE SMOOTH",
"1286 8 OFFCURVE",
"1346 -20 OFFCURVE",
"1419 -20 CURVE SMOOTH"
);
},
{
closed = 1;
nodes = (
"1027 -20 OFFCURVE",
"1250 327 OFFCURVE",
"1368 712 CURVE",
"1307 744 LINE",
"1196 373 OFFCURVE",
"973 44 OFFCURVE",
"621 44 CURVE SMOOTH",
"376 44 OFFCURVE",
"250 173 OFFCURVE",
"250 323 CURVE SMOOTH",
"250 482 OFFCURVE",
"380 560 OFFCURVE",
"645 590 CURVE",
"646 645 LINE",
"328 617 OFFCURVE",
"172 527 OFFCURVE",
"172 325 CURVE SMOOTH",
"172 136 OFFCURVE",
"351 -20 OFFCURVE",
"619 -20 CURVE SMOOTH"
);
}
);
width = 1725.475;
},
{
layerId = "54E4F05E-05D2-4398-A473-3C5492C75DBF";
paths = (
{
closed = 1;
nodes = (
"1796 -32 OFFCURVE",
"1911 133 OFFCURVE",
"1912 381 CURVE",
"1629 381 LINE",
"1629 291 OFFCURVE",
"1584 249 OFFCURVE",
"1524 249 CURVE SMOOTH",
"1462 249 OFFCURVE",
"1424 273 OFFCURVE",
"1382 311 CURVE SMOOTH",
"808 844 LINE SMOOTH",
"761 890 OFFCURVE",
"733 929 OFFCURVE",
"733 981 CURVE SMOOTH",
"733 1042 OFFCURVE",
"782 1087 OFFCURVE",
"869 1087 CURVE SMOOTH",
"948 1087 OFFCURVE",
"1003 1043 OFFCURVE",
"1003 980 CURVE SMOOTH",
"1003 874 OFFCURVE",
"896 819 OFFCURVE",
"762 778 CURVE",
"926 626 LINE",
"1194 698 OFFCURVE",
"1356 826 OFFCURVE",
"1356 1031 CURVE SMOOTH",
"1356 1212 OFFCURVE",
"1187 1366 OFFCURVE",
"869 1366 CURVE SMOOTH",
"547 1366 OFFCURVE",
"378 1209 OFFCURVE",
"378 1027 CURVE SMOOTH",
"378 919 OFFCURVE",
"440 817 OFFCURVE",
"512 750 CURVE SMOOTH",
"1123 180 LINE SMOOTH",
"1274 38 OFFCURVE",
"1401 -32 OFFCURVE",
"1560 -32 CURVE SMOOTH"
);
},
{
closed = 1;
nodes = (
"1138 -32 OFFCURVE",
"1447 228 OFFCURVE",
"1608 675 CURVE",
"1399 793 LINE",
"1251 472 OFFCURVE",
"1041 260 OFFCURVE",
"775 260 CURVE SMOOTH",
"634 260 OFFCURVE",
"545 327 OFFCURVE",
"545 416 CURVE SMOOTH",
"545 494 OFFCURVE",
"608 554 OFFCURVE",
"780 566 CURVE",
"664 731 LINE",
"377 710 OFFCURVE",
"190 601 OFFCURVE",
"190 393 CURVE SMOOTH",
"190 148 OFFCURVE",
"462 -32 OFFCURVE",
"772 -32 CURVE SMOOTH"
);
}
);
width = 2036.05;
}
);
unicode = 0026;
},
{
glyphname = at;
lastChange = "2019-05-14 17:00:04 +0000";
layers = (
{
layerId = "CE2138A5-93BA-4A69-8B69-7D34CC27D2DF";
paths = (
{
closed = 1;
nodes = (
"1037 -226 LINE",
"541 -226 OFFCURVE",
"214 46 OFFCURVE",
"214 477 CURVE SMOOTH",
"214 838 OFFCURVE",
"486 1169 OFFCURVE",
"920 1169 CURVE SMOOTH",
"1285 1169 OFFCURVE",
"1532 931 OFFCURVE",
"1532 598 CURVE SMOOTH",
"1532 330 OFFCURVE",
"1370 145 OFFCURVE",
"1235 145 CURVE SMOOTH",
"1175 145 OFFCURVE",
"1151 181 OFFCURVE",
"1151 251 CURVE SMOOTH",
"1151 598 LINE SMOOTH",
"1151 774 OFFCURVE",
"1059 860 OFFCURVE",
"924 860 CURVE SMOOTH",
"712 860 OFFCURVE",
"514 676 OFFCURVE",
"514 420 CURVE SMOOTH",
"514 221 OFFCURVE",
"664 99 OFFCURVE",
"816 99 CURVE SMOOTH",
"950 99 OFFCURVE",
"1030 183 OFFCURVE",
"1074 279 CURVE",
"1074 251 LINE SMOOTH",
"1078 149 OFFCURVE",
"1137 99 OFFCURVE",
"1235 99 CURVE SMOOTH",
"1431 99 OFFCURVE",
"1612 307 OFFCURVE",
"1612 598 CURVE SMOOTH",
"1612 945 OFFCURVE",
"1333 1231 OFFCURVE",
"920 1231 CURVE SMOOTH",
"449 1231 OFFCURVE",
"134 899 OFFCURVE",
"134 477 CURVE SMOOTH",
"134 27 OFFCURVE",
"494 -284 OFFCURVE",
"1037 -284 CURVE"
);
},
{
closed = 1;
nodes = (
"689 159 OFFCURVE",
"597 258 OFFCURVE",
"597 420 CURVE SMOOTH",
"597 657 OFFCURVE",
"783 799 OFFCURVE",
"924 799 CURVE SMOOTH",
"1030 799 OFFCURVE",
"1076 743 OFFCURVE",
"1076 601 CURVE SMOOTH",
"1076 372 LINE",
"1012 240 OFFCURVE",
"938 159 OFFCURVE",
"820 159 CURVE SMOOTH"
);
}
);
width = 1696.6;
},
{
layerId = "54E4F05E-05D2-4398-A473-3C5492C75DBF";
paths = (
{
closed = 1;
nodes = (
"1190 -250 LINE",
"701 -250 OFFCURVE",
"454 16 OFFCURVE",
"454 366 CURVE SMOOTH",
"454 789 OFFCURVE",
"775 1083 OFFCURVE",
"1221 1083 CURVE SMOOTH",
"1611 1083 OFFCURVE",
"1809 857 OFFCURVE",
"1809 580 CURVE SMOOTH",
"1809 293 OFFCURVE",
"1659 225 OFFCURVE",
"1604 225 CURVE SMOOTH",
"1562 225 OFFCURVE",
"1538 249 OFFCURVE",
"1538 325 CURVE SMOOTH",
"1538 543 LINE SMOOTH",
"1538 774 OFFCURVE",
"1416 890 OFFCURVE",
"1219 890 CURVE SMOOTH",
"934 890 OFFCURVE",
"699 658 OFFCURVE",
"699 365 CURVE SMOOTH",
"699 141 OFFCURVE",
"867 -30 OFFCURVE",
"1044 -30 CURVE SMOOTH",
"1184 -30 OFFCURVE",
"1246 23 OFFCURVE",
"1302 126 CURVE",
"1320 91 LINE SMOOTH",
"1355 20 OFFCURVE",
"1451 -30 OFFCURVE",
"1592 -30 CURVE SMOOTH",
"1855 -30 OFFCURVE",
"2128 172 OFFCURVE",
"2128 580 CURVE SMOOTH",
"2128 1025 OFFCURVE",
"1763 1372 OFFCURVE",
"1221 1372 CURVE SMOOTH",
"609 1372 OFFCURVE",
"134 991 OFFCURVE",
"134 391 CURVE SMOOTH",
"134 -102 OFFCURVE",
"549 -512 OFFCURVE",
"1190 -512 CURVE"
);
},
{
closed = 1;
nodes = (
"1040 227 OFFCURVE",
"978 276 OFFCURVE",
"978 371 CURVE SMOOTH",
"978 540 OFFCURVE",
"1103 646 OFFCURVE",
"1207 646 CURVE SMOOTH",
"1276 646 OFFCURVE",
"1291 590 OFFCURVE",
"1291 539 CURVE SMOOTH",
"1291 354 LINE",
"1240 264 OFFCURVE",
"1196 227 OFFCURVE",
"1115 227 CURVE SMOOTH"
);
}
);
width = 2237.8;
}
);
unicode = 0040;
},
{
glyphname = dieresis;
lastChange = "2019-05-14 17:00:04 +0000";
layers = (
{
anchors = (
{
name = _above;
position = "{259, 1354}";
}
);
layerId = "CE2138A5-93BA-4A69-8B69-7D34CC27D2DF";
paths = (
{
closed = 1;
nodes = (
"435 1576 OFFCURVE",
"467 1604 OFFCURVE",
"467 1640 CURVE SMOOTH",
"467 1675 OFFCURVE",
"435 1709 OFFCURVE",
"398 1709 CURVE SMOOTH",
"360 1709 OFFCURVE",
"331 1675 OFFCURVE",
"331 1640 CURVE SMOOTH",
"331 1604 OFFCURVE",
"360 1576 OFFCURVE",
"398 1576 CURVE SMOOTH"
);
},
{
closed = 1;
nodes = (
"153 1576 OFFCURVE",
"184 1604 OFFCURVE",
"184 1638 CURVE SMOOTH",
"184 1675 OFFCURVE",
"153 1707 OFFCURVE",
"115 1707 CURVE SMOOTH",
"78 1707 OFFCURVE",
"48 1675 OFFCURVE",
"48 1638 CURVE SMOOTH",
"48 1604 OFFCURVE",
"78 1576 OFFCURVE",
"115 1576 CURVE SMOOTH"
);
}
);
width = 518.975;
},
{
anchors = (
{
name = _above;
position = "{443, 1372}";
}
);
layerId = "54E4F05E-05D2-4398-A473-3C5492C75DBF";
paths = (
{
closed = 1;
nodes = (
"767 1521 OFFCURVE",
"842 1592 OFFCURVE",
"842 1689 CURVE SMOOTH",
"842 1786 OFFCURVE",
"767 1856 OFFCURVE",
"662 1856 CURVE SMOOTH",
"563 1856 OFFCURVE",
"485 1786 OFFCURVE",
"485 1689 CURVE SMOOTH",
"485 1592 OFFCURVE",
"563 1521 OFFCURVE",
"662 1521 CURVE SMOOTH"
);
},
{
closed = 1;
nodes = (
"331 1521 OFFCURVE",
"406 1592 OFFCURVE",
"406 1687 CURVE SMOOTH",
"406 1786 OFFCURVE",
"331 1854 OFFCURVE",
"226 1854 CURVE SMOOTH",
"121 1854 OFFCURVE",
"48 1786 OFFCURVE",
"48 1687 CURVE SMOOTH",
"48 1592 OFFCURVE",
"121 1521 OFFCURVE",
"226 1521 CURVE SMOOTH"
);
}
);
width = 891.05;
}
);
unicode = 00A8;
},
{
glyphname = dotlessi;
lastChange = "2019-05-14 17:00:04 +0000";
layers = (
{
anchors = (
{
name = above;
position = "{255, 971}";
}
);
layerId = "CE2138A5-93BA-4A69-8B69-7D34CC27D2DF";
paths = (
{
closed = 1;
nodes = (
"292 0 LINE",
"292 942 LINE",
"218 942 LINE",
"218 0 LINE"
);
}
);
width = 509.775;
},
{
anchors = (
{
name = above;
position = "{329, 1094}";
}
);
layerId = "54E4F05E-05D2-4398-A473-3C5492C75DBF";
paths = (
{
closed = 1;
nodes = (
"489 0 LINE",
"489 991 LINE",
"169 991 LINE",
"169 0 LINE"
);
}
);
width = 660.45;
}
);
unicode = 0131;
},
{
glyphname = less;
lastChange = "2019-05-14 17:00:04 +0000";
layers = (
{
layerId = "CE2138A5-93BA-4A69-8B69-7D34CC27D2DF";
paths = (
{
closed = 1;
nodes = (
"74 604 LINE",
"74 546 LINE",
"665 105 LINE",
"712 167 LINE",
"122 589 LINE",
"122 562 LINE",
"712 989 LINE",
"665 1048 LINE"
);
}
);
width = 805.55;
},
{
layerId = "54E4F05E-05D2-4398-A473-3C5492C75DBF";
paths = (
{
closed = 1;
nodes = (
"98 826 LINE",
"98 534 LINE",
"806 31 LINE",
"1019 272 LINE",
"331 749 LINE",
"331 611 LINE",
"1019 1088 LINE",
"806 1331 LINE"
);
}
);
width = 1106.9;
}
);
unicode = 003C;
},
{
glyphname = greater;
lastChange = "2019-05-14 17:00:04 +0000";
layers = (
{
layerId = "CE2138A5-93BA-4A69-8B69-7D34CC27D2DF";
paths = (
{
closed = 1;
nodes = (
"736 546 LINE",
"736 604 LINE",
"145 1048 LINE",
"98 989 LINE",
"681 562 LINE",
"681 589 LINE",
"98 167 LINE",
"145 105 LINE"
);
}
);
width = 805.55;
},
{
layerId = "54E4F05E-05D2-4398-A473-3C5492C75DBF";
paths = (
{
closed = 1;
nodes = (
"1006 534 LINE",
"1006 826 LINE",
"299 1331 LINE",
"86 1088 LINE",
"774 611 LINE",
"774 749 LINE",
"86 272 LINE",
"299 31 LINE"
);
}
);
width = 1106.9;
}
);
unicode = 003E;
},
{
glyphname = numbersign;
lastChange = "2019-05-14 17:00:04 +0000";
layers = (
{
layerId = "CE2138A5-93BA-4A69-8B69-7D34CC27D2DF";
paths = (
{
closed = 1;
nodes = (
"350 58 LINE",
"382 352 LINE",
"727 352 LINE",
"695 58 LINE",
"763 58 LINE",
"795 352 LINE",
"1016 352 LINE",
"1024 409 LINE",
"803 409 LINE",
"843 810 LINE",
"1064 810 LINE",
"1072 867 LINE",
"849 867 LINE",
"879 1155 LINE",
"813 1155 LINE",
"781 867 LINE",
"436 867 LINE",
"464 1155 LINE",
"396 1155 LINE",
"368 867 LINE",
"150 867 LINE",
"146 810 LINE",
"360 810 LINE",
"318 409 LINE",
"104 409 LINE",
"98 352 LINE",
"314 352 LINE",
"282 58 LINE"
);
},
{
closed = 1;
nodes = (
"428 810 LINE",
"773 810 LINE",
"731 409 LINE",
"386 409 LINE"
);
}
);
width = 1143.375;
},
{
layerId = "54E4F05E-05D2-4398-A473-3C5492C75DBF";
paths = (
{
closed = 1;
nodes = (
"566 70 LINE",
"591 315 LINE",
"826 315 LINE",
"800 70 LINE",
"1102 70 LINE",
"1127 315 LINE",
"1299 315 LINE",
"1319 520 LINE",
"1148 520 LINE",
"1175 792 LINE",
"1347 792 LINE",
"1367 996 LINE",
"1200 996 LINE",
"1224 1241 LINE",
"924 1241 LINE",
"898 996 LINE",
"664 996 LINE",
"692 1241 LINE",
"390 1241 LINE",
"362 996 LINE",
"193 996 LINE",
"170 792 LINE",
"342 792 LINE",
"312 520 LINE",
"141 520 LINE",
"122 315 LINE",
"290 315 LINE",
"264 70 LINE"
);
},
{
closed = 1;
nodes = (
"644 792 LINE",
"878 792 LINE",
"848 520 LINE",
"614 520 LINE"
);
}
);
width = 1466.25;
}
);
unicode = 0023;
},
{
glyphname = asterisk;
lastChange = "2019-05-14 17:00:04 +0000";
layers = (
{
layerId = "CE2138A5-93BA-4A69-8B69-7D34CC27D2DF";
paths = (
{
closed = 1;
nodes = (
"248 760 LINE",
"416 974 LINE",
"584 760 LINE",
"646 813 LINE",
"457 1005 LINE",
"704 1091 LINE",
"668 1165 LINE",
"442 1053 LINE",
"453 1327 LINE",
"375 1327 LINE",
"386 1053 LINE",
"160 1165 LINE",
"124 1094 LINE",
"371 1003 LINE",
"182 813 LINE"
);
}
);
width = 832.175;
},
{
layerId = "54E4F05E-05D2-4398-A473-3C5492C75DBF";
paths = (
{
closed = 1;
nodes = (
"272 809 LINE",
"416 1005 LINE",
"553 809 LINE",
"701 936 LINE",
"537 1085 LINE",
"741 1153 LINE",
"668 1331 LINE",
"485 1231 LINE",
"515 1450 LINE",
"313 1450 LINE",
"343 1231 LINE",
"160 1325 LINE",
"87 1149 LINE",
"297 1083 LINE",
"133 936 LINE"
);
}
);
width = 810.65;
}
);
unicode = 002A;
},
{
glyphname = slash;
lastChange = "2019-05-14 17:00:04 +0000";
layers = (
{
layerId = "CE2138A5-93BA-4A69-8B69-7D34CC27D2DF";
paths = (
{
closed = 1;
nodes = (
"194 -128 LINE",
"688 1433 LINE",
"612 1433 LINE",
"122 -128 LINE"
);
}
);
width = 781;
},
{
layerId = "54E4F05E-05D2-4398-A473-3C5492C75DBF";
paths = (
{
closed = 1;
nodes = (
"422 -177 LINE",
"952 1519 LINE",
"624 1519 LINE",
"98 -177 LINE"
);
}
);
width = 1027;
}
);
unicode = 002F;
},
{
glyphname = percent;
lastChange = "2019-05-14 17:00:04 +0000";
layers = (
{
layerId = "CE2138A5-93BA-4A69-8B69-7D34CC27D2DF";
paths = (
{
closed = 1;
nodes = (
"314 0 LINE",
"1128 1213 LINE",
"1043 1213 LINE",
"232 0 LINE"
);
},
{
closed = 1;
nodes = (
"1128 -18 OFFCURVE",
"1240 78 OFFCURVE",
"1240 254 CURVE SMOOTH",
"1240 425 OFFCURVE",
"1128 521 OFFCURVE",
"1000 521 CURVE SMOOTH",
"880 521 OFFCURVE",
"765 425 OFFCURVE",
"765 254 CURVE SMOOTH",
"765 78 OFFCURVE",
"880 -18 OFFCURVE",
"1000 -18 CURVE SMOOTH"
);
},
{
closed = 1;
nodes = (
"902 45 OFFCURVE",
"835 113 OFFCURVE",
"835 254 CURVE SMOOTH",
"835 388 OFFCURVE",
"902 460 OFFCURVE",
"1000 460 CURVE SMOOTH",
"1099 460 OFFCURVE",
"1167 388 OFFCURVE",
"1167 254 CURVE SMOOTH",
"1167 113 OFFCURVE",
"1099 45 OFFCURVE",
"1000 45 CURVE SMOOTH"
);
},
{
closed = 1;
nodes = (
"481 694 OFFCURVE",
"597 790 OFFCURVE",
"597 961 CURVE SMOOTH",
"597 1135 OFFCURVE",
"481 1231 OFFCURVE",
"358 1231 CURVE SMOOTH",
"238 1231 OFFCURVE",
"122 1135 OFFCURVE",
"122 961 CURVE SMOOTH",
"122 790 OFFCURVE",
"238 694 OFFCURVE",
"358 694 CURVE SMOOTH"
);
},
{
closed = 1;
nodes = (
"259 755 OFFCURVE",
"193 825 OFFCURVE",
"193 961 CURVE SMOOTH",
"193 1100 OFFCURVE",
"259 1174 OFFCURVE",
"358 1174 CURVE SMOOTH",
"452 1174 OFFCURVE",
"520 1100 OFFCURVE",
"520 961 CURVE SMOOTH",
"520 825 OFFCURVE",
"452 755 OFFCURVE",
"358 755 CURVE SMOOTH"
);
}
);
width = 1371.05;
},
{
layerId = "54E4F05E-05D2-4398-A473-3C5492C75DBF";
paths = (
{
closed = 1;
nodes = (
"523 0 LINE",
"1435 1342 LINE",
"1117 1342 LINE",
"202 0 LINE"
);
},
{
closed = 1;
nodes = (
"1386 -24 OFFCURVE",
"1523 78 OFFCURVE",
"1523 297 CURVE SMOOTH",
"1523 518 OFFCURVE",
"1386 620 OFFCURVE",
"1228 620 CURVE SMOOTH",
"1071 620 OFFCURVE",
"937 518 OFFCURVE",
"937 297 CURVE SMOOTH",
"937 78 OFFCURVE",
"1071 -24 OFFCURVE",
"1228 -24 CURVE SMOOTH"
);
},
{
closed = 1;
nodes = (
"1191 174 OFFCURVE",
"1167 199 OFFCURVE",
"1167 297 CURVE SMOOTH",
"1167 394 OFFCURVE",
"1191 423 OFFCURVE",
"1228 423 CURVE SMOOTH",
"1265 423 OFFCURVE",
"1290 394 OFFCURVE",
"1290 297 CURVE SMOOTH",
"1290 199 OFFCURVE",
"1265 174 OFFCURVE",
"1228 174 CURVE SMOOTH"
);
},
{
closed = 1;
nodes = (
"574 731 OFFCURVE",
"708 833 OFFCURVE",
"708 1054 CURVE SMOOTH",
"708 1270 OFFCURVE",
"574 1372 OFFCURVE",
"413 1372 CURVE SMOOTH",
"256 1372 OFFCURVE",
"122 1270 OFFCURVE",
"122 1054 CURVE SMOOTH",
"122 833 OFFCURVE",
"256 731 OFFCURVE",
"413 731 CURVE SMOOTH"
);
},
{
closed = 1;
nodes = (
"376 927 OFFCURVE",
"353 954 OFFCURVE",
"353 1054 CURVE SMOOTH",
"353 1149 OFFCURVE",
"376 1174 OFFCURVE",
"413 1174 CURVE SMOOTH",
"452 1174 OFFCURVE",
"477 1149 OFFCURVE",
"477 1054 CURVE SMOOTH",
"477 954 OFFCURVE",
"452 927 OFFCURVE",
"413 927 CURVE SMOOTH"
);
}
);
width = 1610.9;
}
);
unicode = 0025;
},
{
glyphname = bar;
lastChange = "2019-05-14 17:00:04 +0000";
layers = (
{
layerId = "CE2138A5-93BA-4A69-8B69-7D34CC27D2DF";
paths = (
{
closed = 1;
nodes = (
"292 -244 LINE",
"292 1459 LINE",
"218 1459 LINE",
"218 -244 LINE"
);
}
);
width = 509.775;
},
{
layerId = "54E4F05E-05D2-4398-A473-3C5492C75DBF";
paths = (
{
closed = 1;
nodes = (
"489 -244 LINE",
"489 1582 LINE",
"169 1582 LINE",
"169 -244 LINE"
);
}
);
width = 660.45;
}
);
unicode = 007C;
},
{
glyphname = bracketleft;
lastChange = "2019-05-14 17:00:04 +0000";
layers = (
{
layerId = "CE2138A5-93BA-4A69-8B69-7D34CC27D2DF";
paths = (
{
closed = 1;
nodes = (
"510 -120 LINE",
"510 -60 LINE",
"292 -60 LINE",
"292 1277 LINE",
"510 1277 LINE",
"510 1337 LINE",
"218 1337 LINE",
"218 -120 LINE"
);
}
);
width = 558.2;
},
{
layerId = "54E4F05E-05D2-4398-A473-3C5492C75DBF";
paths = (
{
closed = 1;
nodes = (
"768 -366 LINE",
"768 -72 LINE",
"489 -72 LINE",
"489 1412 LINE",
"768 1412 LINE",
"768 1706 LINE",
"169 1706 LINE",
"169 -366 LINE"
);
}
);
width = 779.6;
}
);
unicode = 005B;
},
{
glyphname = asciicircum;
lastChange = "2019-05-14 17:00:04 +0000";
layers = (
{
layerId = "CE2138A5-93BA-4A69-8B69-7D34CC27D2DF";
paths = (
{
closed = 1;
nodes = (
"134 545 LINE",
"386 1067 LINE",
"360 1067 LINE",
"616 545 LINE",
"702 545 LINE",
"399 1137 LINE",
"347 1137 LINE",
"44 545 LINE"
);
}
);
width = 725.95;
},
{
layerId = "54E4F05E-05D2-4398-A473-3C5492C75DBF";
paths = (
{
closed = 1;
nodes = (
"386 379 LINE",
"675 1005 LINE",
"551 1005 LINE",
"838 379 LINE",
"1188 379 LINE",
"744 1242 LINE",
"482 1242 LINE",
"38 379 LINE"
);
}
);
width = 1224.1;
}
);
unicode = 005E;
},
{
glyphname = braceleft;
lastChange = "2019-05-14 17:00:04 +0000";
layers = (
{
layerId = "CE2138A5-93BA-4A69-8B69-7D34CC27D2DF";
paths = (
{
closed = 1;
nodes = (
"584 -179 LINE",
"388 -179 OFFCURVE",
"326 -38 OFFCURVE",
"326 194 CURVE SMOOTH",
"326 374 LINE SMOOTH",
"326 494 OFFCURVE",
"298 551 OFFCURVE",
"251 577 CURVE",
"251 579 LINE",
"298 605 OFFCURVE",
"326 663 OFFCURVE",
"326 783 CURVE SMOOTH",
"326 963 LINE SMOOTH",
"326 1195 OFFCURVE",
"388 1336 OFFCURVE",
"584 1336 CURVE",
"584 1398 LINE",
"329 1398 OFFCURVE",
"254 1212 OFFCURVE",
"254 962 CURVE SMOOTH",
"254 778 LINE SMOOTH",
"254 658 OFFCURVE",
"228 608 OFFCURVE",
"176 608 CURVE SMOOTH",
"158 608 LINE",
"158 544 LINE",
"176 544 LINE SMOOTH",
"228 544 OFFCURVE",
"254 496 OFFCURVE",
"254 374 CURVE SMOOTH",
"254 192 LINE SMOOTH",
"254 -53 OFFCURVE",
"329 -239 OFFCURVE",
"584 -239 CURVE"
);
}
);
width = 607.85;
},
{
layerId = "54E4F05E-05D2-4398-A473-3C5492C75DBF";
paths = (
{
closed = 1;
nodes = (
"873 -56 LINE",
"677 -56 OFFCURVE",
"578 11 OFFCURVE",
"578 194 CURVE SMOOTH",
"578 392 LINE SMOOTH",
"578 524 OFFCURVE",
"507 619 OFFCURVE",
"417 663 CURVE",
"417 678 LINE",
"507 722 OFFCURVE",
"578 817 OFFCURVE",
"578 949 CURVE SMOOTH",
"578 1147 LINE SMOOTH",
"578 1330 OFFCURVE",
"677 1397 OFFCURVE",
"873 1397 CURVE",
"873 1687 LINE",
"452 1687 OFFCURVE",
"260 1470 OFFCURVE",
"260 1153 CURVE SMOOTH",
"260 969 LINE SMOOTH",
"260 861 OFFCURVE",
"252 836 OFFCURVE",
"200 836 CURVE SMOOTH",
"134 836 LINE",
"134 507 LINE",
"200 507 LINE SMOOTH",
"252 507 OFFCURVE",
"260 478 OFFCURVE",
"260 374 CURVE SMOOTH",
"260 192 LINE SMOOTH",
"260 -127 OFFCURVE",
"452 -350 OFFCURVE",
"873 -350 CURVE"
);
}
);
width = 872.3;
}
);
unicode = 007B;
},
{
glyphname = asciitilde;
lastChange = "2019-05-14 17:00:04 +0000";
layers = (
{
anchors = (
{
name = _above;
position = "{511, 379}";
}
);
layerId = "CE2138A5-93BA-4A69-8B69-7D34CC27D2DF";
paths = (
{
closed = 1;
nodes = (
"181 573 OFFCURVE",
"223 599 OFFCURVE",
"263 599 CURVE SMOOTH",
"299 599 OFFCURVE",
"331 587 OFFCURVE",
"449 541 CURVE SMOOTH",
"551 501 OFFCURVE",
"605 485 OFFCURVE",
"641 485 CURVE SMOOTH",
"712 485 OFFCURVE",
"776 528 OFFCURVE",
"817 650 CURVE",
"776 677 LINE",
"740 597 OFFCURVE",
"690 559 OFFCURVE",
"642 559 CURVE SMOOTH",
"607 559 OFFCURVE",
"577 565 OFFCURVE",
"452 615 CURVE SMOOTH",
"346 657 OFFCURVE",
"306 671 OFFCURVE",
"269 671 CURVE SMOOTH",
"206 671 OFFCURVE",
"140 624 OFFCURVE",
"98 508 CURVE",
"143 485 LINE"
);
}
);
width = 916.25;
},
{
anchors = (
{
name = _above;
position = "{616, 293}";
}
);
layerId = "54E4F05E-05D2-4398-A473-3C5492C75DBF";
paths = (
{
closed = 1;
nodes = (
"322 456 OFFCURVE",
"364 494 OFFCURVE",
"423 494 CURVE SMOOTH",
"465 494 OFFCURVE",
"509 476 OFFCURVE",
"596 449 CURVE SMOOTH",
"692 408 OFFCURVE",
"759 393 OFFCURVE",
"807 393 CURVE SMOOTH",
"958 393 OFFCURVE",
"1071 498 OFFCURVE",
"1131 693 CURVE",
"961 800 LINE",
"931 732 OFFCURVE",
"887 694 OFFCURVE",
"833 694 CURVE SMOOTH",
"791 694 OFFCURVE",
"737 712 OFFCURVE",
"655 744 CURVE SMOOTH",
"562 780 OFFCURVE",
"491 800 OFFCURVE",
"422 800 CURVE SMOOTH",
"255 800 OFFCURVE",
"171 661 OFFCURVE",
"122 459 CURVE",
"290 368 LINE"
);
}
);
width = 1254.5;
}
);
unicode = 007E;
},
{
glyphname = zero.propold;
lastChange = "2019-05-20 19:47:47 +0000";
layers = (
{
layerId = "CE2138A5-93BA-4A69-8B69-7D34CC27D2DF";
paths = (
{
closed = 1;
nodes = (
"264 1032 OFFCURVE",
"110 873 OFFCURVE",
"110 509 CURVE SMOOTH",
"110 143 OFFCURVE",
"264 -20 OFFCURVE",
"489 -20 CURVE SMOOTH",
"714 -20 OFFCURVE",
"874 143 OFFCURVE",
"874 509 CURVE SMOOTH",
"874 873 OFFCURVE",
"714 1032 OFFCURVE",
"489 1032 CURVE SMOOTH"
);
},
{
closed = 1;
nodes = (
"702 970 OFFCURVE",
"794 802 OFFCURVE",
"794 509 CURVE SMOOTH",
"794 217 OFFCURVE",
"702 44 OFFCURVE",
"489 44 CURVE SMOOTH",
"282 44 OFFCURVE",
"190 217 OFFCURVE",
"190 509 CURVE SMOOTH",
"190 802 OFFCURVE",
"282 970 OFFCURVE",
"489 970 CURVE SMOOTH"
);
}
);
width = 981.05;
},
{
layerId = "54E4F05E-05D2-4398-A473-3C5492C75DBF";
paths = (
{
closed = 1;
nodes = (
"307 1235 OFFCURVE",
"86 996 OFFCURVE",
"86 602 CURVE SMOOTH",
"86 205 OFFCURVE",
"307 -32 OFFCURVE",
"612 -32 CURVE SMOOTH",
"917 -32 OFFCURVE",
"1132 205 OFFCURVE",
"1132 602 CURVE SMOOTH",
"1132 996 OFFCURVE",
"917 1235 OFFCURVE",
"612 1235 CURVE SMOOTH"
);
},
{
closed = 1;
nodes = (
"745 946 OFFCURVE",
"818 845 OFFCURVE",
"818 602 CURVE SMOOTH",
"818 358 OFFCURVE",
"745 260 OFFCURVE",
"612 260 CURVE SMOOTH",
"479 260 OFFCURVE",
"405 358 OFFCURVE",
"405 602 CURVE SMOOTH",
"405 845 OFFCURVE",
"479 946 OFFCURVE",
"612 946 CURVE SMOOTH"
);
}
);
width = 1220.9;
}
);
},
{
glyphname = one.propold;
lastChange = "2019-05-20 19:47:54 +0000";
layers = (
{
layerId = "CE2138A5-93BA-4A69-8B69-7D34CC27D2DF";
paths = (
{
closed = 1;
nodes = (
"262 961 OFFCURVE",
"186 929 OFFCURVE",
"108 915 CURVE",
"108 838 LINE",
"180 844 OFFCURVE",
"256 875 OFFCURVE",
"314 929 CURVE",
"314 0 LINE",
"388 0 LINE",
"388 1016 LINE",
"316 1016 LINE"
);
}
);
width = 607.7;
},
{
layerId = "54E4F05E-05D2-4398-A473-3C5492C75DBF";
paths = (
{
closed = 1;
nodes = (
"256 1133 OFFCURVE",
"168 1107 OFFCURVE",
"71 1099 CURVE",
"71 795 LINE",
"137 795 OFFCURVE",
"201 801 OFFCURVE",
"277 824 CURVE",
"277 0 LINE",
"597 0 LINE",
"597 1207 LINE",
"365 1207 LINE"
);
}
);
width = 767.6;
}
);
},
{
glyphname = two.propold;
lastChange = "2019-05-20 19:47:57 +0000";
layers = (
{
layerId = "CE2138A5-93BA-4A69-8B69-7D34CC27D2DF";
paths = (
{
closed = 1;
nodes = (
"928 0 LINE",
"928 70 LINE",
"210 70 LINE",
"210 155 LINE SMOOTH",
"210 271 OFFCURVE",
"272 372 OFFCURVE",
"441 408 CURVE SMOOTH",
"675 460 LINE SMOOTH",
"845 502 OFFCURVE",
"941 580 OFFCURVE",
"941 735 CURVE SMOOTH",
"941 884 OFFCURVE",
"789 1032 OFFCURVE",
"565 1032 CURVE SMOOTH",
"316 1032 OFFCURVE",
"180 916 OFFCURVE",
"158 751 CURVE",
"242 751 LINE",
"258 894 OFFCURVE",
"381 964 OFFCURVE",
"565 964 CURVE SMOOTH",
"752 964 OFFCURVE",
"863 864 OFFCURVE",
"863 749 CURVE SMOOTH",
"863 623 OFFCURVE",
"780 557 OFFCURVE",
"646 529 CURVE SMOOTH",
"424 479 LINE SMOOTH",
"232 439 OFFCURVE",
"136 341 OFFCURVE",
"136 139 CURVE SMOOTH",
"136 0 LINE"
);
}
);
width = 1106.975;
},
{
layerId = "54E4F05E-05D2-4398-A473-3C5492C75DBF";
paths = (
{
closed = 1;
nodes = (
"1137 0 LINE",
"1137 292 LINE",
"432 292 LINE",
"432 321 LINE SMOOTH",
"432 363 OFFCURVE",
"469 384 OFFCURVE",
"552 408 CURVE SMOOTH",
"749 460 LINE SMOOTH",
"1017 526 OFFCURVE",
"1119 641 OFFCURVE",
"1119 846 CURVE SMOOTH",
"1119 1075 OFFCURVE",
"930 1235 OFFCURVE",
"639 1235 CURVE SMOOTH",
"353 1235 OFFCURVE",
"131 1113 OFFCURVE",
"134 825 CURVE",
"488 825 LINE",
"498 918 OFFCURVE",
"565 958 OFFCURVE",
"658 958 CURVE SMOOTH",
"746 958 OFFCURVE",
"801 907 OFFCURVE",
"801 841 CURVE SMOOTH",
"801 764 OFFCURVE",
"762 711 OFFCURVE",
"609 670 CURVE SMOOTH",
"436 626 LINE SMOOTH",
"214 568 OFFCURVE",
"112 464 OFFCURVE",
"112 225 CURVE SMOOTH",
"112 0 LINE"
);
}
);
width = 1233.05;
}
);
},
{
glyphname = three.propold;
lastChange = "2019-05-20 19:48:00 +0000";
layers = (
{
layerId = "CE2138A5-93BA-4A69-8B69-7D34CC27D2DF";
paths = (
{
closed = 1;
nodes = (
"745 -218 OFFCURVE",
"920 -76 OFFCURVE",
"920 128 CURVE SMOOTH",
"920 294 OFFCURVE",
"804 434 OFFCURVE",
"642 471 CURVE",
"782 521 OFFCURVE",
"868 591 OFFCURVE",
"868 723 CURVE SMOOTH",
"868 905 OFFCURVE",
"709 1032 OFFCURVE",
"487 1032 CURVE SMOOTH",
"312 1032 OFFCURVE",
"157 963 OFFCURVE",
"119 760 CURVE",
"192 760 LINE",
"237 916 OFFCURVE",
"349 964 OFFCURVE",
"487 964 CURVE SMOOTH",
"678 964 OFFCURVE",
"786 864 OFFCURVE",
"786 723 CURVE SMOOTH",
"786 565 OFFCURVE",
"644 491 OFFCURVE",
"407 491 CURVE SMOOTH",
"362 491 LINE",
"362 430 LINE",
"467 430 LINE SMOOTH",
"742 430 OFFCURVE",
"840 280 OFFCURVE",
"840 127 CURVE SMOOTH",
"840 -29 OFFCURVE",
"692 -147 OFFCURVE",
"485 -147 CURVE SMOOTH",
"283 -147 OFFCURVE",
"144 -47 OFFCURVE",
"146 162 CURVE",
"72 162 LINE",
"72 -88 OFFCURVE",
"252 -218 OFFCURVE",
"485 -218 CURVE SMOOTH"
);
}
);
width = 1065.625;
},
{
layerId = "54E4F05E-05D2-4398-A473-3C5492C75DBF";
paths = (
{
closed = 1;
nodes = (
"899 -249 OFFCURVE",
"1111 -58 OFFCURVE",
"1111 189 CURVE SMOOTH",
"1111 355 OFFCURVE",
"1032 489 OFFCURVE",
"870 564 CURVE",
"998 620 OFFCURVE",
"1071 720 OFFCURVE",
"1071 858 CURVE SMOOTH",
"1071 1071 OFFCURVE",
"887 1235 OFFCURVE",
"573 1235 CURVE SMOOTH",
"263 1235 OFFCURVE",
"65 1117 OFFCURVE",
"39 815 CURVE",
"383 815 LINE",
"384 898 OFFCURVE",
"466 970 OFFCURVE",
"580 970 CURVE SMOOTH",
"684 970 OFFCURVE",
"756 907 OFFCURVE",
"756 822 CURVE SMOOTH",
"756 725 OFFCURVE",
"687 657 OFFCURVE",
"579 657 CURVE SMOOTH",
"417 657 LINE",
"417 406 LINE",
"566 406 LINE SMOOTH",
"693 406 OFFCURVE",
"791 335 OFFCURVE",
"791 220 CURVE SMOOTH",
"791 100 OFFCURVE",
"704 19 OFFCURVE",
"578 19 CURVE SMOOTH",
"461 19 OFFCURVE",
"366 70 OFFCURVE",
"349 205 CURVE",
"23 205 LINE",
"23 -112 OFFCURVE",
"295 -249 OFFCURVE",
"578 -249 CURVE SMOOTH"
);
}
);
width = 1234.75;
}
);
},
{
glyphname = four.propold;
lastChange = "2019-05-20 19:48:04 +0000";
layers = (
{
layerId = "CE2138A5-93BA-4A69-8B69-7D34CC27D2DF";
paths = (
{
closed = 1;
nodes = (
"770 -204 LINE",
"770 118 LINE",
"982 118 LINE",
"982 181 LINE",
"770 181 LINE",
"770 1031 LINE",
"712 1031 LINE",
"60 179 LINE",
"60 118 LINE",
"698 118 LINE",
"698 -204 LINE"
);
},
{
closed = 1;
nodes = (
"702 891 LINE",
"702 179 LINE",
"148 179 LINE"
);
}
);
width = 1042.15;
},
{
layerId = "54E4F05E-05D2-4398-A473-3C5492C75DBF";
paths = (
{
closed = 1;
nodes = (
"1016 -222 LINE",
"1016 88 LINE",
"1246 88 LINE",
"1246 365 LINE",
"1016 365 LINE",
"1016 1209 LINE",
"694 1209 LINE",
"23 326 LINE",
"23 88 LINE",
"692 88 LINE",
"692 -222 LINE"
);
},
{
closed = 1;
nodes = (
"708 756 LINE",
"708 326 LINE",
"370 326 LINE"
);
}
);
width = 1269.7;
}
);
},
{
glyphname = five.propold;
lastChange = "2019-05-20 19:48:07 +0000";
layers = (
{
layerId = "CE2138A5-93BA-4A69-8B69-7D34CC27D2DF";
paths = (
{
closed = 1;
nodes = (
"767 -218 OFFCURVE",
"948 -42 OFFCURVE",
"948 190 CURVE SMOOTH",
"948 427 OFFCURVE",
"779 567 OFFCURVE",
"505 567 CURVE SMOOTH",
"439 567 OFFCURVE",
"359 559 OFFCURVE",
"295 547 CURVE",
"315 531 LINE",
"361 986 LINE",
"341 946 LINE",
"897 946 LINE",
"897 1014 LINE",
"285 1014 LINE",
"235 500 LINE",
"510 500 LINE SMOOTH",
"744 500 OFFCURVE",
"866 378 OFFCURVE",
"866 190 CURVE SMOOTH",
"866 3 OFFCURVE",
"720 -148 OFFCURVE",
"505 -148 CURVE SMOOTH",
"329 -148 OFFCURVE",
"218 -57 OFFCURVE",
"218 111 CURVE",
"146 111 LINE",
"146 -102 OFFCURVE",
"314 -218 OFFCURVE",
"507 -218 CURVE SMOOTH"
);
}
);
width = 1094.975;
},
{
layerId = "54E4F05E-05D2-4398-A473-3C5492C75DBF";
paths = (
{
closed = 1;
nodes = (
"902 -249 OFFCURVE",
"1139 -42 OFFCURVE",
"1139 251 CURVE SMOOTH",
"1139 520 OFFCURVE",
"957 702 OFFCURVE",
"677 702 CURVE SMOOTH",
"599 702 OFFCURVE",
"543 694 OFFCURVE",
"473 670 CURVE",
"487 648 LINE",
"521 1010 LINE",
"464 946 LINE",
"1063 946 LINE",
"1063 1236 LINE",
"223 1236 LINE",
"155 451 LINE",
"571 451 LINE SMOOTH",
"744 451 OFFCURVE",
"823 378 OFFCURVE",
"823 251 CURVE SMOOTH",
"823 120 OFFCURVE",
"726 43 OFFCURVE",
"610 43 CURVE SMOOTH",
"495 43 OFFCURVE",
"415 103 OFFCURVE",
"415 222 CURVE",
"97 222 LINE",
"97 -84 OFFCURVE",
"338 -249 OFFCURVE",
"600 -249 CURVE SMOOTH"
);
}
);
width = 1221.05;
}
);
},
{
glyphname = seven.propold;
lastChange = "2019-05-20 19:48:13 +0000";
layers = (
{
layerId = "CE2138A5-93BA-4A69-8B69-7D34CC27D2DF";
paths = (
{
closed = 1;
nodes = (
"48 964 LINE",
"759 964 LINE",
"149 -184 LINE",
"243 -184 LINE",
"847 970 LINE",
"847 1032 LINE",
"48 1032 LINE"
);
}
);
width = 881.6;
},
{
layerId = "54E4F05E-05D2-4398-A473-3C5492C75DBF";
paths = (
{
closed = 1;
nodes = (
"48 958 LINE",
"697 958 LINE",
"32 -221 LINE",
"421 -221 LINE",
"1019 958 LINE",
"1019 1235 LINE",
"48 1235 LINE"
);
}
);
width = 1053.8;
}
);
},
{
glyphname = eight.propold;
lastChange = "2019-05-20 19:48:16 +0000";
layers = (
{
layerId = "CE2138A5-93BA-4A69-8B69-7D34CC27D2DF";
paths = (
{
closed = 1;
nodes = (
"870 -20 OFFCURVE",
"1042 104 OFFCURVE",
"1042 283 CURVE SMOOTH",
"1042 435 OFFCURVE",
"944 519 OFFCURVE",
"766 585 CURVE SMOOTH",
"457 701 LINE SMOOTH",
"327 747 OFFCURVE",
"244 805 OFFCURVE",
"244 920 CURVE SMOOTH",
"244 1050 OFFCURVE",
"387 1163 OFFCURVE",
"581 1163 CURVE SMOOTH",
"780 1163 OFFCURVE",
"914 1050 OFFCURVE",
"914 908 CURVE SMOOTH",
"914 751 OFFCURVE",
"778 643 OFFCURVE",
"585 643 CURVE",
"585 611 LINE",
"609 605 OFFCURVE",
"631 605 OFFCURVE",
"652 605 CURVE SMOOTH",
"880 605 OFFCURVE",
"992 745 OFFCURVE",
"992 907 CURVE SMOOTH",
"992 1091 OFFCURVE",
"829 1231 OFFCURVE",
"581 1231 CURVE SMOOTH",
"322 1231 OFFCURVE",
"162 1093 OFFCURVE",
"162 921 CURVE SMOOTH",
"162 766 OFFCURVE",
"302 676 OFFCURVE",
"420 632 CURVE SMOOTH",
"741 510 LINE SMOOTH",
"876 464 OFFCURVE",
"960 398 OFFCURVE",
"960 283 CURVE SMOOTH",
"960 143 OFFCURVE",
"805 50 OFFCURVE",
"581 50 CURVE SMOOTH",
"361 50 OFFCURVE",
"200 145 OFFCURVE",
"200 325 CURVE SMOOTH",
"200 470 OFFCURVE",
"347 607 OFFCURVE",
"577 607 CURVE",
"577 640 LINE",
"558 644 OFFCURVE",
"532 642 OFFCURVE",
"513 642 CURVE SMOOTH",
"284 642 OFFCURVE",
"122 522 OFFCURVE",
"122 326 CURVE SMOOTH",
"122 126 OFFCURVE",
"324 -20 OFFCURVE",
"581 -20 CURVE SMOOTH"
);
}
);
width = 1163.4;
},
{
layerId = "54E4F05E-05D2-4398-A473-3C5492C75DBF";
paths = (
{
closed = 1;
nodes = (
"1061 -32 OFFCURVE",
"1276 141 OFFCURVE",
"1276 376 CURVE SMOOTH",
"1276 558 OFFCURVE",
"1166 642 OFFCURVE",
"969 720 CURVE SMOOTH",
"550 885 LINE SMOOTH",
"487 913 OFFCURVE",
"460 940 OFFCURVE",
"460 981 CURVE SMOOTH",
"460 1044 OFFCURVE",
"559 1083 OFFCURVE",
"680 1083 CURVE SMOOTH",
"810 1083 OFFCURVE",
"902 1038 OFFCURVE",
"902 951 CURVE SMOOTH",
"902 874 OFFCURVE",
"796 827 OFFCURVE",
"696 827 CURVE",
"696 740 LINE",
"769 716 OFFCURVE",
"815 704 OFFCURVE",
"880 704 CURVE SMOOTH",
"1096 704 OFFCURVE",
"1232 831 OFFCURVE",
"1232 975 CURVE SMOOTH",
"1232 1208 OFFCURVE",
"982 1372 OFFCURVE",
"680 1372 CURVE SMOOTH",
"328 1372 OFFCURVE",
"132 1234 OFFCURVE",
"132 995 CURVE SMOOTH",
"132 790 OFFCURVE",
"314 670 OFFCURVE",
"457 614 CURVE SMOOTH",
"852 461 LINE SMOOTH",
"913 434 OFFCURVE",
"948 398 OFFCURVE",
"948 357 CURVE SMOOTH",
"948 303 OFFCURVE",
"879 259 OFFCURVE",
"680 259 CURVE SMOOTH",
"539 259 OFFCURVE",
"415 317 OFFCURVE",
"415 399 CURVE SMOOTH",
"415 476 OFFCURVE",
"525 533 OFFCURVE",
"663 533 CURVE",
"663 603 LINE",
"576 626 OFFCURVE",
"526 642 OFFCURVE",
"451 642 CURVE SMOOTH",
"247 642 OFFCURVE",
"85 540 OFFCURVE",
"85 363 CURVE SMOOTH",
"85 138 OFFCURVE",
"306 -32 OFFCURVE",
"680 -32 CURVE SMOOTH"
);
}
);
width = 1360.2;
}
);
},
{
glyphname = nine.propold;
lastChange = "2019-05-20 19:48:20 +0000";
layers = (
{
layerId = "CE2138A5-93BA-4A69-8B69-7D34CC27D2DF";
paths = (
{
closed = 1;
nodes = (
"857 -218 OFFCURVE",
"988 30 OFFCURVE",
"988 433 CURVE SMOOTH",
"988 804 OFFCURVE",
"806 1032 OFFCURVE",
"542 1032 CURVE SMOOTH",
"310 1032 OFFCURVE",
"159 893 OFFCURVE",
"159 673 CURVE SMOOTH",
"159 455 OFFCURVE",
"330 298 OFFCURVE",
"540 298 CURVE SMOOTH",
"744 298 OFFCURVE",
"880 430 OFFCURVE",
"894 638 CURVE",
"904 570 OFFCURVE",
"906 522 OFFCURVE",
"906 456 CURVE SMOOTH",
"906 83 OFFCURVE",
"796 -148 OFFCURVE",
"539 -148 CURVE SMOOTH",
"347 -148 OFFCURVE",
"236 -27 OFFCURVE",
"238 160 CURVE",
"160 160 LINE",
"160 -56 OFFCURVE",
"314 -218 OFFCURVE",
"539 -218 CURVE SMOOTH"
);
},
{
closed = 1;
nodes = (
"363 378 OFFCURVE",
"237 491 OFFCURVE",
"237 673 CURVE SMOOTH",
"237 858 OFFCURVE",
"361 964 OFFCURVE",
"542 964 CURVE SMOOTH",
"714 964 OFFCURVE",
"843 858 OFFCURVE",
"843 673 CURVE SMOOTH",
"843 513 OFFCURVE",
"716 378 OFFCURVE",
"540 378 CURVE SMOOTH"
);
}
);
width = 1098.525;
},
{
layerId = "54E4F05E-05D2-4398-A473-3C5492C75DBF";
paths = (
{
closed = 1;
nodes = (
"937 -249 OFFCURVE",
"1197 24 OFFCURVE",
"1197 495 CURVE SMOOTH",
"1197 835 OFFCURVE",
"1009 1235 OFFCURVE",
"591 1235 CURVE SMOOTH",
"292 1235 OFFCURVE",
"79 1034 OFFCURVE",
"79 778 CURVE SMOOTH",
"79 523 OFFCURVE",
"281 341 OFFCURVE",
"540 341 CURVE SMOOTH",
"701 341 OFFCURVE",
"843 436 OFFCURVE",
"876 632 CURVE",
"880 601 OFFCURVE",
"882 553 OFFCURVE",
"882 511 CURVE SMOOTH",
"882 224 OFFCURVE",
"796 43 OFFCURVE",
"607 43 CURVE SMOOTH",
"507 43 OFFCURVE",
"452 90 OFFCURVE",
"441 178 CURVE",
"105 178 LINE",
"105 -80 OFFCURVE",
"326 -249 OFFCURVE",
"607 -249 CURVE SMOOTH"
);
},
{
closed = 1;
nodes = (
"474 594 OFFCURVE",
"409 675 OFFCURVE",
"409 778 CURVE SMOOTH",
"409 870 OFFCURVE",
"472 958 OFFCURVE",
"591 958 CURVE SMOOTH",
"714 958 OFFCURVE",
"781 870 OFFCURVE",
"781 778 CURVE SMOOTH",
"781 673 OFFCURVE",
"716 594 OFFCURVE",
"595 594 CURVE SMOOTH"
);
}
);
width = 1279.95;
}
);
},
{
glyphname = zero.tf;
lastChange = "2019-05-14 17:00:04 +0000";
layers = (
{
layerId = "CE2138A5-93BA-4A69-8B69-7D34CC27D2DF";
paths = (
{
closed = 1;
nodes = (
"871 -20 OFFCURVE",
"1045 192 OFFCURVE",
"1045 608 CURVE SMOOTH",
"1045 1021 OFFCURVE",
"871 1231 OFFCURVE",
"600 1231 CURVE SMOOTH",
"327 1231 OFFCURVE",
"155 1021 OFFCURVE",
"155 608 CURVE SMOOTH",
"155 192 OFFCURVE",
"327 -20 OFFCURVE",
"600 -20 CURVE SMOOTH"
);
},
{
closed = 1;
nodes = (
"357 50 OFFCURVE",
"235 257 OFFCURVE",
"235 608 CURVE SMOOTH",
"235 958 OFFCURVE",
"357 1163 OFFCURVE",
"600 1163 CURVE SMOOTH",
"845 1163 OFFCURVE",
"965 958 OFFCURVE",
"965 608 CURVE SMOOTH",
"965 257 OFFCURVE",
"845 50 OFFCURVE",
"600 50 CURVE SMOOTH"
);
}
);
width = 1200;
},
{
layerId = "54E4F05E-05D2-4398-A473-3C5492C75DBF";
paths = (
{
closed = 1;
nodes = (
"939 -32 OFFCURVE",
"1186 192 OFFCURVE",
"1186 669 CURVE SMOOTH",
"1186 1150 OFFCURVE",
"939 1372 OFFCURVE",
"600 1372 CURVE SMOOTH",
"259 1372 OFFCURVE",
"14 1150 OFFCURVE",
"14 669 CURVE SMOOTH",
"14 192 OFFCURVE",
"259 -32 OFFCURVE",
"600 -32 CURVE SMOOTH"
);
},
{
closed = 1;
nodes = (
"443 259 OFFCURVE",
"340 398 OFFCURVE",
"340 669 CURVE SMOOTH",
"340 940 OFFCURVE",
"443 1083 OFFCURVE",
"600 1083 CURVE SMOOTH",
"759 1083 OFFCURVE",
"860 940 OFFCURVE",
"860 669 CURVE SMOOTH",
"860 398 OFFCURVE",
"759 259 OFFCURVE",
"600 259 CURVE SMOOTH"
);
}
);
width = 1200;
}
);
},
{
glyphname = one.tf;
lastChange = "2019-05-14 17:00:04 +0000";
layers = (
{
layerId = "CE2138A5-93BA-4A69-8B69-7D34CC27D2DF";
paths = (
{
closed = 1;
nodes = (
"901 0 LINE",
"901 69 LINE",
"626 69 LINE",
"637 59 LINE",
"637 1213 LINE",
"562 1213 LINE",
"511 1159 OFFCURVE",
"437 1129 OFFCURVE",
"357 1115 CURVE",
"357 1039 LINE",
"447 1045 OFFCURVE",
"545 1091 OFFCURVE",
"605 1176 CURVE",
"563 1175 LINE",
"563 59 LINE",
"572 69 LINE",
"299 69 LINE",
"299 0 LINE"
);
}
);
width = 1200;
},
{
layerId = "54E4F05E-05D2-4398-A473-3C5492C75DBF";
paths = (
{
closed = 1;
nodes = (
"1006 0 LINE",
"1006 241 LINE",
"675 241 LINE",
"766 152 LINE",
"766 1354 LINE",
"532 1354 LINE",
"425 1282 OFFCURVE",
"332 1252 OFFCURVE",
"240 1244 CURVE",
"240 940 LINE",
"324 940 OFFCURVE",
"404 956 OFFCURVE",
"519 991 CURVE",
"446 1058 LINE",
"446 152 LINE",
"535 241 LINE",
"207 241 LINE",
"207 0 LINE"
);
}
);
width = 1200;
}
);
},
{
glyphname = two.tf;
lastChange = "2019-05-14 17:00:04 +0000";
layers = (
{
layerId = "CE2138A5-93BA-4A69-8B69-7D34CC27D2DF";
paths = (
{
closed = 1;
nodes = (
"989 0 LINE",
"989 70 LINE",
"275 70 LINE",
"275 153 LINE SMOOTH",
"275 296 OFFCURVE",
"356 376 OFFCURVE",
"508 440 CURVE SMOOTH",
"750 540 LINE SMOOTH",
"885 602 OFFCURVE",
"1005 706 OFFCURVE",
"1005 894 CURVE SMOOTH",
"1005 1085 OFFCURVE",
"852 1231 OFFCURVE",
"626 1231 CURVE SMOOTH",
"376 1231 OFFCURVE",
"241 1117 OFFCURVE",
"223 948 CURVE",
"303 948 LINE",
"323 1092 OFFCURVE",
"443 1163 OFFCURVE",
"626 1163 CURVE SMOOTH",
"811 1163 OFFCURVE",
"925 1060 OFFCURVE",
"925 904 CURVE SMOOTH",
"925 759 OFFCURVE",
"847 669 OFFCURVE",
"706 611 CURVE SMOOTH",
"477 517 LINE SMOOTH",
"328 455 OFFCURVE",
"201 367 OFFCURVE",
"201 149 CURVE SMOOTH",
"201 0 LINE"
);
}
);
width = 1200;
},
{
layerId = "54E4F05E-05D2-4398-A473-3C5492C75DBF";
paths = (
{
closed = 1;
nodes = (
"1136 0 LINE",
"1136 292 LINE",
"380 292 LINE",
"380 307 LINE SMOOTH",
"380 351 OFFCURVE",
"405 376 OFFCURVE",
"484 403 CURVE SMOOTH",
"768 510 LINE SMOOTH",
"1039 608 OFFCURVE",
"1140 743 OFFCURVE",
"1140 949 CURVE SMOOTH",
"1140 1208 OFFCURVE",
"907 1372 OFFCURVE",
"626 1372 CURVE SMOOTH",
"333 1372 OFFCURVE",
"81 1234 OFFCURVE",
"82 918 CURVE",
"438 918 LINE",
"446 1031 OFFCURVE",
"529 1095 OFFCURVE",
"632 1095 CURVE SMOOTH",
"743 1095 OFFCURVE",
"796 1030 OFFCURVE",
"796 959 CURVE SMOOTH",
"796 882 OFFCURVE",
"755 829 OFFCURVE",
"651 789 CURVE SMOOTH",
"366 683 LINE SMOOTH",
"143 596 OFFCURVE",
"60 478 OFFCURVE",
"60 260 CURVE SMOOTH",
"60 0 LINE"
);
}
);
width = 1200;
}
);
},
{
glyphname = three.tf;
lastChange = "2019-05-14 17:00:04 +0000";
layers = (
{
layerId = "CE2138A5-93BA-4A69-8B69-7D34CC27D2DF";
paths = (
{
closed = 1;
nodes = (
"865 -20 OFFCURVE",
"1013 126 OFFCURVE",
"1013 328 CURVE SMOOTH",
"1013 496 OFFCURVE",
"894 598 OFFCURVE",
"730 635 CURVE",
"874 688 OFFCURVE",
"957 777 OFFCURVE",
"957 909 CURVE SMOOTH",
"957 1095 OFFCURVE",
"797 1231 OFFCURVE",
"582 1231 CURVE SMOOTH",
"403 1231 OFFCURVE",
"245 1161 OFFCURVE",
"209 960 CURVE",
"281 960 LINE",
"325 1119 OFFCURVE",
"440 1163 OFFCURVE",
"582 1163 CURVE SMOOTH",
"764 1163 OFFCURVE",
"877 1050 OFFCURVE",
"877 910 CURVE SMOOTH",
"877 749 OFFCURVE",
"730 655 OFFCURVE",
"495 655 CURVE SMOOTH",
"448 655 LINE",
"448 594 LINE",
"561 594 LINE SMOOTH",
"833 594 OFFCURVE",
"933 478 OFFCURVE",
"933 329 CURVE SMOOTH",
"933 171 OFFCURVE",
"811 50 OFFCURVE",
"604 50 CURVE SMOOTH",
"406 50 OFFCURVE",
"235 151 OFFCURVE",
"235 359 CURVE",
"163 359 LINE",
"163 114 OFFCURVE",
"370 -20 OFFCURVE",
"604 -20 CURVE SMOOTH"
);
}
);
width = 1200;
},
{
layerId = "54E4F05E-05D2-4398-A473-3C5492C75DBF";
paths = (
{
closed = 1;
nodes = (
"945 -32 OFFCURVE",
"1179 138 OFFCURVE",
"1179 383 CURVE SMOOTH",
"1179 533 OFFCURVE",
"1085 641 OFFCURVE",
"933 703 CURVE",
"1071 749 OFFCURVE",
"1141 857 OFFCURVE",
"1141 989 CURVE SMOOTH",
"1141 1218 OFFCURVE",
"908 1372 OFFCURVE",
"594 1372 CURVE SMOOTH",
"280 1372 OFFCURVE",
"61 1235 OFFCURVE",
"37 936 CURVE",
"380 936 LINE",
"393 1039 OFFCURVE",
"495 1083 OFFCURVE",
"606 1083 CURVE SMOOTH",
"740 1083 OFFCURVE",
"797 1026 OFFCURVE",
"797 947 CURVE SMOOTH",
"797 860 OFFCURVE",
"730 802 OFFCURVE",
"624 802 CURVE SMOOTH",
"424 802 LINE",
"424 551 LINE",
"629 551 LINE SMOOTH",
"759 551 OFFCURVE",
"834 509 OFFCURVE",
"834 415 CURVE SMOOTH",
"834 324 OFFCURVE",
"749 259 OFFCURVE",
"610 259 CURVE SMOOTH",
"461 259 OFFCURVE",
"376 335 OFFCURVE",
"364 433 CURVE",
"22 433 LINE",
"22 126 OFFCURVE",
"315 -32 OFFCURVE",
"610 -32 CURVE SMOOTH"
);
}
);
width = 1200;
}
);
},
{
glyphname = four.tf;
lastChange = "2019-05-14 17:00:04 +0000";
layers = (
{
layerId = "CE2138A5-93BA-4A69-8B69-7D34CC27D2DF";
paths = (
{
closed = 1;
nodes = (
"119 385 LINE",
"119 324 LINE",
"772 324 LINE",
"761 334 LINE",
"761 0 LINE",
"831 0 LINE",
"831 334 LINE",
"823 324 LINE",
"1043 324 LINE",
"1043 385 LINE",
"821 385 LINE",
"831 375 LINE",
"831 1235 LINE",
"773 1235 LINE"
);
},
{
closed = 1;
nodes = (
"759 374 LINE",
"770 385 LINE",
"187 385 LINE",
"187 357 LINE",
"816 1165 LINE",
"759 1183 LINE"
);
}
);
width = 1200;
},
{
layerId = "54E4F05E-05D2-4398-A473-3C5492C75DBF";
paths = (
{
closed = 1;
nodes = (
"20 508 LINE",
"20 269 LINE",
"778 269 LINE",
"668 358 LINE",
"668 0 LINE",
"985 0 LINE",
"985 358 LINE",
"916 269 LINE",
"1178 269 LINE",
"1178 508 LINE",
"914 508 LINE",
"985 455 LINE",
"985 1352 LINE",
"668 1352 LINE"
);
},
{
closed = 1;
nodes = (
"685 417 LINE",
"794 508 LINE",
"310 508 LINE",
"322 437 LINE",
"761 1005 LINE",
"685 1005 LINE"
);
}
);
width = 1200;
}
);
},
{
glyphname = five.tf;
lastChange = "2019-05-14 17:00:04 +0000";
layers = (
{
layerId = "CE2138A5-93BA-4A69-8B69-7D34CC27D2DF";
paths = (
{
closed = 1;
nodes = (
"839 -20 OFFCURVE",
"993 150 OFFCURVE",
"993 379 CURVE SMOOTH",
"993 617 OFFCURVE",
"821 727 OFFCURVE",
"549 727 CURVE SMOOTH",
"485 727 OFFCURVE",
"401 723 OFFCURVE",
"337 709 CURVE",
"357 695 LINE",
"403 1186 LINE",
"386 1147 LINE",
"941 1147 LINE",
"941 1213 LINE",
"329 1213 LINE",
"277 664 LINE",
"556 664 LINE SMOOTH",
"786 664 OFFCURVE",
"913 566 OFFCURVE",
"913 379 CURVE SMOOTH",
"913 193 OFFCURVE",
"791 50 OFFCURVE",
"580 50 CURVE SMOOTH",
"403 50 OFFCURVE",
"263 141 OFFCURVE",
"263 311 CURVE",
"189 311 LINE",
"191 94 OFFCURVE",
"385 -20 OFFCURVE",
"580 -20 CURVE SMOOTH"
);
}
);
width = 1200;
},
{
layerId = "54E4F05E-05D2-4398-A473-3C5492C75DBF";
paths = (
{
closed = 1;
nodes = (
"913 -32 OFFCURVE",
"1128 187 OFFCURVE",
"1128 459 CURVE SMOOTH",
"1128 703 OFFCURVE",
"956 850 OFFCURVE",
"690 850 CURVE SMOOTH",
"626 850 OFFCURVE",
"518 840 OFFCURVE",
"454 826 CURVE",
"474 800 LINE",
"508 1131 LINE",
"447 1048 LINE",
"1052 1048 LINE",
"1052 1342 LINE",
"188 1342 LINE",
"124 615 LINE",
"580 615 LINE SMOOTH",
"731 615 OFFCURVE",
"802 560 OFFCURVE",
"802 459 CURVE SMOOTH",
"802 347 OFFCURVE",
"711 259 OFFCURVE",
"598 259 CURVE SMOOTH",
"483 259 OFFCURVE",
"398 313 OFFCURVE",
"398 428 CURVE",
"72 428 LINE",
"80 137 OFFCURVE",
"274 -32 OFFCURVE",
"598 -32 CURVE SMOOTH"
);
}
);
width = 1200;
}
);
},
{
glyphname = six.tf;
lastChange = "2019-05-14 17:00:04 +0000";
layers = (
{
layerId = "CE2138A5-93BA-4A69-8B69-7D34CC27D2DF";
paths = (
{
closed = 1;
nodes = (
"831 -20 OFFCURVE",
"983 126 OFFCURVE",
"983 344 CURVE SMOOTH",
"983 563 OFFCURVE",
"809 715 OFFCURVE",
"601 715 CURVE SMOOTH",
"419 715 OFFCURVE",
"249 623 OFFCURVE",
"245 336 CURVE",
"237 407 OFFCURVE",
"235 497 OFFCURVE",
"235 557 CURVE SMOOTH",
"235 932 OFFCURVE",
"381 1163 OFFCURVE",
"636 1163 CURVE SMOOTH",
"790 1163 OFFCURVE",
"867 1074 OFFCURVE",
"893 938 CURVE",
"977 938 LINE",
"946 1111 OFFCURVE",
"825 1231 OFFCURVE",
"636 1231 CURVE SMOOTH",
"324 1231 OFFCURVE",
"155 983 OFFCURVE",
"155 585 CURVE SMOOTH",
"155 248 OFFCURVE",
"326 -20 OFFCURVE",
"602 -20 CURVE SMOOTH"
);
},
{
closed = 1;
nodes = (
"425 50 OFFCURVE",
"299 161 OFFCURVE",
"299 341 CURVE SMOOTH",
"299 506 OFFCURVE",
"425 634 OFFCURVE",
"604 634 CURVE SMOOTH",
"778 634 OFFCURVE",
"905 524 OFFCURVE",
"905 341 CURVE SMOOTH",
"905 161 OFFCURVE",
"778 50 OFFCURVE",
"602 50 CURVE SMOOTH"
);
}
);
width = 1200;
},
{
layerId = "54E4F05E-05D2-4398-A473-3C5492C75DBF";
paths = (
{
closed = 1;
nodes = (
"948 -32 OFFCURVE",
"1161 144 OFFCURVE",
"1161 405 CURVE SMOOTH",
"1161 655 OFFCURVE",
"993 838 OFFCURVE",
"730 838 CURVE SMOOTH",
"566 838 OFFCURVE",
"409 770 OFFCURVE",
"362 545 CURVE",
"360 573 OFFCURVE",
"358 602 OFFCURVE",
"358 631 CURVE SMOOTH",
"358 908 OFFCURVE",
"474 1083 OFFCURVE",
"654 1083 CURVE SMOOTH",
"747 1083 OFFCURVE",
"799 1031 OFFCURVE",
"807 944 CURVE",
"1143 944 LINE",
"1143 1204 OFFCURVE",
"936 1372 OFFCURVE",
"642 1372 CURVE SMOOTH",
"294 1372 OFFCURVE",
"38 1118 OFFCURVE",
"38 647 CURVE SMOOTH",
"38 248 OFFCURVE",
"289 -32 OFFCURVE",
"645 -32 CURVE SMOOTH"
);
},
{
closed = 1;
nodes = (
"548 259 OFFCURVE",
"459 327 OFFCURVE",
"459 421 CURVE SMOOTH",
"459 524 OFFCURVE",
"548 585 OFFCURVE",
"641 585 CURVE SMOOTH",
"741 585 OFFCURVE",
"831 524 OFFCURVE",
"831 421 CURVE SMOOTH",
"831 327 OFFCURVE",
"741 259 OFFCURVE",
"645 259 CURVE SMOOTH"
);
}
);
width = 1200;
}
);
},
{
glyphname = seven.tf;
lastChange = "2019-05-14 17:00:04 +0000";
layers = (
{
layerId = "CE2138A5-93BA-4A69-8B69-7D34CC27D2DF";
paths = (
{
closed = 1;
nodes = (
"185 1147 LINE",
"896 1147 LINE",
"285 0 LINE",
"381 0 LINE",
"983 1153 LINE",
"983 1213 LINE",
"185 1213 LINE"
);
}
);
width = 1200;
},
{
layerId = "54E4F05E-05D2-4398-A473-3C5492C75DBF";
paths = (
{
closed = 1;
nodes = (
"117 1030 LINE",
"711 1030 LINE",
"125 0 LINE",
"559 0 LINE",
"1088 1030 LINE",
"1088 1342 LINE",
"117 1342 LINE"
);
}
);
width = 1200;
}
);
},
{
glyphname = eight.tf;
lastChange = "2019-05-14 17:00:04 +0000";
layers = (
{
layerId = "CE2138A5-93BA-4A69-8B69-7D34CC27D2DF";
paths = (
{
closed = 1;
nodes = (
"887 -20 OFFCURVE",
"1059 104 OFFCURVE",
"1059 283 CURVE SMOOTH",
"1059 435 OFFCURVE",
"965 519 OFFCURVE",
"787 585 CURVE SMOOTH",
"474 701 LINE SMOOTH",
"346 749 OFFCURVE",
"261 805 OFFCURVE",
"261 920 CURVE SMOOTH",
"261 1050 OFFCURVE",
"403 1163 OFFCURVE",
"598 1163 CURVE SMOOTH",
"797 1163 OFFCURVE",
"931 1050 OFFCURVE",
"931 908 CURVE SMOOTH",
"931 751 OFFCURVE",
"795 643 OFFCURVE",
"606 643 CURVE",
"606 611 LINE",
"625 605 OFFCURVE",
"647 605 OFFCURVE",
"669 605 CURVE SMOOTH",
"899 605 OFFCURVE",
"1013 745 OFFCURVE",
"1013 907 CURVE SMOOTH",
"1013 1091 OFFCURVE",
"846 1231 OFFCURVE",
"598 1231 CURVE SMOOTH",
"339 1231 OFFCURVE",
"179 1093 OFFCURVE",
"179 921 CURVE SMOOTH",
"179 766 OFFCURVE",
"319 678 OFFCURVE",
"437 632 CURVE SMOOTH",
"762 510 LINE SMOOTH",
"893 460 OFFCURVE",
"981 398 OFFCURVE",
"981 283 CURVE SMOOTH",
"981 143 OFFCURVE",
"822 50 OFFCURVE",
"598 50 CURVE SMOOTH",
"377 50 OFFCURVE",
"221 145 OFFCURVE",
"221 325 CURVE SMOOTH",
"221 470 OFFCURVE",
"367 607 OFFCURVE",
"594 607 CURVE",
"594 640 LINE",
"575 644 OFFCURVE",
"553 642 OFFCURVE",
"529 642 CURVE SMOOTH",
"305 642 OFFCURVE",
"139 522 OFFCURVE",
"139 326 CURVE SMOOTH",
"139 126 OFFCURVE",
"345 -20 OFFCURVE",
"598 -20 CURVE SMOOTH"
);
}
);
width = 1200;
},
{
layerId = "54E4F05E-05D2-4398-A473-3C5492C75DBF";
paths = (
{
closed = 1;
nodes = (
"980 -32 OFFCURVE",
"1194 141 OFFCURVE",
"1194 376 CURVE SMOOTH",
"1194 558 OFFCURVE",
"1082 642 OFFCURVE",
"886 720 CURVE SMOOTH",
"468 885 LINE SMOOTH",
"401 909 OFFCURVE",
"378 940 OFFCURVE",
"378 981 CURVE SMOOTH",
"378 1044 OFFCURVE",
"477 1083 OFFCURVE",
"598 1083 CURVE SMOOTH",
"729 1083 OFFCURVE",
"820 1038 OFFCURVE",
"820 951 CURVE SMOOTH",
"820 874 OFFCURVE",
"715 827 OFFCURVE",
"612 827 CURVE",
"612 740 LINE",
"687 716 OFFCURVE",
"733 704 OFFCURVE",
"798 704 CURVE SMOOTH",
"1016 704 OFFCURVE",
"1148 831 OFFCURVE",
"1148 975 CURVE SMOOTH",
"1148 1208 OFFCURVE",
"901 1372 OFFCURVE",
"598 1372 CURVE SMOOTH",
"247 1372 OFFCURVE",
"50 1234 OFFCURVE",
"50 995 CURVE SMOOTH",
"50 790 OFFCURVE",
"233 666 OFFCURVE",
"375 614 CURVE SMOOTH",
"768 461 LINE SMOOTH",
"831 436 OFFCURVE",
"864 398 OFFCURVE",
"864 357 CURVE SMOOTH",
"864 303 OFFCURVE",
"798 259 OFFCURVE",
"598 259 CURVE SMOOTH",
"457 259 OFFCURVE",
"332 317 OFFCURVE",
"332 399 CURVE SMOOTH",
"332 476 OFFCURVE",
"441 533 OFFCURVE",
"582 533 CURVE",
"582 603 LINE",
"495 626 OFFCURVE",
"442 642 OFFCURVE",
"369 642 CURVE SMOOTH",
"164 642 OFFCURVE",
"4 540 OFFCURVE",
"4 363 CURVE SMOOTH",
"4 138 OFFCURVE",
"222 -32 OFFCURVE",
"598 -32 CURVE SMOOTH"
);
}
);
width = 1200;
}
);
},
{
glyphname = nine.tf;
lastChange = "2019-05-14 17:00:04 +0000";
layers = (
{
layerId = "CE2138A5-93BA-4A69-8B69-7D34CC27D2DF";
paths = (
{
closed = 1;
nodes = (
"883 -20 OFFCURVE",
"1017 232 OFFCURVE",
"1017 634 CURVE SMOOTH",
"1017 1001 OFFCURVE",
"834 1231 OFFCURVE",
"564 1231 CURVE SMOOTH",
"339 1231 OFFCURVE",
"183 1091 OFFCURVE",
"183 872 CURVE SMOOTH",
"183 656 OFFCURVE",
"357 498 OFFCURVE",
"567 498 CURVE SMOOTH",
"771 498 OFFCURVE",
"907 624 OFFCURVE",
"921 836 CURVE",
"931 766 OFFCURVE",
"933 722 OFFCURVE",
"933 658 CURVE SMOOTH",
"933 283 OFFCURVE",
"820 50 OFFCURVE",
"568 50 CURVE SMOOTH",
"371 50 OFFCURVE",
"265 171 OFFCURVE",
"263 360 CURVE",
"187 360 LINE",
"187 144 OFFCURVE",
"336 -20 OFFCURVE",
"568 -20 CURVE SMOOTH"
);
},
{
closed = 1;
nodes = (
"387 579 OFFCURVE",
"263 691 OFFCURVE",
"263 872 CURVE SMOOTH",
"263 1052 OFFCURVE",
"387 1165 OFFCURVE",
"564 1165 CURVE SMOOTH",
"743 1165 OFFCURVE",
"869 1052 OFFCURVE",
"869 872 CURVE SMOOTH",
"869 711 OFFCURVE",
"743 579 OFFCURVE",
"564 579 CURVE SMOOTH"
);
}
);
width = 1200;
},
{
layerId = "54E4F05E-05D2-4398-A473-3C5492C75DBF";
paths = (
{
closed = 1;
nodes = (
"957 -32 OFFCURVE",
"1158 250 OFFCURVE",
"1158 689 CURVE SMOOTH",
"1158 1094 OFFCURVE",
"883 1372 OFFCURVE",
"552 1372 CURVE SMOOTH",
"253 1372 OFFCURVE",
"42 1196 OFFCURVE",
"42 933 CURVE SMOOTH",
"42 680 OFFCURVE",
"210 504 OFFCURVE",
"468 504 CURVE SMOOTH",
"630 504 OFFCURVE",
"784 569 OFFCURVE",
"835 793 CURVE",
"838 766 OFFCURVE",
"841 734 OFFCURVE",
"841 707 CURVE SMOOTH",
"841 443 OFFCURVE",
"771 259 OFFCURVE",
"568 259 CURVE SMOOTH",
"482 259 OFFCURVE",
"400 312 OFFCURVE",
"392 397 CURVE",
"58 397 LINE",
"58 138 OFFCURVE",
"293 -32 OFFCURVE",
"580 -32 CURVE SMOOTH"
);
},
{
closed = 1;
nodes = (
"455 757 OFFCURVE",
"368 814 OFFCURVE",
"368 915 CURVE SMOOTH",
"368 1015 OFFCURVE",
"455 1079 OFFCURVE",
"552 1079 CURVE SMOOTH",
"651 1079 OFFCURVE",
"740 1015 OFFCURVE",
"740 915 CURVE SMOOTH",
"740 816 OFFCURVE",
"651 757 OFFCURVE",
"558 757 CURVE SMOOTH"
);
}
);
width = 1200;
}
);
},
{
export = 0;
glyphname = period.tf;
lastChange = "2019-05-16 17:36:35 +0000";
layers = (
{
layerId = "CE2138A5-93BA-4A69-8B69-7D34CC27D2DF";
paths = (
{
closed = 1;
nodes = (
"645 -18 OFFCURVE",
"681 18 OFFCURVE",
"681 59 CURVE SMOOTH",
"681 102 OFFCURVE",
"645 140 OFFCURVE",
"598 140 CURVE SMOOTH",
"555 140 OFFCURVE",
"519 102 OFFCURVE",
"519 59 CURVE SMOOTH",
"519 18 OFFCURVE",
"555 -18 OFFCURVE",
"598 -18 CURVE SMOOTH"
);
}
);
width = 1200;
},
{
layerId = "54E4F05E-05D2-4398-A473-3C5492C75DBF";
paths = (
{
closed = 1;
nodes = (
"731 -30 OFFCURVE",
"828 61 OFFCURVE",
"828 188 CURVE SMOOTH",
"828 311 OFFCURVE",
"731 404 OFFCURVE",
"598 404 CURVE SMOOTH",
"463 404 OFFCURVE",
"372 311 OFFCURVE",
"372 188 CURVE SMOOTH",
"372 61 OFFCURVE",
"463 -30 OFFCURVE",
"598 -30 CURVE SMOOTH"
);
}
);
width = 1200;
}
);
},
{
export = 0;
glyphname = comma.tf;
lastChange = "2019-05-16 17:36:35 +0000";
layers = (
{
layerId = "CE2138A5-93BA-4A69-8B69-7D34CC27D2DF";
paths = (
{
closed = 1;
nodes = (
"671 -109 OFFCURVE",
"711 -22 OFFCURVE",
"711 52 CURVE SMOOTH",
"711 115 OFFCURVE",
"665 164 OFFCURVE",
"612 164 CURVE SMOOTH",
"563 164 OFFCURVE",
"535 129 OFFCURVE",
"535 91 CURVE SMOOTH",
"535 46 OFFCURVE",
"571 14 OFFCURVE",
"625 14 CURVE",
"611 -52 OFFCURVE",
"567 -91 OFFCURVE",
"491 -131 CURVE",
"562 -163 LINE"
);
}
);
width = 1200;
},
{
layerId = "54E4F05E-05D2-4398-A473-3C5492C75DBF";
paths = (
{
closed = 1;
nodes = (
"751 -263 OFFCURVE",
"871 -83 OFFCURVE",
"871 83 CURVE SMOOTH",
"871 244 OFFCURVE",
"776 373 OFFCURVE",
"612 373 CURVE SMOOTH",
"483 373 OFFCURVE",
"388 289 OFFCURVE",
"388 177 CURVE SMOOTH",
"388 77 OFFCURVE",
"466 14 OFFCURVE",
"563 -10 CURVE",
"531 -95 OFFCURVE",
"432 -171 OFFCURVE",
"325 -224 CURVE",
"574 -347 LINE"
);
}
);
width = 1200;
}
);
},
{
export = 0;
glyphname = exclam.tf;
lastChange = "2019-05-16 17:36:35 +0000";
layers = (
{
layerId = "CE2138A5-93BA-4A69-8B69-7D34CC27D2DF";
paths = (
{
closed = 1;
nodes = (
"623 264 LINE",
"637 1176 LINE",
"563 1176 LINE",
"577 264 LINE"
);
},
{
closed = 1;
nodes = (
"635 -18 OFFCURVE",
"669 12 OFFCURVE",
"669 47 CURVE SMOOTH",
"669 82 OFFCURVE",
"635 116 OFFCURVE",
"598 116 CURVE SMOOTH",
"563 116 OFFCURVE",
"531 82 OFFCURVE",
"531 47 CURVE SMOOTH",
"531 12 OFFCURVE",
"563 -18 OFFCURVE",
"598 -18 CURVE SMOOTH"
);
}
);
width = 1200;
},
{
layerId = "54E4F05E-05D2-4398-A473-3C5492C75DBF";
paths = (
{
closed = 1;
nodes = (
"740 528 LINE",
"772 1404 LINE",
"422 1404 LINE",
"454 528 LINE"
);
},
{
closed = 1;
nodes = (
"728 -18 OFFCURVE",
"816 67 OFFCURVE",
"816 188 CURVE SMOOTH",
"816 304 OFFCURVE",
"728 393 OFFCURVE",
"598 393 CURVE SMOOTH",
"471 393 OFFCURVE",
"384 304 OFFCURVE",
"384 188 CURVE SMOOTH",
"384 67 OFFCURVE",
"471 -18 OFFCURVE",
"598 -18 CURVE SMOOTH"
);
}
);
width = 1200;
}
);
},
{
export = 0;
glyphname = question.tf;
lastChange = "2019-05-16 17:36:35 +0000";
layers = (
{
layerId = "CE2138A5-93BA-4A69-8B69-7D34CC27D2DF";
paths = (
{
closed = 1;
nodes = (
"575 250 LINE",
"575 353 LINE SMOOTH",
"575 510 OFFCURVE",
"623 556 OFFCURVE",
"759 634 CURVE SMOOTH",
"917 724 OFFCURVE",
"983 802 OFFCURVE",
"983 938 CURVE SMOOTH",
"983 1093 OFFCURVE",
"845 1231 OFFCURVE",
"616 1231 CURVE SMOOTH",
"373 1231 OFFCURVE",
"239 1119 OFFCURVE",
"219 964 CURVE",
"303 964 LINE",
"335 1095 OFFCURVE",
"430 1163 OFFCURVE",
"618 1163 CURVE SMOOTH",
"797 1163 OFFCURVE",
"903 1068 OFFCURVE",
"903 944 CURVE SMOOTH",
"903 813 OFFCURVE",
"843 765 OFFCURVE",
"701 683 CURVE SMOOTH",
"545 591 OFFCURVE",
"505 525 OFFCURVE",
"505 351 CURVE SMOOTH",
"505 250 LINE"
);
},
{
closed = 1;
nodes = (
"575 -20 OFFCURVE",
"606 12 OFFCURVE",
"606 47 CURVE SMOOTH",
"606 80 OFFCURVE",
"575 116 OFFCURVE",
"540 116 CURVE SMOOTH",
"500 116 OFFCURVE",
"473 80 OFFCURVE",
"473 47 CURVE SMOOTH",
"473 12 OFFCURVE",
"500 -20 OFFCURVE",
"540 -20 CURVE SMOOTH"
);
}
);
width = 1200;
},
{
layerId = "54E4F05E-05D2-4398-A473-3C5492C75DBF";
paths = (
{
closed = 1;
nodes = (
"729 459 LINE",
"729 494 LINE SMOOTH",
"729 571 OFFCURVE",
"764 611 OFFCURVE",
"888 671 CURVE SMOOTH",
"1034 736 OFFCURVE",
"1100 833 OFFCURVE",
"1100 975 CURVE SMOOTH",
"1100 1204 OFFCURVE",
"907 1372 OFFCURVE",
"592 1372 CURVE SMOOTH",
"280 1372 OFFCURVE",
"110 1199 OFFCURVE",
"96 927 CURVE",
"426 927 LINE",
"428 1015 OFFCURVE",
"491 1083 OFFCURVE",
"606 1083 CURVE SMOOTH",
"692 1083 OFFCURVE",
"750 1037 OFFCURVE",
"750 975 CURVE SMOOTH",
"750 924 OFFCURVE",
"726 888 OFFCURVE",
"609 830 CURVE SMOOTH",
"471 769 OFFCURVE",
"406 703 OFFCURVE",
"406 529 CURVE SMOOTH",
"406 459 LINE"
);
},
{
closed = 1;
nodes = (
"704 -32 OFFCURVE",
"797 55 OFFCURVE",
"797 170 CURVE SMOOTH",
"797 289 OFFCURVE",
"704 374 OFFCURVE",
"577 374 CURVE SMOOTH",
"451 374 OFFCURVE",
"362 289 OFFCURVE",
"362 170 CURVE SMOOTH",
"362 55 OFFCURVE",
"451 -32 OFFCURVE",
"577 -32 CURVE SMOOTH"
);
}
);
width = 1200;
}
);
},
{
export = 0;
glyphname = asterisk.tf;
lastChange = "2019-05-16 17:36:35 +0000";
layers = (
{
layerId = "CE2138A5-93BA-4A69-8B69-7D34CC27D2DF";
paths = (
{
closed = 1;
nodes = (
"602 974 LINE",
"770 760 LINE",
"832 813 LINE",
"643 1005 LINE",
"890 1091 LINE",
"854 1165 LINE",
"628 1053 LINE",
"640 1327 LINE",
"561 1327 LINE",
"572 1053 LINE",
"346 1165 LINE",
"310 1094 LINE",
"557 1003 LINE",
"368 813 LINE",
"434 760 LINE"
);
}
);
width = 1200;
},
{
layerId = "54E4F05E-05D2-4398-A473-3C5492C75DBF";
paths = (
{
closed = 1;
nodes = (
"602 1005 LINE",
"739 809 LINE",
"887 936 LINE",
"723 1085 LINE",
"927 1153 LINE",
"854 1331 LINE",
"671 1231 LINE",
"701 1450 LINE",
"499 1450 LINE",
"529 1231 LINE",
"346 1325 LINE",
"273 1149 LINE",
"483 1083 LINE",
"319 936 LINE",
"458 809 LINE"
);
}
);
width = 1200;
}
);
},
{
export = 0;
glyphname = numbersign.tf;
lastChange = "2019-05-16 17:36:35 +0000";
layers = (
{
layerId = "CE2138A5-93BA-4A69-8B69-7D34CC27D2DF";
paths = (
{
closed = 1;
nodes = (
"367 60 LINE",
"397 355 LINE",
"741 355 LINE",
"711 60 LINE",
"779 60 LINE",
"813 355 LINE",
"1034 355 LINE",
"1042 409 LINE",
"819 409 LINE",
"861 808 LINE",
"1082 808 LINE",
"1088 867 LINE",
"867 867 LINE",
"897 1156 LINE",
"829 1156 LINE",
"797 867 LINE",
"451 867 LINE",
"481 1156 LINE",
"413 1156 LINE",
"383 867 LINE",
"164 867 LINE",
"160 808 LINE",
"377 808 LINE",
"335 409 LINE",
"118 409 LINE",
"112 355 LINE",
"329 355 LINE",
"299 60 LINE"
);
},
{
closed = 1;
nodes = (
"445 808 LINE",
"791 808 LINE",
"747 409 LINE",
"403 409 LINE"
);
}
);
width = 1200;
},
{
layerId = "54E4F05E-05D2-4398-A473-3C5492C75DBF";
paths = (
{
closed = 1;
nodes = (
"460 109 LINE",
"483 293 LINE",
"636 293 LINE",
"612 109 LINE",
"914 109 LINE",
"936 293 LINE",
"1071 293 LINE",
"1091 501 LINE",
"960 501 LINE",
"990 771 LINE",
"1119 771 LINE",
"1143 978 LINE",
"1014 978 LINE",
"1038 1162 LINE",
"737 1162 LINE",
"717 978 LINE",
"562 978 LINE",
"586 1162 LINE",
"284 1162 LINE",
"260 978 LINE",
"127 978 LINE",
"105 771 LINE",
"236 771 LINE",
"206 501 LINE",
"75 501 LINE",
"57 293 LINE",
"182 293 LINE",
"158 109 LINE"
);
},
{
closed = 1;
nodes = (
"538 771 LINE",
"692 771 LINE",
"661 501 LINE",
"508 501 LINE"
);
}
);
width = 1200;
}
);
},
{
export = 0;
glyphname = slash.tf;
lastChange = "2019-05-16 17:36:35 +0000";
layers = (
{
layerId = "CE2138A5-93BA-4A69-8B69-7D34CC27D2DF";
paths = (
{
closed = 1;
nodes = (
"393 -128 LINE",
"881 1433 LINE",
"807 1433 LINE",
"317 -128 LINE"
);
}
);
width = 1200;
},
{
layerId = "54E4F05E-05D2-4398-A473-3C5492C75DBF";
paths = (
{
closed = 1;
nodes = (
"498 -177 LINE",
"1028 1519 LINE",
"702 1519 LINE",
"176 -177 LINE"
);
}
);
width = 1200;
}
);
},
{
glyphname = .notdef;
lastChange = "2019-05-21 14:05:32 +0000";
layers = (
{
layerId = "CE2138A5-93BA-4A69-8B69-7D34CC27D2DF";
paths = (
{
closed = 1;
nodes = (
"10 5 LINE",
"1021 5 LINE",
"1021 1645 LINE",
"10 1645 LINE"
);
},
{
closed = 1;
nodes = (
"1031 1655 LINE",
"1031 -5 LINE",
"0 -5 LINE",
"0 1655 LINE"
);
},
{
closed = 1;
nodes = (
"700 531 OFFCURVE",
"380 1038 OFFCURVE",
"10 1645 CURVE",
"450 1067 OFFCURVE",
"719 541 OFFCURVE",
"1021 5 CURVE"
);
},
{
closed = 1;
nodes = (
"312 541 OFFCURVE",
"581 1067 OFFCURVE",
"1021 1645 CURVE",
"651 1038 OFFCURVE",
"331 531 OFFCURVE",
"10 5 CURVE"
);
}
);
width = 1031;
},
{
layerId = "54E4F05E-05D2-4398-A473-3C5492C75DBF";
paths = (
{
closed = 1;
nodes = (
"10 5 LINE",
"1021 5 LINE",
"1021 1645 LINE",
"10 1645 LINE"
);
},
{
closed = 1;
nodes = (
"1031 1655 LINE",
"1031 -5 LINE",
"0 -5 LINE",
"0 1655 LINE"
);
},
{
closed = 1;
nodes = (
"700 331 OFFCURVE",
"380 1038 OFFCURVE",
"10 1645 CURVE",
"450 1067 OFFCURVE",
"719 341 OFFCURVE",
"1021 5 CURVE"
);
},
{
closed = 1;
nodes = (
"312 341 OFFCURVE",
"581 1067 OFFCURVE",
"1021 1645 CURVE",
"651 1038 OFFCURVE",
"331 331 OFFCURVE",
"10 5 CURVE"
);
}
);
width = 1031;
}
);
},
{
glyphname = cent;
lastChange = "2019-05-14 17:00:04 +0000";
layers = (
{
components = (
{
alignment = -1;
name = c;
}
);
layerId = "CE2138A5-93BA-4A69-8B69-7D34CC27D2DF";
paths = (
{
closed = 1;
nodes = (
"561 -204 LINE",
"561 -7 LINE",
"488 -7 LINE",
"488 -204 LINE"
);
},
{
closed = 1;
nodes = (
"561 944 LINE",
"561 1109 LINE",
"488 1109 LINE",
"488 944 LINE"
);
}
);
width = 992.2;
},
{
components = (
{
alignment = -1;
name = c;
}
);
layerId = "54E4F05E-05D2-4398-A473-3C5492C75DBF";
paths = (
{
closed = 1;
nodes = (
"690 -222 LINE",
"690 67 LINE",
"433 67 LINE",
"433 -222 LINE"
);
},
{
closed = 1;
nodes = (
"690 938 LINE",
"690 1208 LINE",
"433 1208 LINE",
"433 938 LINE"
);
}
);
width = 1090.6;
}
);
unicode = 00A2;
},
{
glyphname = currency;
lastChange = "2019-05-14 17:00:04 +0000";
layers = (
{
layerId = "CE2138A5-93BA-4A69-8B69-7D34CC27D2DF";
paths = (
{
closed = 1;
nodes = (
"814 236 OFFCURVE",
"986 410 OFFCURVE",
"986 628 CURVE SMOOTH",
"986 838 OFFCURVE",
"814 1011 OFFCURVE",
"600 1011 CURVE SMOOTH",
"386 1011 OFFCURVE",
"212 838 OFFCURVE",
"212 628 CURVE SMOOTH",
"212 410 OFFCURVE",
"386 236 OFFCURVE",
"600 236 CURVE SMOOTH"
);
},
{
closed = 1;
nodes = (
"429 317 OFFCURVE",
"293 453 OFFCURVE",
"293 628 CURVE SMOOTH",
"293 796 OFFCURVE",
"429 931 OFFCURVE",
"600 931 CURVE SMOOTH",
"767 931 OFFCURVE",
"907 796 OFFCURVE",
"907 628 CURVE SMOOTH",
"907 453 OFFCURVE",
"767 317 OFFCURVE",
"600 317 CURVE SMOOTH"
);
},
{
closed = 1;
nodes = (
"1033 1000 LINE",
"974 1057 LINE",
"813 900 LINE",
"872 841 LINE"
);
},
{
closed = 1;
nodes = (
"385 900 LINE",
"224 1057 LINE",
"167 998 LINE",
"328 841 LINE"
);
},
{
closed = 1;
nodes = (
"815 352 LINE",
"976 190 LINE",
"1033 254 LINE",
"872 411 LINE"
);
},
{
closed = 1;
nodes = (
"167 254 LINE",
"224 190 LINE",
"385 352 LINE",
"328 411 LINE"
);
}
);
width = 1200;
},
{
layerId = "54E4F05E-05D2-4398-A473-3C5492C75DBF";
paths = (
{
closed = 1;
nodes = (
"845 206 OFFCURVE",
"1041 404 OFFCURVE",
"1041 646 CURVE SMOOTH",
"1041 893 OFFCURVE",
"845 1091 OFFCURVE",
"600 1091 CURVE SMOOTH",
"356 1091 OFFCURVE",
"157 893 OFFCURVE",
"157 646 CURVE SMOOTH",
"157 404 OFFCURVE",
"356 206 OFFCURVE",
"600 206 CURVE SMOOTH"
);
},
{
closed = 1;
nodes = (
"509 483 OFFCURVE",
"434 558 OFFCURVE",
"434 646 CURVE SMOOTH",
"434 741 OFFCURVE",
"509 814 OFFCURVE",
"600 814 CURVE SMOOTH",
"693 814 OFFCURVE",
"766 741 OFFCURVE",
"766 646 CURVE SMOOTH",
"766 558 OFFCURVE",
"693 483 OFFCURVE",
"600 483 CURVE SMOOTH"
);
},
{
closed = 1;
nodes = (
"1101 1031 LINE",
"980 1149 LINE",
"714 882 LINE",
"835 761 LINE"
);
},
{
closed = 1;
nodes = (
"465 900 LINE",
"218 1149 LINE",
"99 1028 LINE",
"346 779 LINE"
);
},
{
closed = 1;
nodes = (
"735 395 LINE",
"982 147 LINE",
"1101 266 LINE",
"854 516 LINE"
);
},
{
closed = 1;
nodes = (
"99 266 LINE",
"218 147 LINE",
"465 395 LINE",
"346 516 LINE"
);
}
);
width = 1200;
}
);
unicode = 00A4;
},
{
glyphname = euro;
lastChange = "2019-05-14 17:00:04 +0000";
layers = (
{
layerId = "CE2138A5-93BA-4A69-8B69-7D34CC27D2DF";
paths = (
{
closed = 1;
nodes = (
"905 -20 OFFCURVE",
"1109 138 OFFCURVE",
"1109 387 CURVE",
"1023 387 LINE",
"1023 179 OFFCURVE",
"868 46 OFFCURVE",
"649 46 CURVE SMOOTH",
"362 46 OFFCURVE",
"230 307 OFFCURVE",
"230 620 CURVE SMOOTH",
"230 974 OFFCURVE",
"437 1167 OFFCURVE",
"649 1167 CURVE SMOOTH",
"812 1167 OFFCURVE",
"961 1059 OFFCURVE",
"1023 882 CURVE",
"1105 904 LINE",
"1028 1097 OFFCURVE",
"873 1231 OFFCURVE",
"649 1231 CURVE SMOOTH",
"378 1231 OFFCURVE",
"150 1015 OFFCURVE",
"150 620 CURVE SMOOTH",
"150 262 OFFCURVE",
"336 -20 OFFCURVE",
"649 -20 CURVE SMOOTH"
);
},
{
closed = 1;
nodes = (
"722 494 LINE",
"722 555 LINE",
"64 555 LINE",
"64 494 LINE"
);
},
{
closed = 1;
nodes = (
"722 678 LINE",
"722 739 LINE",
"64 739 LINE",
"64 678 LINE"
);
}
);
width = 1183.975;
},
{
layerId = "54E4F05E-05D2-4398-A473-3C5492C75DBF";
paths = (
{
closed = 1;
nodes = (
"1071 -32 OFFCURVE",
"1263 138 OFFCURVE",
"1263 449 CURVE",
"924 449 LINE",
"924 345 OFFCURVE",
"856 262 OFFCURVE",
"717 262 CURVE SMOOTH",
"571 262 OFFCURVE",
"470 393 OFFCURVE",
"470 669 CURVE SMOOTH",
"470 950 OFFCURVE",
"572 1081 OFFCURVE",
"717 1081 CURVE SMOOTH",
"830 1081 OFFCURVE",
"893 997 OFFCURVE",
"924 882 CURVE",
"1265 941 LINE",
"1231 1196 OFFCURVE",
"1057 1372 OFFCURVE",
"717 1372 CURVE SMOOTH",
"366 1372 OFFCURVE",
"126 1132 OFFCURVE",
"126 669 CURVE SMOOTH",
"126 207 OFFCURVE",
"367 -32 OFFCURVE",
"717 -32 CURVE SMOOTH"
);
},
{
closed = 1;
nodes = (
"765 457 LINE",
"765 629 LINE",
"27 629 LINE",
"27 457 LINE"
);
},
{
closed = 1;
nodes = (
"765 696 LINE",
"765 868 LINE",
"27 868 LINE",
"27 696 LINE"
);
}
);
width = 1310.05;
}
);
unicode = 20AC;
},
{
glyphname = rupee;
lastChange = "2019-05-20 17:42:41 +0000";
layers = (
{
layerId = "CE2138A5-93BA-4A69-8B69-7D34CC27D2DF";
paths = (
{
closed = 1;
nodes = (
"934 1154 LINE",
"934 1213 LINE",
"202 1213 LINE",
"202 1154 LINE"
);
},
{
closed = 1;
nodes = (
"934 868 LINE",
"934 929 LINE",
"202 929 LINE",
"202 868 LINE"
);
},
{
closed = 1;
nodes = (
"202 496 LINE",
"775 0 LINE",
"882 0 LINE",
"234 557 LINE",
"202 557 LINE"
);
},
{
closed = 1;
nodes = (
"232 496 LINE",
"308 496 LINE SMOOTH",
"633 496 OFFCURVE",
"760 666 OFFCURVE",
"760 860 CURVE SMOOTH",
"760 1051 OFFCURVE",
"623 1199 OFFCURVE",
"308 1199 CURVE SMOOTH",
"232 1199 LINE",
"232 1154 LINE",
"308 1154 LINE SMOOTH",
"560 1154 OFFCURVE",
"681 1030 OFFCURVE",
"681 860 CURVE SMOOTH",
"681 689 OFFCURVE",
"560 557 OFFCURVE",
"308 557 CURVE SMOOTH",
"232 557 LINE"
);
}
);
width = 1112.825;
},
{
layerId = "54E4F05E-05D2-4398-A473-3C5492C75DBF";
paths = (
{
closed = 1;
nodes = (
"1174 1172 LINE",
"1174 1342 LINE",
"147 1342 LINE",
"147 1172 LINE"
);
},
{
closed = 1;
nodes = (
"1174 831 LINE",
"1174 1003 LINE",
"147 1003 LINE",
"147 831 LINE"
);
},
{
closed = 1;
nodes = (
"147 490 LINE",
"628 0 LINE",
"1073 0 LINE",
"425 662 LINE",
"147 662 LINE"
);
},
{
closed = 1;
nodes = (
"250 490 LINE",
"302 490 LINE SMOOTH",
"780 490 OFFCURVE",
"957 666 OFFCURVE",
"957 915 CURVE SMOOTH",
"957 1144 OFFCURVE",
"728 1292 OFFCURVE",
"302 1292 CURVE SMOOTH",
"250 1292 LINE",
"250 1172 LINE",
"302 1172 LINE SMOOTH",
"523 1172 OFFCURVE",
"613 1061 OFFCURVE",
"613 915 CURVE SMOOTH",
"613 769 OFFCURVE",
"523 662 OFFCURVE",
"302 662 CURVE SMOOTH",
"250 662 LINE"
);
}
);
width = 1257.35;
}
);
unicode = 20A8;
},
{
glyphname = yen;
lastChange = "2019-05-14 17:00:04 +0000";
layers = (
{
layerId = "CE2138A5-93BA-4A69-8B69-7D34CC27D2DF";
paths = (
{
closed = 1;
nodes = (
"550 0 LINE",
"550 495 LINE",
"996 1213 LINE",
"904 1213 LINE",
"493 550 LINE",
"527 550 LINE",
"116 1213 LINE",
"22 1213 LINE",
"472 495 LINE",
"472 0 LINE"
);
},
{
closed = 1;
nodes = (
"837 235 LINE",
"837 298 LINE",
"183 298 LINE",
"183 235 LINE"
);
},
{
closed = 1;
nodes = (
"837 416 LINE",
"837 480 LINE",
"183 480 LINE",
"183 416 LINE"
);
}
);
width = 1019.1;
},
{
layerId = "54E4F05E-05D2-4398-A473-3C5492C75DBF";
paths = (
{
closed = 1;
nodes = (
"772 0 LINE",
"772 557 LINE",
"1242 1342 LINE",
"867 1342 LINE",
"592 839 LINE",
"644 839 LINE",
"386 1342 LINE",
"10 1342 LINE",
"454 557 LINE",
"454 0 LINE"
);
},
{
closed = 1;
nodes = (
"978 136 LINE",
"978 304 LINE",
"257 304 LINE",
"257 136 LINE"
);
},
{
closed = 1;
nodes = (
"978 367 LINE",
"978 535 LINE",
"257 535 LINE",
"257 367 LINE"
);
}
);
width = 1252.8;
}
);
unicode = 00A5;
},
{
glyphname = currency.tf;
lastChange = "2019-05-14 17:00:04 +0000";
layers = (
{
layerId = "CE2138A5-93BA-4A69-8B69-7D34CC27D2DF";
paths = (
{
closed = 1;
nodes = (
"814 236 OFFCURVE",
"986 410 OFFCURVE",
"986 628 CURVE SMOOTH",
"986 838 OFFCURVE",
"814 1011 OFFCURVE",
"600 1011 CURVE SMOOTH",
"386 1011 OFFCURVE",
"212 838 OFFCURVE",
"212 628 CURVE SMOOTH",
"212 410 OFFCURVE",
"386 236 OFFCURVE",
"600 236 CURVE SMOOTH"
);
},
{
closed = 1;
nodes = (
"429 317 OFFCURVE",
"293 453 OFFCURVE",
"293 628 CURVE SMOOTH",
"293 796 OFFCURVE",
"429 931 OFFCURVE",
"600 931 CURVE SMOOTH",
"767 931 OFFCURVE",
"907 796 OFFCURVE",
"907 628 CURVE SMOOTH",
"907 453 OFFCURVE",
"767 317 OFFCURVE",
"600 317 CURVE SMOOTH"
);
},
{
closed = 1;
nodes = (
"1033 1000 LINE",
"974 1057 LINE",
"813 900 LINE",
"872 841 LINE"
);
},
{
closed = 1;
nodes = (
"385 900 LINE",
"224 1057 LINE",
"167 998 LINE",
"328 841 LINE"
);
},
{
closed = 1;
nodes = (
"815 352 LINE",
"976 190 LINE",
"1033 254 LINE",
"872 411 LINE"
);
},
{
closed = 1;
nodes = (
"167 254 LINE",
"224 190 LINE",
"385 352 LINE",
"328 411 LINE"
);
}
);
width = 1200;
},
{
layerId = "54E4F05E-05D2-4398-A473-3C5492C75DBF";
paths = (
{
closed = 1;
nodes = (
"845 206 OFFCURVE",
"1041 404 OFFCURVE",
"1041 646 CURVE SMOOTH",
"1041 893 OFFCURVE",
"845 1091 OFFCURVE",
"600 1091 CURVE SMOOTH",
"356 1091 OFFCURVE",
"157 893 OFFCURVE",
"157 646 CURVE SMOOTH",
"157 404 OFFCURVE",
"356 206 OFFCURVE",
"600 206 CURVE SMOOTH"
);
},
{
closed = 1;
nodes = (
"509 483 OFFCURVE",
"434 558 OFFCURVE",
"434 646 CURVE SMOOTH",
"434 741 OFFCURVE",
"509 814 OFFCURVE",
"600 814 CURVE SMOOTH",
"693 814 OFFCURVE",
"766 741 OFFCURVE",
"766 646 CURVE SMOOTH",
"766 558 OFFCURVE",
"693 483 OFFCURVE",
"600 483 CURVE SMOOTH"
);
},
{
closed = 1;
nodes = (
"1101 1031 LINE",
"980 1149 LINE",
"714 882 LINE",
"835 761 LINE"
);
},
{
closed = 1;
nodes = (
"465 900 LINE",
"218 1149 LINE",
"99 1028 LINE",
"346 779 LINE"
);
},
{
closed = 1;
nodes = (
"735 395 LINE",
"982 147 LINE",
"1101 266 LINE",
"854 516 LINE"
);
},
{
closed = 1;
nodes = (
"99 266 LINE",
"218 147 LINE",
"465 395 LINE",
"346 516 LINE"
);
}
);
width = 1200;
}
);
},
{
glyphname = dollar.tf;
lastChange = "2019-05-14 17:00:04 +0000";
layers = (
{
layerId = "CE2138A5-93BA-4A69-8B69-7D34CC27D2DF";
paths = (
{
closed = 1;
nodes = (
"879 -20 OFFCURVE",
"1025 150 OFFCURVE",
"1025 314 CURVE SMOOTH",
"1025 488 OFFCURVE",
"900 584 OFFCURVE",
"737 633 CURVE SMOOTH",
"606 671 LINE",
"606 596 LINE",
"722 563 LINE SMOOTH",
"861 522 OFFCURVE",
"943 440 OFFCURVE",
"943 316 CURVE SMOOTH",
"943 181 OFFCURVE",
"816 50 OFFCURVE",
"596 50 CURVE SMOOTH",
"410 50 OFFCURVE",
"247 145 OFFCURVE",
"247 345 CURVE",
"173 345 LINE",
"173 118 OFFCURVE",
"364 -20 OFFCURVE",
"598 -20 CURVE SMOOTH"
);
},
{
closed = 1;
nodes = (
"633 -162 LINE",
"633 1373 LINE",
"560 1373 LINE",
"560 -162 LINE"
);
},
{
closed = 1;
nodes = (
"592 675 LINE",
"498 703 LINE SMOOTH",
"355 745 OFFCURVE",
"289 807 OFFCURVE",
"289 922 CURVE SMOOTH",
"289 1060 OFFCURVE",
"403 1162 OFFCURVE",
"602 1162 CURVE SMOOTH",
"774 1162 OFFCURVE",
"880 1095 OFFCURVE",
"902 964 CURVE",
"976 964 LINE",
"955 1119 OFFCURVE",
"821 1231 OFFCURVE",
"602 1231 CURVE SMOOTH",
"347 1231 OFFCURVE",
"211 1103 OFFCURVE",
"211 925 CURVE SMOOTH",
"211 762 OFFCURVE",
"317 692 OFFCURVE",
"535 618 CURVE SMOOTH",
"592 600 LINE"
);
}
);
width = 1200;
},
{
layerId = "54E4F05E-05D2-4398-A473-3C5492C75DBF";
paths = (
{
closed = 1;
nodes = (
"1014 -32 OFFCURVE",
"1191 162 OFFCURVE",
"1191 363 CURVE SMOOTH",
"1191 531 OFFCURVE",
"1109 639 OFFCURVE",
"909 713 CURVE SMOOTH",
"588 831 LINE",
"588 559 LINE",
"746 495 LINE SMOOTH",
"799 473 OFFCURVE",
"832 422 OFFCURVE",
"832 371 CURVE SMOOTH",
"832 304 OFFCURVE",
"773 259 OFFCURVE",
"633 259 CURVE SMOOTH",
"434 259 OFFCURVE",
"321 305 OFFCURVE",
"321 438 CURVE",
"7 438 LINE",
"7 100 OFFCURVE",
"315 -32 OFFCURVE",
"616 -32 CURVE SMOOTH"
);
},
{
closed = 1;
nodes = (
"738 -223 LINE",
"738 1527 LINE",
"517 1527 LINE",
"517 -223 LINE"
);
},
{
closed = 1;
nodes = (
"592 829 LINE",
"480 881 LINE SMOOTH",
"423 905 OFFCURVE",
"394 936 OFFCURVE",
"394 983 CURVE SMOOTH",
"394 1054 OFFCURVE",
"471 1101 OFFCURVE",
"626 1101 CURVE SMOOTH",
"756 1101 OFFCURVE",
"849 1015 OFFCURVE",
"859 927 CURVE",
"1173 927 LINE",
"1133 1205 OFFCURVE",
"962 1372 OFFCURVE",
"633 1372 CURVE SMOOTH",
"255 1372 OFFCURVE",
"45 1220 OFFCURVE",
"45 993 CURVE SMOOTH",
"45 799 OFFCURVE",
"182 692 OFFCURVE",
"400 618 CURVE SMOOTH",
"592 551 LINE"
);
}
);
width = 1200;
}
);
},
{
glyphname = euro.tf;
lastChange = "2019-05-14 17:00:04 +0000";
layers = (
{
layerId = "CE2138A5-93BA-4A69-8B69-7D34CC27D2DF";
paths = (
{
closed = 1;
nodes = (
"905 -20 OFFCURVE",
"1109 138 OFFCURVE",
"1109 387 CURVE",
"1024 387 LINE",
"1024 179 OFFCURVE",
"869 46 OFFCURVE",
"652 46 CURVE SMOOTH",
"361 46 OFFCURVE",
"230 309 OFFCURVE",
"230 622 CURVE SMOOTH",
"230 974 OFFCURVE",
"437 1167 OFFCURVE",
"652 1167 CURVE SMOOTH",
"808 1167 OFFCURVE",
"961 1059 OFFCURVE",
"1024 882 CURVE",
"1106 904 LINE",
"1029 1097 OFFCURVE",
"873 1231 OFFCURVE",
"652 1231 CURVE SMOOTH",
"378 1231 OFFCURVE",
"150 1013 OFFCURVE",
"150 622 CURVE SMOOTH",
"150 260 OFFCURVE",
"336 -20 OFFCURVE",
"650 -20 CURVE SMOOTH"
);
},
{
closed = 1;
nodes = (
"718 494 LINE",
"718 555 LINE",
"64 555 LINE",
"64 494 LINE"
);
},
{
closed = 1;
nodes = (
"718 678 LINE",
"718 739 LINE",
"64 739 LINE",
"64 678 LINE"
);
}
);
width = 1200;
},
{
layerId = "54E4F05E-05D2-4398-A473-3C5492C75DBF";
paths = (
{
closed = 1;
nodes = (
"991 -32 OFFCURVE",
"1177 138 OFFCURVE",
"1177 449 CURVE",
"839 449 LINE",
"839 345 OFFCURVE",
"789 262 OFFCURVE",
"670 262 CURVE SMOOTH",
"533 262 OFFCURVE",
"464 389 OFFCURVE",
"464 646 CURVE SMOOTH",
"464 962 OFFCURVE",
"566 1081 OFFCURVE",
"670 1081 CURVE SMOOTH",
"765 1081 OFFCURVE",
"807 997 OFFCURVE",
"827 882 CURVE",
"1167 941 LINE",
"1146 1196 OFFCURVE",
"990 1372 OFFCURVE",
"670 1372 CURVE SMOOTH",
"360 1372 OFFCURVE",
"120 1136 OFFCURVE",
"120 665 CURVE SMOOTH",
"120 211 OFFCURVE",
"348 -32 OFFCURVE",
"699 -32 CURVE SMOOTH"
);
},
{
closed = 1;
nodes = (
"681 457 LINE",
"681 629 LINE",
"21 629 LINE",
"21 457 LINE"
);
},
{
closed = 1;
nodes = (
"681 696 LINE",
"681 868 LINE",
"21 868 LINE",
"21 696 LINE"
);
}
);
width = 1200;
}
);
},
{
glyphname = sterling.tf;
lastChange = "2019-05-14 17:00:04 +0000";
layers = (
{
layerId = "CE2138A5-93BA-4A69-8B69-7D34CC27D2DF";
paths = (
{
closed = 1;
nodes = (
"360 35 OFFCURVE",
"405 92 OFFCURVE",
"405 244 CURVE SMOOTH",
"405 839 LINE SMOOTH",
"405 1064 OFFCURVE",
"499 1163 OFFCURVE",
"658 1163 CURVE SMOOTH",
"764 1163 OFFCURVE",
"863 1111 OFFCURVE",
"887 982 CURVE",
"961 982 LINE",
"929 1145 OFFCURVE",
"811 1231 OFFCURVE",
"658 1231 CURVE SMOOTH",
"416 1231 OFFCURVE",
"331 1071 OFFCURVE",
"331 839 CURVE SMOOTH",
"331 244 LINE SMOOTH",
"331 118 OFFCURVE",
"279 58 OFFCURVE",
"173 58 CURVE",
"173 35 LINE"
);
},
{
closed = 1;
nodes = (
"793 0 LINE SMOOTH",
"984 0 OFFCURVE",
"1051 100 OFFCURVE",
"1071 242 CURVE",
"999 242 LINE",
"975 116 OFFCURVE",
"917 58 OFFCURVE",
"791 58 CURVE SMOOTH",
"125 58 LINE",
"125 0 LINE"
);
},
{
closed = 1;
nodes = (
"787 505 LINE",
"787 566 LINE",
"135 566 LINE",
"135 505 LINE"
);
}
);
width = 1200;
},
{
layerId = "54E4F05E-05D2-4398-A473-3C5492C75DBF";
paths = (
{
closed = 1;
nodes = (
"421 201 OFFCURVE",
"534 295 OFFCURVE",
"534 484 CURVE SMOOTH",
"534 913 LINE SMOOTH",
"534 1027 OFFCURVE",
"592 1083 OFFCURVE",
"664 1083 CURVE SMOOTH",
"734 1083 OFFCURVE",
"771 1037 OFFCURVE",
"776 970 CURVE",
"1090 970 LINE",
"1058 1238 OFFCURVE",
"922 1372 OFFCURVE",
"664 1372 CURVE SMOOTH",
"416 1372 OFFCURVE",
"214 1231 OFFCURVE",
"214 913 CURVE SMOOTH",
"214 460 LINE SMOOTH",
"214 346 OFFCURVE",
"187 292 OFFCURVE",
"93 292 CURVE",
"93 201 LINE"
);
},
{
closed = 1;
nodes = (
"640 0 LINE SMOOTH",
"1033 0 OFFCURVE",
"1180 155 OFFCURVE",
"1182 433 CURVE",
"827 433 LINE",
"822 338 OFFCURVE",
"776 292 OFFCURVE",
"637 292 CURVE SMOOTH",
"20 292 LINE",
"20 0 LINE"
);
},
{
closed = 1;
nodes = (
"855 591 LINE",
"855 800 LINE",
"67 800 LINE",
"67 591 LINE"
);
}
);
width = 1200;
}
);
},
{
glyphname = yen.tf;
lastChange = "2019-05-14 17:00:04 +0000";
layers = (
{
layerId = "CE2138A5-93BA-4A69-8B69-7D34CC27D2DF";
paths = (
{
closed = 1;
nodes = (
"641 0 LINE",
"641 495 LINE",
"1085 1213 LINE",
"995 1213 LINE",
"584 550 LINE",
"620 550 LINE",
"205 1213 LINE",
"115 1213 LINE",
"563 495 LINE",
"563 0 LINE"
);
},
{
closed = 1;
nodes = (
"932 235 LINE",
"932 298 LINE",
"274 298 LINE",
"274 235 LINE"
);
},
{
closed = 1;
nodes = (
"932 416 LINE",
"932 480 LINE",
"274 480 LINE",
"274 416 LINE"
);
}
);
width = 1200;
},
{
layerId = "54E4F05E-05D2-4398-A473-3C5492C75DBF";
paths = (
{
closed = 1;
nodes = (
"746 0 LINE",
"746 557 LINE",
"1196 1342 LINE",
"817 1342 LINE",
"566 839 LINE",
"614 839 LINE",
"383 1342 LINE",
"4 1342 LINE",
"428 557 LINE",
"428 0 LINE"
);
},
{
closed = 1;
nodes = (
"950 136 LINE",
"950 304 LINE",
"231 304 LINE",
"231 136 LINE"
);
},
{
closed = 1;
nodes = (
"950 367 LINE",
"950 535 LINE",
"231 535 LINE",
"231 367 LINE"
);
}
);
width = 1200;
}
);
},
{
glyphname = multiply;
lastChange = "2019-05-14 17:00:04 +0000";
layers = (
{
layerId = "CE2138A5-93BA-4A69-8B69-7D34CC27D2DF";
paths = (
{
closed = 1;
nodes = (
"512 439 LINE",
"820 131 LINE",
"871 181 LINE",
"560 494 LINE",
"871 800 LINE",
"820 851 LINE",
"512 542 LINE",
"199 851 LINE",
"150 800 LINE",
"459 494 LINE",
"150 181 LINE",
"199 131 LINE"
);
}
);
width = 1021.175;
},
{
layerId = "54E4F05E-05D2-4398-A473-3C5492C75DBF";
paths = (
{
closed = 1;
nodes = (
"561 304 LINE",
"796 69 LINE",
"1025 298 LINE",
"788 531 LINE",
"1025 763 LINE",
"796 992 LINE",
"561 757 LINE",
"328 992 LINE",
"101 763 LINE",
"336 531 LINE",
"101 298 LINE",
"328 69 LINE"
);
}
);
width = 1122.65;
}
);
unicode = 00D7;
},
{
glyphname = divide;
lastChange = "2019-05-14 17:00:04 +0000";
layers = (
{
layerId = "CE2138A5-93BA-4A69-8B69-7D34CC27D2DF";
paths = (
{
closed = 1;
nodes = (
"819 460 LINE",
"819 522 LINE",
"201 522 LINE",
"201 460 LINE"
);
},
{
closed = 1;
nodes = (
"549 204 OFFCURVE",
"577 235 OFFCURVE",
"577 269 CURVE SMOOTH",
"577 302 OFFCURVE",
"549 338 OFFCURVE",
"510 338 CURVE SMOOTH",
"472 338 OFFCURVE",
"443 302 OFFCURVE",
"443 269 CURVE SMOOTH",
"443 235 OFFCURVE",
"472 204 OFFCURVE",
"510 204 CURVE SMOOTH"
);
},
{
closed = 1;
nodes = (
"549 647 OFFCURVE",
"577 676 OFFCURVE",
"577 712 CURVE SMOOTH",
"577 747 OFFCURVE",
"549 777 OFFCURVE",
"510 777 CURVE SMOOTH",
"472 777 OFFCURVE",
"443 747 OFFCURVE",
"443 712 CURVE SMOOTH",
"443 676 OFFCURVE",
"472 647 OFFCURVE",
"510 647 CURVE SMOOTH"
);
}
);
width = 1020.75;
},
{
layerId = "54E4F05E-05D2-4398-A473-3C5492C75DBF";
paths = (
{
closed = 1;
nodes = (
"954 436 LINE",
"954 719 LINE",
"96 719 LINE",
"96 436 LINE"
);
},
{
closed = 1;
nodes = (
"623 13 OFFCURVE",
"700 82 OFFCURVE",
"700 177 CURVE SMOOTH",
"700 271 OFFCURVE",
"623 338 OFFCURVE",
"522 338 CURVE SMOOTH",
"423 338 OFFCURVE",
"351 271 OFFCURVE",
"351 177 CURVE SMOOTH",
"351 82 OFFCURVE",
"423 13 OFFCURVE",
"522 13 CURVE SMOOTH"
);
},
{
closed = 1;
nodes = (
"623 807 OFFCURVE",
"700 873 OFFCURVE",
"700 970 CURVE SMOOTH",
"700 1061 OFFCURVE",
"623 1134 OFFCURVE",
"522 1134 CURVE SMOOTH",
"423 1134 OFFCURVE",
"351 1061 OFFCURVE",
"351 970 CURVE SMOOTH",
"351 873 OFFCURVE",
"423 807 OFFCURVE",
"522 807 CURVE SMOOTH"
);
}
);
width = 1051.5;
}
);
unicode = 00F7;
},
{
glyphname = notequal;
lastChange = "2019-05-14 17:00:04 +0000";
layers = (
{
layerId = "CE2138A5-93BA-4A69-8B69-7D34CC27D2DF";
paths = (
{
closed = 1;
nodes = (
"158 277 LINE",
"777 277 LINE",
"777 339 LINE",
"158 339 LINE"
);
},
{
closed = 1;
nodes = (
"158 620 LINE",
"777 620 LINE",
"777 686 LINE",
"158 686 LINE"
);
},
{
closed = 1;
nodes = (
"347 133 LINE",
"639 840 LINE",
"572 840 LINE",
"282 133 LINE"
);
}
);
width = 937.075;
},
{
layerId = "54E4F05E-05D2-4398-A473-3C5492C75DBF";
paths = (
{
closed = 1;
nodes = (
"158 148 LINE",
"894 148 LINE",
"894 425 LINE",
"158 425 LINE"
);
},
{
closed = 1;
nodes = (
"158 608 LINE",
"894 608 LINE",
"894 883 LINE",
"158 883 LINE"
);
},
{
closed = 1;
nodes = (
"470 28 LINE",
"799 1031 LINE",
"603 1031 LINE",
"270 28 LINE"
);
}
);
width = 1050.85;
}
);
unicode = 2260;
},
{
glyphname = greaterequal;
lastChange = "2019-05-14 17:00:04 +0000";
layers = (
{
layerId = "CE2138A5-93BA-4A69-8B69-7D34CC27D2DF";
paths = (
{
closed = 1;
nodes = (
"757 487 LINE",
"757 546 LINE",
"190 794 LINE",
"154 742 LINE",
"706 501 LINE",
"706 528 LINE",
"154 298 LINE",
"190 237 LINE"
);
},
{
closed = 1;
nodes = (
"781 0 LINE",
"781 61 LINE",
"162 61 LINE",
"162 0 LINE"
);
}
);
width = 937.075;
},
{
layerId = "54E4F05E-05D2-4398-A473-3C5492C75DBF";
paths = (
{
closed = 1;
nodes = (
"917 561 LINE",
"917 798 LINE",
"190 1052 LINE",
"136 791 LINE",
"749 624 LINE",
"749 737 LINE",
"136 568 LINE",
"190 311 LINE"
);
},
{
closed = 1;
nodes = (
"910 0 LINE",
"910 239 LINE",
"174 239 LINE",
"174 0 LINE"
);
}
);
width = 1050.85;
}
);
unicode = 2265;
},
{
glyphname = lessequal;
lastChange = "2019-05-14 17:00:04 +0000";
layers = (
{
layerId = "CE2138A5-93BA-4A69-8B69-7D34CC27D2DF";
paths = (
{
closed = 1;
nodes = (
"781 298 LINE",
"229 528 LINE",
"229 501 LINE",
"781 742 LINE",
"747 794 LINE",
"178 546 LINE",
"178 487 LINE",
"747 237 LINE"
);
},
{
closed = 1;
nodes = (
"773 0 LINE",
"773 61 LINE",
"154 61 LINE",
"154 0 LINE"
);
}
);
width = 937.075;
},
{
layerId = "54E4F05E-05D2-4398-A473-3C5492C75DBF";
paths = (
{
closed = 1;
nodes = (
"916 568 LINE",
"303 737 LINE",
"303 624 LINE",
"916 791 LINE",
"864 1052 LINE",
"135 798 LINE",
"135 561 LINE",
"864 311 LINE"
);
},
{
closed = 1;
nodes = (
"878 0 LINE",
"878 239 LINE",
"142 239 LINE",
"142 0 LINE"
);
}
);
width = 1050.85;
}
);
unicode = 2264;
},
{
glyphname = plusminus;
lastChange = "2019-05-14 17:00:04 +0000";
layers = (
{
layerId = "CE2138A5-93BA-4A69-8B69-7D34CC27D2DF";
paths = (
{
closed = 1;
nodes = (
"430 642 LINE",
"91 642 LINE",
"91 583 LINE",
"430 583 LINE",
"430 223 LINE",
"505 223 LINE",
"505 583 LINE",
"844 583 LINE",
"844 642 LINE",
"505 642 LINE",
"505 1001 LINE",
"430 1001 LINE"
);
},
{
closed = 1;
nodes = (
"140 0 LINE",
"797 0 LINE",
"797 61 LINE",
"140 61 LINE"
);
}
);
width = 937.075;
},
{
layerId = "54E4F05E-05D2-4398-A473-3C5492C75DBF";
paths = (
{
closed = 1;
nodes = (
"406 870 LINE",
"159 870 LINE",
"159 669 LINE",
"406 669 LINE",
"406 395 LINE",
"646 395 LINE",
"646 669 LINE",
"893 669 LINE",
"893 870 LINE",
"646 870 LINE",
"646 1148 LINE",
"406 1148 LINE"
);
},
{
closed = 1;
nodes = (
"158 0 LINE",
"896 0 LINE",
"896 239 LINE",
"158 239 LINE"
);
}
);
width = 1050.85;
}
);
unicode = 00B1;
},
{
glyphname = approxequal;
lastChange = "2019-05-20 19:43:09 +0000";
layers = (
{
anchors = (
{
name = _above;
position = "{510.995, 379.996}";
}
);
layerId = "CE2138A5-93BA-4A69-8B69-7D34CC27D2DF";
paths = (
{
closed = 1;
nodes = (
"182 575 OFFCURVE",
"221 600 OFFCURVE",
"267 600 CURVE SMOOTH",
"297 600 OFFCURVE",
"328 589 OFFCURVE",
"448.996 541.995 CURVE SMOOTH",
"550 503 OFFCURVE",
"601 486 OFFCURVE",
"643 486 CURVE SMOOTH",
"711.993 485.995 OFFCURVE",
"777 531 OFFCURVE",
"816.992 650.994 CURVE",
"775.992 677.993 LINE",
"736 592 OFFCURVE",
"691 560 OFFCURVE",
"634 560 CURVE SMOOTH",
"598 560 OFFCURVE",
"560 574 OFFCURVE",
"451.995 615.994 CURVE SMOOTH",
"347 657 OFFCURVE",
"308 672 OFFCURVE",
"271 672 CURVE SMOOTH",
"205.998 671.993 OFFCURVE",
"141 627 OFFCURVE",
"98 508.995 CURVE",
"142.999 485.995 LINE"
);
},
{
closed = 1;
nodes = (
"182 294 OFFCURVE",
"221 319 OFFCURVE",
"267 319 CURVE SMOOTH",
"297 319 OFFCURVE",
"328 308 OFFCURVE",
"448.996 260.995 CURVE SMOOTH",
"550 222 OFFCURVE",
"601 205 OFFCURVE",
"643 205 CURVE SMOOTH",
"711.993 204.995 OFFCURVE",
"777 250 OFFCURVE",
"816.992 369.994 CURVE",
"775.992 396.993 LINE",
"736 311 OFFCURVE",
"691 279 OFFCURVE",
"634 279 CURVE SMOOTH",
"598 279 OFFCURVE",
"560 293 OFFCURVE",
"451.995 334.994 CURVE SMOOTH",
"347 376 OFFCURVE",
"308 391 OFFCURVE",
"271 391 CURVE SMOOTH",
"205.998 390.993 OFFCURVE",
"141 346 OFFCURVE",
"98 227.995 CURVE",
"142.999 204.995 LINE"
);
}
);
width = 916.25;
},
{
anchors = (
{
name = _above;
position = "{618.141, 455.419}";
}
);
layerId = "54E4F05E-05D2-4398-A473-3C5492C75DBF";
paths = (
{
closed = 1;
nodes = (
"339 605 OFFCURVE",
"379 645 OFFCURVE",
"434 645 CURVE SMOOTH",
"484 645 OFFCURVE",
"570 612 OFFCURVE",
"599 601 CURVE SMOOTH",
"693 567 OFFCURVE",
"741 550 OFFCURVE",
"800 550 CURVE SMOOTH",
"943 550 OFFCURVE",
"1049 653 OFFCURVE",
"1103.997 832.783 CURVE",
"943.617 933.728 LINE",
"913 866 OFFCURVE",
"874 834 OFFCURVE",
"820 834 CURVE SMOOTH",
"780 834 OFFCURVE",
"734 851 OFFCURVE",
"655 881 CURVE SMOOTH",
"568 914 OFFCURVE",
"501 934 OFFCURVE",
"438 934 CURVE SMOOTH",
"279 934 OFFCURVE",
"200 808 OFFCURVE",
"152.096 612.025 CURVE",
"310.589 526.175 LINE"
);
},
{
closed = 1;
nodes = (
"339 152 OFFCURVE",
"379 192 OFFCURVE",
"434 192 CURVE SMOOTH",
"484 192 OFFCURVE",
"570 159 OFFCURVE",
"599 148 CURVE SMOOTH",
"693 114 OFFCURVE",
"741 97 OFFCURVE",
"800 97 CURVE SMOOTH",
"943 97 OFFCURVE",
"1049 200 OFFCURVE",
"1103.997 379.783 CURVE",
"943.617 480.728 LINE",
"913 413 OFFCURVE",
"874 381 OFFCURVE",
"820 381 CURVE SMOOTH",
"780 381 OFFCURVE",
"734 398 OFFCURVE",
"655 428 CURVE SMOOTH",
"568 461 OFFCURVE",
"501 481 OFFCURVE",
"438 481 CURVE SMOOTH",
"279 481 OFFCURVE",
"200 355 OFFCURVE",
"152.096 159.025 CURVE",
"310.589 73.175 LINE"
);
}
);
width = 1255;
}
);
unicode = 2248;
},
{
glyphname = plus.tf;
lastChange = "2019-05-14 17:00:04 +0000";
layers = (
{
layerId = "CE2138A5-93BA-4A69-8B69-7D34CC27D2DF";
paths = (
{
closed = 1;
nodes = (
"563 521 LINE",
"126 521 LINE",
"126 461 LINE",
"563 461 LINE",
"563 0 LINE",
"637 0 LINE",
"637 461 LINE",
"1076 461 LINE",
"1076 521 LINE",
"637 521 LINE",
"637 982 LINE",
"563 982 LINE"
);
}
);
width = 1200;
},
{
layerId = "54E4F05E-05D2-4398-A473-3C5492C75DBF";
paths = (
{
closed = 1;
nodes = (
"440 632 LINE",
"77 632 LINE",
"77 350 LINE",
"440 350 LINE",
"440 0 LINE",
"760 0 LINE",
"760 350 LINE",
"1125 350 LINE",
"1125 632 LINE",
"760 632 LINE",
"760 982 LINE",
"440 982 LINE"
);
}
);
width = 1200;
}
);
},
{
glyphname = minus.tf;
lastChange = "2019-05-14 17:00:04 +0000";
layers = (
{
layerId = "CE2138A5-93BA-4A69-8B69-7D34CC27D2DF";
paths = (
{
closed = 1;
nodes = (
"126 463 LINE",
"1074 463 LINE",
"1074 523 LINE",
"126 523 LINE"
);
}
);
width = 1200;
},
{
layerId = "54E4F05E-05D2-4398-A473-3C5492C75DBF";
paths = (
{
closed = 1;
nodes = (
"65 346 LINE",
"1135 346 LINE",
"1135 628 LINE",
"65 628 LINE"
);
}
);
width = 1200;
}
);
},
{
glyphname = equal.tf;
lastChange = "2019-05-14 17:00:04 +0000";
layers = (
{
layerId = "CE2138A5-93BA-4A69-8B69-7D34CC27D2DF";
paths = (
{
closed = 1;
nodes = (
"288 277 LINE",
"912 277 LINE",
"912 339 LINE",
"288 339 LINE"
);
},
{
closed = 1;
nodes = (
"288 620 LINE",
"912 620 LINE",
"912 686 LINE",
"288 686 LINE"
);
}
);
width = 1200;
},
{
layerId = "54E4F05E-05D2-4398-A473-3C5492C75DBF";
paths = (
{
closed = 1;
nodes = (
"233 148 LINE",
"967 148 LINE",
"967 425 LINE",
"233 425 LINE"
);
},
{
closed = 1;
nodes = (
"233 608 LINE",
"967 608 LINE",
"967 883 LINE",
"233 883 LINE"
);
}
);
width = 1200;
}
);
},
{
glyphname = greater.tf;
lastChange = "2019-05-14 17:00:04 +0000";
layers = (
{
layerId = "CE2138A5-93BA-4A69-8B69-7D34CC27D2DF";
paths = (
{
closed = 1;
nodes = (
"919 546 LINE",
"919 604 LINE",
"328 1048 LINE",
"281 989 LINE",
"864 562 LINE",
"864 589 LINE",
"281 167 LINE",
"328 105 LINE"
);
}
);
width = 1200;
},
{
layerId = "54E4F05E-05D2-4398-A473-3C5492C75DBF";
paths = (
{
closed = 1;
nodes = (
"1060 534 LINE",
"1060 826 LINE",
"352 1331 LINE",
"140 1088 LINE",
"827 611 LINE",
"827 749 LINE",
"140 272 LINE",
"352 31 LINE"
);
}
);
width = 1200;
}
);
},
{
glyphname = less.tf;
lastChange = "2019-05-14 17:00:04 +0000";
layers = (
{
layerId = "CE2138A5-93BA-4A69-8B69-7D34CC27D2DF";
paths = (
{
closed = 1;
nodes = (
"279 604 LINE",
"279 546 LINE",
"870 105 LINE",
"919 167 LINE",
"334 589 LINE",
"334 562 LINE",
"919 989 LINE",
"870 1048 LINE"
);
}
);
width = 1200;
},
{
layerId = "54E4F05E-05D2-4398-A473-3C5492C75DBF";
paths = (
{
closed = 1;
nodes = (
"138 826 LINE",
"138 534 LINE",
"846 31 LINE",
"1060 272 LINE",
"371 749 LINE",
"371 611 LINE",
"1060 1088 LINE",
"846 1331 LINE"
);
}
);
width = 1200;
}
);
},
{
glyphname = asciitilde.tf;
lastChange = "2019-05-14 17:00:04 +0000";
layers = (
{
layerId = "CE2138A5-93BA-4A69-8B69-7D34CC27D2DF";
paths = (
{
closed = 1;
nodes = (
"320 573 OFFCURVE",
"362 599 OFFCURVE",
"404 599 CURVE SMOOTH",
"440 599 OFFCURVE",
"474 587 OFFCURVE",
"590 541 CURVE SMOOTH",
"692 501 OFFCURVE",
"746 485 OFFCURVE",
"782 485 CURVE SMOOTH",
"855 485 OFFCURVE",
"919 528 OFFCURVE",
"961 650 CURVE",
"918 677 LINE",
"886 597 OFFCURVE",
"836 559 OFFCURVE",
"786 559 CURVE SMOOTH",
"750 559 OFFCURVE",
"718 565 OFFCURVE",
"598 615 CURVE SMOOTH",
"488 657 OFFCURVE",
"448 671 OFFCURVE",
"410 671 CURVE SMOOTH",
"347 671 OFFCURVE",
"281 624 OFFCURVE",
"239 508 CURVE",
"284 485 LINE"
);
}
);
width = 1200;
},
{
layerId = "54E4F05E-05D2-4398-A473-3C5492C75DBF";
paths = (
{
closed = 1;
nodes = (
"296 456 OFFCURVE",
"338 494 OFFCURVE",
"392 494 CURVE SMOOTH",
"434 494 OFFCURVE",
"480 482 OFFCURVE",
"566 449 CURVE SMOOTH",
"662 408 OFFCURVE",
"728 393 OFFCURVE",
"776 393 CURVE SMOOTH",
"929 393 OFFCURVE",
"1042 498 OFFCURVE",
"1102 693 CURVE",
"930 800 LINE",
"898 732 OFFCURVE",
"854 694 OFFCURVE",
"804 694 CURVE SMOOTH",
"762 694 OFFCURVE",
"706 712 OFFCURVE",
"622 744 CURVE SMOOTH",
"531 780 OFFCURVE",
"460 800 OFFCURVE",
"392 800 CURVE SMOOTH",
"224 800 OFFCURVE",
"140 661 OFFCURVE",
"92 459 CURVE",
"260 368 LINE"
);
}
);
width = 1200;
}
);
},
{
glyphname = asciicircum.tf;
lastChange = "2019-05-14 17:00:04 +0000";
layers = (
{
layerId = "CE2138A5-93BA-4A69-8B69-7D34CC27D2DF";
paths = (
{
closed = 1;
nodes = (
"358 545 LINE",
"614 1067 LINE",
"588 1067 LINE",
"842 545 LINE",
"930 545 LINE",
"627 1137 LINE",
"575 1137 LINE",
"270 545 LINE"
);
}
);
width = 1200;
},
{
layerId = "54E4F05E-05D2-4398-A473-3C5492C75DBF";
paths = (
{
closed = 1;
nodes = (
"376 379 LINE",
"663 1005 LINE",
"539 1005 LINE",
"824 379 LINE",
"1176 379 LINE",
"732 1242 LINE",
"470 1242 LINE",
"24 379 LINE"
);
}
);
width = 1200;
}
);
},
{
glyphname = percent.tf;
lastChange = "2019-05-14 17:00:04 +0000";
layers = (
{
layerId = "CE2138A5-93BA-4A69-8B69-7D34CC27D2DF";
paths = (
{
closed = 1;
nodes = (
"235 0 LINE",
"1049 1213 LINE",
"963 1213 LINE",
"155 0 LINE"
);
},
{
closed = 1;
nodes = (
"1048 -20 OFFCURVE",
"1160 78 OFFCURVE",
"1160 252 CURVE SMOOTH",
"1160 425 OFFCURVE",
"1048 521 OFFCURVE",
"922 521 CURVE SMOOTH",
"798 521 OFFCURVE",
"686 425 OFFCURVE",
"686 252 CURVE SMOOTH",
"686 78 OFFCURVE",
"798 -20 OFFCURVE",
"922 -20 CURVE SMOOTH"
);
},
{
closed = 1;
nodes = (
"821 43 OFFCURVE",
"755 115 OFFCURVE",
"755 252 CURVE SMOOTH",
"755 390 OFFCURVE",
"821 462 OFFCURVE",
"922 462 CURVE SMOOTH",
"1019 462 OFFCURVE",
"1087 390 OFFCURVE",
"1087 252 CURVE SMOOTH",
"1087 115 OFFCURVE",
"1019 43 OFFCURVE",
"922 43 CURVE SMOOTH"
);
},
{
closed = 1;
nodes = (
"402 694 OFFCURVE",
"518 788 OFFCURVE",
"518 961 CURVE SMOOTH",
"518 1133 OFFCURVE",
"402 1231 OFFCURVE",
"276 1231 CURVE SMOOTH",
"156 1231 OFFCURVE",
"40 1133 OFFCURVE",
"40 961 CURVE SMOOTH",
"40 788 OFFCURVE",
"156 694 OFFCURVE",
"276 694 CURVE SMOOTH"
);
},
{
closed = 1;
nodes = (
"177 755 OFFCURVE",
"111 825 OFFCURVE",
"111 961 CURVE SMOOTH",
"111 1100 OFFCURVE",
"177 1174 OFFCURVE",
"276 1174 CURVE SMOOTH",
"375 1174 OFFCURVE",
"443 1100 OFFCURVE",
"443 961 CURVE SMOOTH",
"443 825 OFFCURVE",
"375 755 OFFCURVE",
"276 755 CURVE SMOOTH"
);
}
